window.PRELOADED_NOTES = {
    "bpm": 175.0,
    "ticksPerBeat": 384,
    "notes": [
        {
            "track": 1,
            "channel": 0,
            "program": 1,
            "start_tick": 0,
            "end_tick": 92,
            "pitch": 81,
            "velocity": 127
        },
        {
            "track": 1,
            "channel": 0,
            "program": 1,
            "start_tick": 96,
            "end_tick": 188,
            "pitch": 77,
            "velocity": 127
        },
        {
            "track": 1,
            "channel": 0,
            "program": 1,
            "start_tick": 192,
            "end_tick": 284,
            "pitch": 81,
            "velocity": 127
        },
        {
            "track": 2,
            "channel": 1,
            "program": 38,
            "start_tick": 192,
            "end_tick": 380,
            "pitch": 33,
            "velocity": 96
        },
        {
            "track": 9,
            "channel": 9,
            "program": null,
            "start_tick": 192,
            "end_tick": 380,
            "pitch": 35,
            "velocity": 127
        },
        {
            "track": 1,
            "channel": 0,
            "program": 1,
            "start_tick": 288,
            "end_tick": 380,
            "pitch": 77,
            "velocity": 127
        },
        {
            "track": 1,
            "channel": 0,
            "program": 1,
            "start_tick": 384,
            "end_tick": 476,
            "pitch": 83,
            "velocity": 127
        },
        {
            "track": 2,
            "channel": 1,
            "program": 38,
            "start_tick": 384,
            "end_tick": 572,
            "pitch": 45,
            "velocity": 96
        },
        {
            "track": 9,
            "channel": 9,
            "program": null,
            "start_tick": 384,
            "end_tick": 572,
            "pitch": 38,
            "velocity": 127
        },
        {
            "track": 1,
            "channel": 0,
            "program": 1,
            "start_tick": 480,
            "end_tick": 572,
            "pitch": 79,
            "velocity": 127
        },
        {
            "track": 1,
            "channel": 0,
            "program": 1,
            "start_tick": 576,
            "end_tick": 668,
            "pitch": 83,
            "velocity": 127
        },
        {
            "track": 2,
            "channel": 1,
            "program": 38,
            "start_tick": 576,
            "end_tick": 764,
            "pitch": 33,
            "velocity": 96
        },
        {
            "track": 9,
            "channel": 9,
            "program": null,
            "start_tick": 576,
            "end_tick": 764,
            "pitch": 35,
            "velocity": 127
        },
        {
            "track": 1,
            "channel": 0,
            "program": 1,
            "start_tick": 672,
            "end_tick": 764,
            "pitch": 79,
            "velocity": 127
        },
        {
            "track": 1,
            "channel": 0,
            "program": 1,
            "start_tick": 768,
            "end_tick": 860,
            "pitch": 84,
            "velocity": 127
        },
        {
            "track": 2,
            "channel": 1,
            "program": 38,
            "start_tick": 768,
            "end_tick": 956,
            "pitch": 34,
            "velocity": 96
        },
        {
            "track": 9,
            "channel": 9,
            "program": null,
            "start_tick": 768,
            "end_tick": 956,
            "pitch": 35,
            "velocity": 127
        },
        {
            "track": 1,
            "channel": 0,
            "program": 1,
            "start_tick": 864,
            "end_tick": 956,
            "pitch": 81,
            "velocity": 127
        },
        {
            "track": 1,
            "channel": 0,
            "program": 1,
            "start_tick": 960,
            "end_tick": 1052,
            "pitch": 84,
            "velocity": 127
        },
        {
            "track": 2,
            "channel": 1,
            "program": 38,
            "start_tick": 960,
            "end_tick": 1148,
            "pitch": 46,
            "velocity": 96
        },
        {
            "track": 9,
            "channel": 9,
            "program": null,
            "start_tick": 960,
            "end_tick": 1148,
            "pitch": 38,
            "velocity": 127
        },
        {
            "track": 1,
            "channel": 0,
            "program": 1,
            "start_tick": 1056,
            "end_tick": 1148,
            "pitch": 81,
            "velocity": 127
        },
        {
            "track": 1,
            "channel": 0,
            "program": 1,
            "start_tick": 1152,
            "end_tick": 1244,
            "pitch": 86,
            "velocity": 127
        },
        {
            "track": 2,
            "channel": 1,
            "program": 38,
            "start_tick": 1152,
            "end_tick": 1340,
            "pitch": 35,
            "velocity": 96
        },
        {
            "track": 9,
            "channel": 9,
            "program": null,
            "start_tick": 1152,
            "end_tick": 1340,
            "pitch": 35,
            "velocity": 127
        },
        {
            "track": 1,
            "channel": 0,
            "program": 1,
            "start_tick": 1248,
            "end_tick": 1340,
            "pitch": 83,
            "velocity": 127
        },
        {
            "track": 1,
            "channel": 0,
            "program": 1,
            "start_tick": 1344,
            "end_tick": 1436,
            "pitch": 86,
            "velocity": 127
        },
        {
            "track": 2,
            "channel": 1,
            "program": 38,
            "start_tick": 1344,
            "end_tick": 1532,
            "pitch": 47,
            "velocity": 96
        },
        {
            "track": 9,
            "channel": 9,
            "program": null,
            "start_tick": 1344,
            "end_tick": 1532,
            "pitch": 38,
            "velocity": 127
        },
        {
            "track": 1,
            "channel": 0,
            "program": 1,
            "start_tick": 1440,
            "end_tick": 1532,
            "pitch": 83,
            "velocity": 127
        },
        {
            "track": 1,
            "channel": 0,
            "program": 1,
            "start_tick": 1536,
            "end_tick": 1628,
            "pitch": 88,
            "velocity": 127
        },
        {
            "track": 2,
            "channel": 1,
            "program": 38,
            "start_tick": 1536,
            "end_tick": 1628,
            "pitch": 36,
            "velocity": 96
        },
        {
            "track": 3,
            "channel": 2,
            "program": 63,
            "start_tick": 1536,
            "end_tick": 2108,
            "pitch": 71,
            "velocity": 64
        },
        {
            "track": 3,
            "channel": 2,
            "program": 63,
            "start_tick": 1536,
            "end_tick": 2108,
            "pitch": 67,
            "velocity": 64
        },
        {
            "track": 4,
            "channel": 3,
            "program": 80,
            "start_tick": 1536,
            "end_tick": 1628,
            "pitch": 84,
            "velocity": 64
        },
        {
            "track": 9,
            "channel": 9,
            "program": null,
            "start_tick": 1536,
            "end_tick": 1724,
            "pitch": 35,
            "velocity": 127
        },
        {
            "track": 9,
            "channel": 9,
            "program": null,
            "start_tick": 1536,
            "end_tick": 1916,
            "pitch": 49,
            "velocity": 127
        },
        {
            "track": 1,
            "channel": 0,
            "program": 1,
            "start_tick": 1632,
            "end_tick": 1724,
            "pitch": 84,
            "velocity": 127
        },
        {
            "track": 1,
            "channel": 0,
            "program": 1,
            "start_tick": 1728,
            "end_tick": 1820,
            "pitch": 88,
            "velocity": 127
        },
        {
            "track": 2,
            "channel": 1,
            "program": 38,
            "start_tick": 1728,
            "end_tick": 1820,
            "pitch": 36,
            "velocity": 96
        },
        {
            "track": 4,
            "channel": 3,
            "program": 80,
            "start_tick": 1728,
            "end_tick": 1820,
            "pitch": 83,
            "velocity": 64
        },
        {
            "track": 1,
            "channel": 0,
            "program": 1,
            "start_tick": 1824,
            "end_tick": 1916,
            "pitch": 84,
            "velocity": 127
        },
        {
            "track": 1,
            "channel": 0,
            "program": 1,
            "start_tick": 1920,
            "end_tick": 2012,
            "pitch": 88,
            "velocity": 127
        },
        {
            "track": 2,
            "channel": 1,
            "program": 38,
            "start_tick": 1920,
            "end_tick": 2012,
            "pitch": 36,
            "velocity": 96
        },
        {
            "track": 4,
            "channel": 3,
            "program": 80,
            "start_tick": 1920,
            "end_tick": 2012,
            "pitch": 81,
            "velocity": 64
        },
        {
            "track": 9,
            "channel": 9,
            "program": null,
            "start_tick": 1920,
            "end_tick": 2108,
            "pitch": 38,
            "velocity": 127
        },
        {
            "track": 1,
            "channel": 0,
            "program": 1,
            "start_tick": 2016,
            "end_tick": 2108,
            "pitch": 84,
            "velocity": 127
        },
        {
            "track": 1,
            "channel": 0,
            "program": 1,
            "start_tick": 2112,
            "end_tick": 2204,
            "pitch": 88,
            "velocity": 127
        },
        {
            "track": 2,
            "channel": 1,
            "program": 38,
            "start_tick": 2112,
            "end_tick": 2204,
            "pitch": 36,
            "velocity": 96
        },
        {
            "track": 3,
            "channel": 2,
            "program": 63,
            "start_tick": 2112,
            "end_tick": 2684,
            "pitch": 69,
            "velocity": 64
        },
        {
            "track": 3,
            "channel": 2,
            "program": 63,
            "start_tick": 2112,
            "end_tick": 2684,
            "pitch": 65,
            "velocity": 64
        },
        {
            "track": 4,
            "channel": 3,
            "program": 80,
            "start_tick": 2112,
            "end_tick": 2204,
            "pitch": 79,
            "velocity": 64
        },
        {
            "track": 9,
            "channel": 9,
            "program": null,
            "start_tick": 2112,
            "end_tick": 2300,
            "pitch": 35,
            "velocity": 127
        },
        {
            "track": 1,
            "channel": 0,
            "program": 1,
            "start_tick": 2208,
            "end_tick": 2300,
            "pitch": 84,
            "velocity": 127
        },
        {
            "track": 1,
            "channel": 0,
            "program": 1,
            "start_tick": 2304,
            "end_tick": 2396,
            "pitch": 88,
            "velocity": 127
        },
        {
            "track": 2,
            "channel": 1,
            "program": 38,
            "start_tick": 2304,
            "end_tick": 2396,
            "pitch": 36,
            "velocity": 96
        },
        {
            "track": 4,
            "channel": 3,
            "program": 80,
            "start_tick": 2304,
            "end_tick": 2396,
            "pitch": 84,
            "velocity": 64
        },
        {
            "track": 1,
            "channel": 0,
            "program": 1,
            "start_tick": 2400,
            "end_tick": 2492,
            "pitch": 84,
            "velocity": 127
        },
        {
            "track": 1,
            "channel": 0,
            "program": 1,
            "start_tick": 2496,
            "end_tick": 2588,
            "pitch": 88,
            "velocity": 127
        },
        {
            "track": 2,
            "channel": 1,
            "program": 38,
            "start_tick": 2496,
            "end_tick": 2588,
            "pitch": 36,
            "velocity": 96
        },
        {
            "track": 4,
            "channel": 3,
            "program": 80,
            "start_tick": 2496,
            "end_tick": 2588,
            "pitch": 83,
            "velocity": 64
        },
        {
            "track": 9,
            "channel": 9,
            "program": null,
            "start_tick": 2496,
            "end_tick": 2684,
            "pitch": 35,
            "velocity": 127
        },
        {
            "track": 1,
            "channel": 0,
            "program": 1,
            "start_tick": 2592,
            "end_tick": 2684,
            "pitch": 84,
            "velocity": 127
        },
        {
            "track": 1,
            "channel": 0,
            "program": 1,
            "start_tick": 2688,
            "end_tick": 2780,
            "pitch": 88,
            "velocity": 127
        },
        {
            "track": 2,
            "channel": 1,
            "program": 38,
            "start_tick": 2688,
            "end_tick": 2780,
            "pitch": 36,
            "velocity": 96
        },
        {
            "track": 3,
            "channel": 2,
            "program": 63,
            "start_tick": 2688,
            "end_tick": 3260,
            "pitch": 67,
            "velocity": 64
        },
        {
            "track": 3,
            "channel": 2,
            "program": 63,
            "start_tick": 2688,
            "end_tick": 3260,
            "pitch": 71,
            "velocity": 64
        },
        {
            "track": 4,
            "channel": 3,
            "program": 80,
            "start_tick": 2688,
            "end_tick": 2780,
            "pitch": 81,
            "velocity": 64
        },
        {
            "track": 9,
            "channel": 9,
            "program": null,
            "start_tick": 2688,
            "end_tick": 2876,
            "pitch": 38,
            "velocity": 127
        },
        {
            "track": 1,
            "channel": 0,
            "program": 1,
            "start_tick": 2784,
            "end_tick": 2876,
            "pitch": 84,
            "velocity": 127
        },
        {
            "track": 1,
            "channel": 0,
            "program": 1,
            "start_tick": 2880,
            "end_tick": 2972,
            "pitch": 88,
            "velocity": 127
        },
        {
            "track": 2,
            "channel": 1,
            "program": 38,
            "start_tick": 2880,
            "end_tick": 2972,
            "pitch": 36,
            "velocity": 96
        },
        {
            "track": 4,
            "channel": 3,
            "program": 80,
            "start_tick": 2880,
            "end_tick": 2972,
            "pitch": 79,
            "velocity": 64
        },
        {
            "track": 1,
            "channel": 0,
            "program": 1,
            "start_tick": 2976,
            "end_tick": 3068,
            "pitch": 84,
            "velocity": 127
        },
        {
            "track": 1,
            "channel": 0,
            "program": 1,
            "start_tick": 3072,
            "end_tick": 3164,
            "pitch": 88,
            "velocity": 127
        },
        {
            "track": 2,
            "channel": 1,
            "program": 38,
            "start_tick": 3072,
            "end_tick": 3164,
            "pitch": 36,
            "velocity": 96
        },
        {
            "track": 4,
            "channel": 3,
            "program": 80,
            "start_tick": 3072,
            "end_tick": 3164,
            "pitch": 84,
            "velocity": 64
        },
        {
            "track": 9,
            "channel": 9,
            "program": null,
            "start_tick": 3072,
            "end_tick": 3260,
            "pitch": 35,
            "velocity": 127
        },
        {
            "track": 1,
            "channel": 0,
            "program": 1,
            "start_tick": 3168,
            "end_tick": 3260,
            "pitch": 84,
            "velocity": 127
        },
        {
            "track": 1,
            "channel": 0,
            "program": 1,
            "start_tick": 3264,
            "end_tick": 3356,
            "pitch": 88,
            "velocity": 127
        },
        {
            "track": 2,
            "channel": 1,
            "program": 38,
            "start_tick": 3264,
            "end_tick": 3356,
            "pitch": 36,
            "velocity": 96
        },
        {
            "track": 3,
            "channel": 2,
            "program": 63,
            "start_tick": 3264,
            "end_tick": 3836,
            "pitch": 69,
            "velocity": 64
        },
        {
            "track": 3,
            "channel": 2,
            "program": 63,
            "start_tick": 3264,
            "end_tick": 3836,
            "pitch": 65,
            "velocity": 64
        },
        {
            "track": 4,
            "channel": 3,
            "program": 80,
            "start_tick": 3264,
            "end_tick": 3356,
            "pitch": 83,
            "velocity": 64
        },
        {
            "track": 1,
            "channel": 0,
            "program": 1,
            "start_tick": 3360,
            "end_tick": 3452,
            "pitch": 84,
            "velocity": 127
        },
        {
            "track": 1,
            "channel": 0,
            "program": 1,
            "start_tick": 3456,
            "end_tick": 3548,
            "pitch": 88,
            "velocity": 127
        },
        {
            "track": 2,
            "channel": 1,
            "program": 38,
            "start_tick": 3456,
            "end_tick": 3548,
            "pitch": 36,
            "velocity": 96
        },
        {
            "track": 4,
            "channel": 3,
            "program": 80,
            "start_tick": 3456,
            "end_tick": 3548,
            "pitch": 81,
            "velocity": 64
        },
        {
            "track": 9,
            "channel": 9,
            "program": null,
            "start_tick": 3456,
            "end_tick": 3644,
            "pitch": 38,
            "velocity": 127
        },
        {
            "track": 1,
            "channel": 0,
            "program": 1,
            "start_tick": 3552,
            "end_tick": 3644,
            "pitch": 84,
            "velocity": 127
        },
        {
            "track": 1,
            "channel": 0,
            "program": 1,
            "start_tick": 3648,
            "end_tick": 3740,
            "pitch": 88,
            "velocity": 127
        },
        {
            "track": 2,
            "channel": 1,
            "program": 38,
            "start_tick": 3648,
            "end_tick": 3740,
            "pitch": 36,
            "velocity": 96
        },
        {
            "track": 4,
            "channel": 3,
            "program": 80,
            "start_tick": 3648,
            "end_tick": 3740,
            "pitch": 79,
            "velocity": 64
        },
        {
            "track": 9,
            "channel": 9,
            "program": null,
            "start_tick": 3648,
            "end_tick": 3836,
            "pitch": 35,
            "velocity": 127
        },
        {
            "track": 1,
            "channel": 0,
            "program": 1,
            "start_tick": 3744,
            "end_tick": 3836,
            "pitch": 84,
            "velocity": 127
        },
        {
            "track": 2,
            "channel": 1,
            "program": 38,
            "start_tick": 3840,
            "end_tick": 3932,
            "pitch": 36,
            "velocity": 96
        },
        {
            "track": 3,
            "channel": 2,
            "program": 63,
            "start_tick": 3840,
            "end_tick": 4124,
            "pitch": 71,
            "velocity": 64
        },
        {
            "track": 3,
            "channel": 2,
            "program": 63,
            "start_tick": 3840,
            "end_tick": 4124,
            "pitch": 67,
            "velocity": 64
        },
        {
            "track": 4,
            "channel": 3,
            "program": 80,
            "start_tick": 3840,
            "end_tick": 3932,
            "pitch": 84,
            "velocity": 64
        },
        {
            "track": 2,
            "channel": 1,
            "program": 38,
            "start_tick": 4032,
            "end_tick": 4124,
            "pitch": 36,
            "velocity": 96
        },
        {
            "track": 4,
            "channel": 3,
            "program": 80,
            "start_tick": 4032,
            "end_tick": 4124,
            "pitch": 83,
            "velocity": 64
        },
        {
            "track": 9,
            "channel": 9,
            "program": null,
            "start_tick": 4032,
            "end_tick": 4220,
            "pitch": 35,
            "velocity": 127
        },
        {
            "track": 2,
            "channel": 1,
            "program": 38,
            "start_tick": 4224,
            "end_tick": 4316,
            "pitch": 36,
            "velocity": 96
        },
        {
            "track": 3,
            "channel": 2,
            "program": 63,
            "start_tick": 4224,
            "end_tick": 4508,
            "pitch": 69,
            "velocity": 64
        },
        {
            "track": 3,
            "channel": 2,
            "program": 63,
            "start_tick": 4224,
            "end_tick": 4508,
            "pitch": 65,
            "velocity": 64
        },
        {
            "track": 4,
            "channel": 3,
            "program": 80,
            "start_tick": 4224,
            "end_tick": 4316,
            "pitch": 81,
            "velocity": 64
        },
        {
            "track": 9,
            "channel": 9,
            "program": null,
            "start_tick": 4224,
            "end_tick": 4412,
            "pitch": 38,
            "velocity": 127
        },
        {
            "track": 2,
            "channel": 1,
            "program": 38,
            "start_tick": 4416,
            "end_tick": 4508,
            "pitch": 36,
            "velocity": 96
        },
        {
            "track": 4,
            "channel": 3,
            "program": 80,
            "start_tick": 4416,
            "end_tick": 4508,
            "pitch": 79,
            "velocity": 64
        },
        {
            "track": 2,
            "channel": 1,
            "program": 38,
            "start_tick": 4608,
            "end_tick": 4700,
            "pitch": 36,
            "velocity": 96
        },
        {
            "track": 3,
            "channel": 2,
            "program": 63,
            "start_tick": 4608,
            "end_tick": 5372,
            "pitch": 72,
            "velocity": 64
        },
        {
            "track": 3,
            "channel": 2,
            "program": 63,
            "start_tick": 4608,
            "end_tick": 5372,
            "pitch": 69,
            "velocity": 64
        },
        {
            "track": 4,
            "channel": 3,
            "program": 80,
            "start_tick": 4608,
            "end_tick": 4700,
            "pitch": 84,
            "velocity": 64
        },
        {
            "track": 9,
            "channel": 9,
            "program": null,
            "start_tick": 4608,
            "end_tick": 4796,
            "pitch": 35,
            "velocity": 127
        },
        {
            "track": 2,
            "channel": 1,
            "program": 38,
            "start_tick": 4800,
            "end_tick": 4892,
            "pitch": 36,
            "velocity": 96
        },
        {
            "track": 4,
            "channel": 3,
            "program": 80,
            "start_tick": 4800,
            "end_tick": 4892,
            "pitch": 83,
            "velocity": 64
        },
        {
            "track": 2,
            "channel": 1,
            "program": 38,
            "start_tick": 4992,
            "end_tick": 5084,
            "pitch": 36,
            "velocity": 96
        },
        {
            "track": 4,
            "channel": 3,
            "program": 80,
            "start_tick": 4992,
            "end_tick": 5084,
            "pitch": 81,
            "velocity": 64
        },
        {
            "track": 9,
            "channel": 9,
            "program": null,
            "start_tick": 4992,
            "end_tick": 5180,
            "pitch": 38,
            "velocity": 127
        },
        {
            "track": 2,
            "channel": 1,
            "program": 38,
            "start_tick": 5184,
            "end_tick": 5276,
            "pitch": 36,
            "velocity": 96
        },
        {
            "track": 4,
            "channel": 3,
            "program": 80,
            "start_tick": 5184,
            "end_tick": 5276,
            "pitch": 79,
            "velocity": 64
        },
        {
            "track": 9,
            "channel": 9,
            "program": null,
            "start_tick": 5184,
            "end_tick": 5372,
            "pitch": 35,
            "velocity": 127
        },
        {
            "track": 2,
            "channel": 1,
            "program": 38,
            "start_tick": 5376,
            "end_tick": 5468,
            "pitch": 36,
            "velocity": 96
        },
        {
            "track": 3,
            "channel": 2,
            "program": 63,
            "start_tick": 5376,
            "end_tick": 6140,
            "pitch": 71,
            "velocity": 64
        },
        {
            "track": 3,
            "channel": 2,
            "program": 63,
            "start_tick": 5376,
            "end_tick": 6140,
            "pitch": 67,
            "velocity": 64
        },
        {
            "track": 4,
            "channel": 3,
            "program": 80,
            "start_tick": 5376,
            "end_tick": 5468,
            "pitch": 84,
            "velocity": 64
        },
        {
            "track": 2,
            "channel": 1,
            "program": 38,
            "start_tick": 5568,
            "end_tick": 5660,
            "pitch": 36,
            "velocity": 96
        },
        {
            "track": 4,
            "channel": 3,
            "program": 80,
            "start_tick": 5568,
            "end_tick": 5660,
            "pitch": 83,
            "velocity": 64
        },
        {
            "track": 9,
            "channel": 9,
            "program": null,
            "start_tick": 5568,
            "end_tick": 5756,
            "pitch": 35,
            "velocity": 127
        },
        {
            "track": 2,
            "channel": 1,
            "program": 38,
            "start_tick": 5760,
            "end_tick": 5852,
            "pitch": 36,
            "velocity": 96
        },
        {
            "track": 4,
            "channel": 3,
            "program": 80,
            "start_tick": 5760,
            "end_tick": 5852,
            "pitch": 81,
            "velocity": 64
        },
        {
            "track": 9,
            "channel": 9,
            "program": null,
            "start_tick": 5760,
            "end_tick": 5948,
            "pitch": 38,
            "velocity": 127
        },
        {
            "track": 2,
            "channel": 1,
            "program": 38,
            "start_tick": 5952,
            "end_tick": 6044,
            "pitch": 36,
            "velocity": 96
        },
        {
            "track": 4,
            "channel": 3,
            "program": 80,
            "start_tick": 5952,
            "end_tick": 6044,
            "pitch": 79,
            "velocity": 64
        },
        {
            "track": 2,
            "channel": 1,
            "program": 38,
            "start_tick": 6144,
            "end_tick": 6236,
            "pitch": 36,
            "velocity": 96
        },
        {
            "track": 3,
            "channel": 2,
            "program": 63,
            "start_tick": 6144,
            "end_tick": 7676,
            "pitch": 69,
            "velocity": 64
        },
        {
            "track": 3,
            "channel": 2,
            "program": 63,
            "start_tick": 6144,
            "end_tick": 7676,
            "pitch": 65,
            "velocity": 64
        },
        {
            "track": 4,
            "channel": 3,
            "program": 80,
            "start_tick": 6144,
            "end_tick": 6236,
            "pitch": 84,
            "velocity": 64
        },
        {
            "track": 9,
            "channel": 9,
            "program": null,
            "start_tick": 6144,
            "end_tick": 6332,
            "pitch": 35,
            "velocity": 127
        },
        {
            "track": 2,
            "channel": 1,
            "program": 38,
            "start_tick": 6336,
            "end_tick": 6428,
            "pitch": 36,
            "velocity": 96
        },
        {
            "track": 4,
            "channel": 3,
            "program": 80,
            "start_tick": 6336,
            "end_tick": 6428,
            "pitch": 83,
            "velocity": 64
        },
        {
            "track": 2,
            "channel": 1,
            "program": 38,
            "start_tick": 6528,
            "end_tick": 6716,
            "pitch": 36,
            "velocity": 96
        },
        {
            "track": 4,
            "channel": 3,
            "program": 80,
            "start_tick": 6528,
            "end_tick": 6620,
            "pitch": 81,
            "velocity": 64
        },
        {
            "track": 9,
            "channel": 9,
            "program": null,
            "start_tick": 6528,
            "end_tick": 6716,
            "pitch": 38,
            "velocity": 127
        },
        {
            "track": 2,
            "channel": 1,
            "program": 38,
            "start_tick": 6720,
            "end_tick": 6812,
            "pitch": 36,
            "velocity": 96
        },
        {
            "track": 4,
            "channel": 3,
            "program": 80,
            "start_tick": 6720,
            "end_tick": 6812,
            "pitch": 79,
            "velocity": 64
        },
        {
            "track": 9,
            "channel": 9,
            "program": null,
            "start_tick": 6720,
            "end_tick": 6908,
            "pitch": 35,
            "velocity": 127
        },
        {
            "track": 2,
            "channel": 1,
            "program": 38,
            "start_tick": 6912,
            "end_tick": 7004,
            "pitch": 33,
            "velocity": 96
        },
        {
            "track": 4,
            "channel": 3,
            "program": 80,
            "start_tick": 6912,
            "end_tick": 7004,
            "pitch": 84,
            "velocity": 64
        },
        {
            "track": 2,
            "channel": 1,
            "program": 38,
            "start_tick": 7104,
            "end_tick": 7292,
            "pitch": 33,
            "velocity": 96
        },
        {
            "track": 4,
            "channel": 3,
            "program": 80,
            "start_tick": 7104,
            "end_tick": 7196,
            "pitch": 83,
            "velocity": 64
        },
        {
            "track": 9,
            "channel": 9,
            "program": null,
            "start_tick": 7104,
            "end_tick": 7292,
            "pitch": 35,
            "velocity": 127
        },
        {
            "track": 2,
            "channel": 1,
            "program": 38,
            "start_tick": 7296,
            "end_tick": 7388,
            "pitch": 35,
            "velocity": 96
        },
        {
            "track": 4,
            "channel": 3,
            "program": 80,
            "start_tick": 7296,
            "end_tick": 7388,
            "pitch": 81,
            "velocity": 64
        },
        {
            "track": 9,
            "channel": 9,
            "program": null,
            "start_tick": 7296,
            "end_tick": 7484,
            "pitch": 38,
            "velocity": 127
        },
        {
            "track": 2,
            "channel": 1,
            "program": 38,
            "start_tick": 7488,
            "end_tick": 7676,
            "pitch": 35,
            "velocity": 96
        },
        {
            "track": 4,
            "channel": 3,
            "program": 80,
            "start_tick": 7488,
            "end_tick": 7580,
            "pitch": 79,
            "velocity": 64
        },
        {
            "track": 2,
            "channel": 1,
            "program": 38,
            "start_tick": 7680,
            "end_tick": 7772,
            "pitch": 36,
            "velocity": 96
        },
        {
            "track": 3,
            "channel": 2,
            "program": 63,
            "start_tick": 7680,
            "end_tick": 8252,
            "pitch": 69,
            "velocity": 64
        },
        {
            "track": 3,
            "channel": 2,
            "program": 63,
            "start_tick": 7680,
            "end_tick": 8252,
            "pitch": 65,
            "velocity": 64
        },
        {
            "track": 4,
            "channel": 3,
            "program": 80,
            "start_tick": 7680,
            "end_tick": 7772,
            "pitch": 84,
            "velocity": 64
        },
        {
            "track": 9,
            "channel": 9,
            "program": null,
            "start_tick": 7680,
            "end_tick": 7868,
            "pitch": 35,
            "velocity": 127
        },
        {
            "track": 2,
            "channel": 1,
            "program": 38,
            "start_tick": 7872,
            "end_tick": 7964,
            "pitch": 36,
            "velocity": 96
        },
        {
            "track": 4,
            "channel": 3,
            "program": 80,
            "start_tick": 7872,
            "end_tick": 7964,
            "pitch": 83,
            "velocity": 64
        },
        {
            "track": 2,
            "channel": 1,
            "program": 38,
            "start_tick": 8064,
            "end_tick": 8156,
            "pitch": 36,
            "velocity": 96
        },
        {
            "track": 4,
            "channel": 3,
            "program": 80,
            "start_tick": 8064,
            "end_tick": 8156,
            "pitch": 81,
            "velocity": 64
        },
        {
            "track": 9,
            "channel": 9,
            "program": null,
            "start_tick": 8064,
            "end_tick": 8252,
            "pitch": 38,
            "velocity": 127
        },
        {
            "track": 2,
            "channel": 1,
            "program": 38,
            "start_tick": 8256,
            "end_tick": 8348,
            "pitch": 36,
            "velocity": 96
        },
        {
            "track": 3,
            "channel": 2,
            "program": 63,
            "start_tick": 8256,
            "end_tick": 8828,
            "pitch": 71,
            "velocity": 64
        },
        {
            "track": 3,
            "channel": 2,
            "program": 63,
            "start_tick": 8256,
            "end_tick": 8828,
            "pitch": 67,
            "velocity": 64
        },
        {
            "track": 4,
            "channel": 3,
            "program": 80,
            "start_tick": 8256,
            "end_tick": 8348,
            "pitch": 79,
            "velocity": 64
        },
        {
            "track": 9,
            "channel": 9,
            "program": null,
            "start_tick": 8256,
            "end_tick": 8444,
            "pitch": 35,
            "velocity": 127
        },
        {
            "track": 2,
            "channel": 1,
            "program": 38,
            "start_tick": 8448,
            "end_tick": 8540,
            "pitch": 36,
            "velocity": 96
        },
        {
            "track": 4,
            "channel": 3,
            "program": 80,
            "start_tick": 8448,
            "end_tick": 8540,
            "pitch": 84,
            "velocity": 64
        },
        {
            "track": 2,
            "channel": 1,
            "program": 38,
            "start_tick": 8640,
            "end_tick": 8732,
            "pitch": 36,
            "velocity": 96
        },
        {
            "track": 4,
            "channel": 3,
            "program": 80,
            "start_tick": 8640,
            "end_tick": 8732,
            "pitch": 83,
            "velocity": 64
        },
        {
            "track": 9,
            "channel": 9,
            "program": null,
            "start_tick": 8640,
            "end_tick": 8828,
            "pitch": 35,
            "velocity": 127
        },
        {
            "track": 2,
            "channel": 1,
            "program": 38,
            "start_tick": 8832,
            "end_tick": 8924,
            "pitch": 36,
            "velocity": 96
        },
        {
            "track": 3,
            "channel": 2,
            "program": 63,
            "start_tick": 8832,
            "end_tick": 9116,
            "pitch": 72,
            "velocity": 64
        },
        {
            "track": 3,
            "channel": 2,
            "program": 63,
            "start_tick": 8832,
            "end_tick": 9116,
            "pitch": 69,
            "velocity": 64
        },
        {
            "track": 4,
            "channel": 3,
            "program": 80,
            "start_tick": 8832,
            "end_tick": 8924,
            "pitch": 81,
            "velocity": 64
        },
        {
            "track": 9,
            "channel": 9,
            "program": null,
            "start_tick": 8832,
            "end_tick": 9020,
            "pitch": 38,
            "velocity": 127
        },
        {
            "track": 2,
            "channel": 1,
            "program": 38,
            "start_tick": 9024,
            "end_tick": 9116,
            "pitch": 36,
            "velocity": 96
        },
        {
            "track": 4,
            "channel": 3,
            "program": 80,
            "start_tick": 9024,
            "end_tick": 9116,
            "pitch": 79,
            "velocity": 64
        },
        {
            "track": 2,
            "channel": 1,
            "program": 38,
            "start_tick": 9216,
            "end_tick": 9308,
            "pitch": 36,
            "velocity": 96
        },
        {
            "track": 3,
            "channel": 2,
            "program": 63,
            "start_tick": 9216,
            "end_tick": 9788,
            "pitch": 65,
            "velocity": 64
        },
        {
            "track": 3,
            "channel": 2,
            "program": 63,
            "start_tick": 9216,
            "end_tick": 9788,
            "pitch": 69,
            "velocity": 64
        },
        {
            "track": 4,
            "channel": 3,
            "program": 80,
            "start_tick": 9216,
            "end_tick": 9308,
            "pitch": 84,
            "velocity": 64
        },
        {
            "track": 9,
            "channel": 9,
            "program": null,
            "start_tick": 9216,
            "end_tick": 9404,
            "pitch": 35,
            "velocity": 127
        },
        {
            "track": 2,
            "channel": 1,
            "program": 38,
            "start_tick": 9408,
            "end_tick": 9500,
            "pitch": 36,
            "velocity": 96
        },
        {
            "track": 4,
            "channel": 3,
            "program": 80,
            "start_tick": 9408,
            "end_tick": 9500,
            "pitch": 83,
            "velocity": 64
        },
        {
            "track": 2,
            "channel": 1,
            "program": 38,
            "start_tick": 9600,
            "end_tick": 9692,
            "pitch": 36,
            "velocity": 96
        },
        {
            "track": 4,
            "channel": 3,
            "program": 80,
            "start_tick": 9600,
            "end_tick": 9692,
            "pitch": 81,
            "velocity": 64
        },
        {
            "track": 9,
            "channel": 9,
            "program": null,
            "start_tick": 9600,
            "end_tick": 9788,
            "pitch": 38,
            "velocity": 127
        },
        {
            "track": 2,
            "channel": 1,
            "program": 38,
            "start_tick": 9792,
            "end_tick": 9884,
            "pitch": 36,
            "velocity": 96
        },
        {
            "track": 3,
            "channel": 2,
            "program": 63,
            "start_tick": 9792,
            "end_tick": 10364,
            "pitch": 71,
            "velocity": 64
        },
        {
            "track": 3,
            "channel": 2,
            "program": 63,
            "start_tick": 9792,
            "end_tick": 10364,
            "pitch": 67,
            "velocity": 64
        },
        {
            "track": 4,
            "channel": 3,
            "program": 80,
            "start_tick": 9792,
            "end_tick": 9884,
            "pitch": 79,
            "velocity": 64
        },
        {
            "track": 9,
            "channel": 9,
            "program": null,
            "start_tick": 9792,
            "end_tick": 9980,
            "pitch": 35,
            "velocity": 127
        },
        {
            "track": 2,
            "channel": 1,
            "program": 38,
            "start_tick": 9984,
            "end_tick": 10076,
            "pitch": 36,
            "velocity": 96
        },
        {
            "track": 4,
            "channel": 3,
            "program": 80,
            "start_tick": 9984,
            "end_tick": 10076,
            "pitch": 84,
            "velocity": 64
        },
        {
            "track": 2,
            "channel": 1,
            "program": 38,
            "start_tick": 10176,
            "end_tick": 10268,
            "pitch": 36,
            "velocity": 96
        },
        {
            "track": 4,
            "channel": 3,
            "program": 80,
            "start_tick": 10176,
            "end_tick": 10268,
            "pitch": 83,
            "velocity": 64
        },
        {
            "track": 9,
            "channel": 9,
            "program": null,
            "start_tick": 10176,
            "end_tick": 10364,
            "pitch": 35,
            "velocity": 127
        },
        {
            "track": 2,
            "channel": 1,
            "program": 38,
            "start_tick": 10368,
            "end_tick": 10460,
            "pitch": 36,
            "velocity": 96
        },
        {
            "track": 3,
            "channel": 2,
            "program": 63,
            "start_tick": 10368,
            "end_tick": 10652,
            "pitch": 72,
            "velocity": 64
        },
        {
            "track": 3,
            "channel": 2,
            "program": 63,
            "start_tick": 10368,
            "end_tick": 10652,
            "pitch": 69,
            "velocity": 64
        },
        {
            "track": 4,
            "channel": 3,
            "program": 80,
            "start_tick": 10368,
            "end_tick": 10460,
            "pitch": 81,
            "velocity": 64
        },
        {
            "track": 9,
            "channel": 9,
            "program": null,
            "start_tick": 10368,
            "end_tick": 10556,
            "pitch": 38,
            "velocity": 127
        },
        {
            "track": 2,
            "channel": 1,
            "program": 38,
            "start_tick": 10560,
            "end_tick": 10652,
            "pitch": 36,
            "velocity": 96
        },
        {
            "track": 4,
            "channel": 3,
            "program": 80,
            "start_tick": 10560,
            "end_tick": 10652,
            "pitch": 79,
            "velocity": 64
        },
        {
            "track": 2,
            "channel": 1,
            "program": 38,
            "start_tick": 10752,
            "end_tick": 10844,
            "pitch": 36,
            "velocity": 96
        },
        {
            "track": 3,
            "channel": 2,
            "program": 63,
            "start_tick": 10752,
            "end_tick": 11516,
            "pitch": 72,
            "velocity": 64
        },
        {
            "track": 3,
            "channel": 2,
            "program": 63,
            "start_tick": 10752,
            "end_tick": 11516,
            "pitch": 69,
            "velocity": 64
        },
        {
            "track": 4,
            "channel": 3,
            "program": 80,
            "start_tick": 10752,
            "end_tick": 10844,
            "pitch": 84,
            "velocity": 64
        },
        {
            "track": 9,
            "channel": 9,
            "program": null,
            "start_tick": 10752,
            "end_tick": 10940,
            "pitch": 35,
            "velocity": 127
        },
        {
            "track": 2,
            "channel": 1,
            "program": 38,
            "start_tick": 10944,
            "end_tick": 11036,
            "pitch": 36,
            "velocity": 96
        },
        {
            "track": 4,
            "channel": 3,
            "program": 80,
            "start_tick": 10944,
            "end_tick": 11036,
            "pitch": 83,
            "velocity": 64
        },
        {
            "track": 2,
            "channel": 1,
            "program": 38,
            "start_tick": 11136,
            "end_tick": 11228,
            "pitch": 36,
            "velocity": 96
        },
        {
            "track": 4,
            "channel": 3,
            "program": 80,
            "start_tick": 11136,
            "end_tick": 11228,
            "pitch": 81,
            "velocity": 64
        },
        {
            "track": 9,
            "channel": 9,
            "program": null,
            "start_tick": 11136,
            "end_tick": 11324,
            "pitch": 38,
            "velocity": 127
        },
        {
            "track": 2,
            "channel": 1,
            "program": 38,
            "start_tick": 11328,
            "end_tick": 11420,
            "pitch": 36,
            "velocity": 96
        },
        {
            "track": 4,
            "channel": 3,
            "program": 80,
            "start_tick": 11328,
            "end_tick": 11420,
            "pitch": 79,
            "velocity": 64
        },
        {
            "track": 9,
            "channel": 9,
            "program": null,
            "start_tick": 11328,
            "end_tick": 11516,
            "pitch": 35,
            "velocity": 127
        },
        {
            "track": 2,
            "channel": 1,
            "program": 38,
            "start_tick": 11520,
            "end_tick": 11612,
            "pitch": 36,
            "velocity": 96
        },
        {
            "track": 3,
            "channel": 2,
            "program": 63,
            "start_tick": 11520,
            "end_tick": 13052,
            "pitch": 67,
            "velocity": 64
        },
        {
            "track": 3,
            "channel": 2,
            "program": 63,
            "start_tick": 11520,
            "end_tick": 13052,
            "pitch": 71,
            "velocity": 64
        },
        {
            "track": 4,
            "channel": 3,
            "program": 80,
            "start_tick": 11520,
            "end_tick": 11612,
            "pitch": 84,
            "velocity": 64
        },
        {
            "track": 2,
            "channel": 1,
            "program": 38,
            "start_tick": 11712,
            "end_tick": 11804,
            "pitch": 36,
            "velocity": 96
        },
        {
            "track": 4,
            "channel": 3,
            "program": 80,
            "start_tick": 11712,
            "end_tick": 11804,
            "pitch": 83,
            "velocity": 64
        },
        {
            "track": 9,
            "channel": 9,
            "program": null,
            "start_tick": 11712,
            "end_tick": 11900,
            "pitch": 35,
            "velocity": 127
        },
        {
            "track": 2,
            "channel": 1,
            "program": 38,
            "start_tick": 11904,
            "end_tick": 11996,
            "pitch": 36,
            "velocity": 96
        },
        {
            "track": 4,
            "channel": 3,
            "program": 80,
            "start_tick": 11904,
            "end_tick": 11996,
            "pitch": 81,
            "velocity": 64
        },
        {
            "track": 9,
            "channel": 9,
            "program": null,
            "start_tick": 11904,
            "end_tick": 12092,
            "pitch": 38,
            "velocity": 127
        },
        {
            "track": 2,
            "channel": 1,
            "program": 38,
            "start_tick": 12096,
            "end_tick": 12188,
            "pitch": 36,
            "velocity": 96
        },
        {
            "track": 4,
            "channel": 3,
            "program": 80,
            "start_tick": 12096,
            "end_tick": 12188,
            "pitch": 79,
            "velocity": 64
        },
        {
            "track": 2,
            "channel": 1,
            "program": 38,
            "start_tick": 12288,
            "end_tick": 12380,
            "pitch": 36,
            "velocity": 96
        },
        {
            "track": 4,
            "channel": 3,
            "program": 80,
            "start_tick": 12288,
            "end_tick": 12380,
            "pitch": 84,
            "velocity": 64
        },
        {
            "track": 9,
            "channel": 9,
            "program": null,
            "start_tick": 12288,
            "end_tick": 12476,
            "pitch": 35,
            "velocity": 127
        },
        {
            "track": 2,
            "channel": 1,
            "program": 38,
            "start_tick": 12480,
            "end_tick": 12572,
            "pitch": 36,
            "velocity": 96
        },
        {
            "track": 4,
            "channel": 3,
            "program": 80,
            "start_tick": 12480,
            "end_tick": 12572,
            "pitch": 83,
            "velocity": 64
        },
        {
            "track": 2,
            "channel": 1,
            "program": 38,
            "start_tick": 12672,
            "end_tick": 12764,
            "pitch": 36,
            "velocity": 96
        },
        {
            "track": 4,
            "channel": 3,
            "program": 80,
            "start_tick": 12672,
            "end_tick": 12764,
            "pitch": 81,
            "velocity": 64
        },
        {
            "track": 9,
            "channel": 9,
            "program": null,
            "start_tick": 12672,
            "end_tick": 12860,
            "pitch": 38,
            "velocity": 127
        },
        {
            "track": 2,
            "channel": 1,
            "program": 38,
            "start_tick": 12864,
            "end_tick": 12956,
            "pitch": 36,
            "velocity": 96
        },
        {
            "track": 4,
            "channel": 3,
            "program": 80,
            "start_tick": 12864,
            "end_tick": 12956,
            "pitch": 79,
            "velocity": 64
        },
        {
            "track": 9,
            "channel": 9,
            "program": null,
            "start_tick": 12864,
            "end_tick": 13052,
            "pitch": 35,
            "velocity": 127
        },
        {
            "track": 2,
            "channel": 1,
            "program": 38,
            "start_tick": 13056,
            "end_tick": 13148,
            "pitch": 36,
            "velocity": 96
        },
        {
            "track": 4,
            "channel": 3,
            "program": 80,
            "start_tick": 13056,
            "end_tick": 13148,
            "pitch": 84,
            "velocity": 64
        },
        {
            "track": 2,
            "channel": 1,
            "program": 38,
            "start_tick": 13248,
            "end_tick": 13436,
            "pitch": 36,
            "velocity": 96
        },
        {
            "track": 4,
            "channel": 3,
            "program": 80,
            "start_tick": 13248,
            "end_tick": 13340,
            "pitch": 83,
            "velocity": 64
        },
        {
            "track": 9,
            "channel": 9,
            "program": null,
            "start_tick": 13248,
            "end_tick": 13436,
            "pitch": 38,
            "velocity": 127
        },
        {
            "track": 2,
            "channel": 1,
            "program": 38,
            "start_tick": 13440,
            "end_tick": 13628,
            "pitch": 38,
            "velocity": 96
        },
        {
            "track": 4,
            "channel": 3,
            "program": 80,
            "start_tick": 13440,
            "end_tick": 13532,
            "pitch": 81,
            "velocity": 64
        },
        {
            "track": 9,
            "channel": 9,
            "program": null,
            "start_tick": 13440,
            "end_tick": 13628,
            "pitch": 38,
            "velocity": 127
        },
        {
            "track": 2,
            "channel": 1,
            "program": 38,
            "start_tick": 13632,
            "end_tick": 13820,
            "pitch": 40,
            "velocity": 96
        },
        {
            "track": 4,
            "channel": 3,
            "program": 80,
            "start_tick": 13632,
            "end_tick": 13724,
            "pitch": 79,
            "velocity": 64
        },
        {
            "track": 9,
            "channel": 9,
            "program": null,
            "start_tick": 13632,
            "end_tick": 13820,
            "pitch": 38,
            "velocity": 127
        },
        {
            "track": 2,
            "channel": 1,
            "program": 38,
            "start_tick": 13824,
            "end_tick": 13916,
            "pitch": 41,
            "velocity": 96
        },
        {
            "track": 5,
            "channel": 2,
            "program": 63,
            "start_tick": 13824,
            "end_tick": 14204,
            "pitch": 64,
            "velocity": 32
        },
        {
            "track": 9,
            "channel": 9,
            "program": null,
            "start_tick": 13824,
            "end_tick": 14012,
            "pitch": 35,
            "velocity": 127
        },
        {
            "track": 9,
            "channel": 9,
            "program": null,
            "start_tick": 13824,
            "end_tick": 14204,
            "pitch": 49,
            "velocity": 127
        },
        {
            "track": 2,
            "channel": 1,
            "program": 38,
            "start_tick": 14016,
            "end_tick": 14108,
            "pitch": 41,
            "velocity": 96
        },
        {
            "track": 2,
            "channel": 1,
            "program": 38,
            "start_tick": 14208,
            "end_tick": 14300,
            "pitch": 41,
            "velocity": 96
        },
        {
            "track": 5,
            "channel": 2,
            "program": 63,
            "start_tick": 14208,
            "end_tick": 14588,
            "pitch": 60,
            "velocity": 32
        },
        {
            "track": 8,
            "channel": 6,
            "program": 26,
            "start_tick": 14208,
            "end_tick": 14396,
            "pitch": 76,
            "velocity": 32
        },
        {
            "track": 8,
            "channel": 6,
            "program": 26,
            "start_tick": 14208,
            "end_tick": 14396,
            "pitch": 72,
            "velocity": 32
        },
        {
            "track": 9,
            "channel": 9,
            "program": null,
            "start_tick": 14208,
            "end_tick": 14396,
            "pitch": 38,
            "velocity": 127
        },
        {
            "track": 2,
            "channel": 1,
            "program": 38,
            "start_tick": 14400,
            "end_tick": 14492,
            "pitch": 41,
            "velocity": 96
        },
        {
            "track": 9,
            "channel": 9,
            "program": null,
            "start_tick": 14400,
            "end_tick": 14588,
            "pitch": 35,
            "velocity": 127
        },
        {
            "track": 1,
            "channel": 0,
            "program": 1,
            "start_tick": 14592,
            "end_tick": 14780,
            "pitch": 84,
            "velocity": 127
        },
        {
            "track": 2,
            "channel": 1,
            "program": 38,
            "start_tick": 14592,
            "end_tick": 14684,
            "pitch": 41,
            "velocity": 96
        },
        {
            "track": 5,
            "channel": 2,
            "program": 63,
            "start_tick": 14592,
            "end_tick": 14972,
            "pitch": 57,
            "velocity": 32
        },
        {
            "track": 1,
            "channel": 0,
            "program": 1,
            "start_tick": 14784,
            "end_tick": 15164,
            "pitch": 81,
            "velocity": 127
        },
        {
            "track": 2,
            "channel": 1,
            "program": 38,
            "start_tick": 14784,
            "end_tick": 14876,
            "pitch": 41,
            "velocity": 96
        },
        {
            "track": 8,
            "channel": 6,
            "program": 26,
            "start_tick": 14784,
            "end_tick": 15164,
            "pitch": 76,
            "velocity": 32
        },
        {
            "track": 8,
            "channel": 6,
            "program": 26,
            "start_tick": 14784,
            "end_tick": 15164,
            "pitch": 72,
            "velocity": 32
        },
        {
            "track": 9,
            "channel": 9,
            "program": null,
            "start_tick": 14784,
            "end_tick": 14972,
            "pitch": 35,
            "velocity": 127
        },
        {
            "track": 2,
            "channel": 1,
            "program": 38,
            "start_tick": 14976,
            "end_tick": 15068,
            "pitch": 41,
            "velocity": 96
        },
        {
            "track": 5,
            "channel": 2,
            "program": 63,
            "start_tick": 14976,
            "end_tick": 15356,
            "pitch": 53,
            "velocity": 32
        },
        {
            "track": 9,
            "channel": 9,
            "program": null,
            "start_tick": 14976,
            "end_tick": 15164,
            "pitch": 38,
            "velocity": 127
        },
        {
            "track": 1,
            "channel": 0,
            "program": 1,
            "start_tick": 15168,
            "end_tick": 15356,
            "pitch": 84,
            "velocity": 127
        },
        {
            "track": 2,
            "channel": 1,
            "program": 38,
            "start_tick": 15168,
            "end_tick": 15260,
            "pitch": 41,
            "velocity": 96
        },
        {
            "track": 1,
            "channel": 0,
            "program": 1,
            "start_tick": 15360,
            "end_tick": 15740,
            "pitch": 83,
            "velocity": 127
        },
        {
            "track": 2,
            "channel": 1,
            "program": 38,
            "start_tick": 15360,
            "end_tick": 15452,
            "pitch": 40,
            "velocity": 96
        },
        {
            "track": 5,
            "channel": 2,
            "program": 63,
            "start_tick": 15360,
            "end_tick": 15740,
            "pitch": 62,
            "velocity": 32
        },
        {
            "track": 9,
            "channel": 9,
            "program": null,
            "start_tick": 15360,
            "end_tick": 15548,
            "pitch": 35,
            "velocity": 127
        },
        {
            "track": 2,
            "channel": 1,
            "program": 38,
            "start_tick": 15552,
            "end_tick": 15644,
            "pitch": 40,
            "velocity": 96
        },
        {
            "track": 1,
            "channel": 0,
            "program": 1,
            "start_tick": 15744,
            "end_tick": 15932,
            "pitch": 84,
            "velocity": 127
        },
        {
            "track": 2,
            "channel": 1,
            "program": 38,
            "start_tick": 15744,
            "end_tick": 15836,
            "pitch": 40,
            "velocity": 96
        },
        {
            "track": 5,
            "channel": 2,
            "program": 63,
            "start_tick": 15744,
            "end_tick": 16124,
            "pitch": 59,
            "velocity": 32
        },
        {
            "track": 8,
            "channel": 6,
            "program": 26,
            "start_tick": 15744,
            "end_tick": 15932,
            "pitch": 74,
            "velocity": 32
        },
        {
            "track": 8,
            "channel": 6,
            "program": 26,
            "start_tick": 15744,
            "end_tick": 15932,
            "pitch": 71,
            "velocity": 32
        },
        {
            "track": 9,
            "channel": 9,
            "program": null,
            "start_tick": 15744,
            "end_tick": 15932,
            "pitch": 38,
            "velocity": 127
        },
        {
            "track": 1,
            "channel": 0,
            "program": 1,
            "start_tick": 15936,
            "end_tick": 16316,
            "pitch": 83,
            "velocity": 127
        },
        {
            "track": 2,
            "channel": 1,
            "program": 38,
            "start_tick": 15936,
            "end_tick": 16028,
            "pitch": 40,
            "velocity": 96
        },
        {
            "track": 9,
            "channel": 9,
            "program": null,
            "start_tick": 15936,
            "end_tick": 16124,
            "pitch": 35,
            "velocity": 127
        },
        {
            "track": 2,
            "channel": 1,
            "program": 38,
            "start_tick": 16128,
            "end_tick": 16220,
            "pitch": 40,
            "velocity": 96
        },
        {
            "track": 5,
            "channel": 2,
            "program": 63,
            "start_tick": 16128,
            "end_tick": 16508,
            "pitch": 55,
            "velocity": 32
        },
        {
            "track": 1,
            "channel": 0,
            "program": 1,
            "start_tick": 16320,
            "end_tick": 16700,
            "pitch": 79,
            "velocity": 127
        },
        {
            "track": 2,
            "channel": 1,
            "program": 38,
            "start_tick": 16320,
            "end_tick": 16508,
            "pitch": 36,
            "velocity": 96
        },
        {
            "track": 6,
            "channel": 4,
            "program": 81,
            "start_tick": 16320,
            "end_tick": 16508,
            "pitch": 81,
            "velocity": 64
        },
        {
            "track": 8,
            "channel": 6,
            "program": 26,
            "start_tick": 16320,
            "end_tick": 16700,
            "pitch": 74,
            "velocity": 32
        },
        {
            "track": 8,
            "channel": 6,
            "program": 26,
            "start_tick": 16320,
            "end_tick": 16700,
            "pitch": 71,
            "velocity": 32
        },
        {
            "track": 9,
            "channel": 9,
            "program": null,
            "start_tick": 16320,
            "end_tick": 16508,
            "pitch": 35,
            "velocity": 127
        },
        {
            "track": 2,
            "channel": 1,
            "program": 38,
            "start_tick": 16512,
            "end_tick": 16700,
            "pitch": 38,
            "velocity": 96
        },
        {
            "track": 5,
            "channel": 2,
            "program": 63,
            "start_tick": 16512,
            "end_tick": 16892,
            "pitch": 52,
            "velocity": 32
        },
        {
            "track": 6,
            "channel": 4,
            "program": 81,
            "start_tick": 16512,
            "end_tick": 16700,
            "pitch": 84,
            "velocity": 64
        },
        {
            "track": 9,
            "channel": 9,
            "program": null,
            "start_tick": 16512,
            "end_tick": 16700,
            "pitch": 38,
            "velocity": 127
        },
        {
            "track": 2,
            "channel": 1,
            "program": 38,
            "start_tick": 16704,
            "end_tick": 16892,
            "pitch": 40,
            "velocity": 96
        },
        {
            "track": 6,
            "channel": 4,
            "program": 81,
            "start_tick": 16704,
            "end_tick": 16892,
            "pitch": 81,
            "velocity": 64
        },
        {
            "track": 2,
            "channel": 1,
            "program": 38,
            "start_tick": 16896,
            "end_tick": 16988,
            "pitch": 41,
            "velocity": 96
        },
        {
            "track": 5,
            "channel": 2,
            "program": 63,
            "start_tick": 16896,
            "end_tick": 17276,
            "pitch": 64,
            "velocity": 32
        },
        {
            "track": 9,
            "channel": 9,
            "program": null,
            "start_tick": 16896,
            "end_tick": 17084,
            "pitch": 35,
            "velocity": 127
        },
        {
            "track": 2,
            "channel": 1,
            "program": 38,
            "start_tick": 17088,
            "end_tick": 17180,
            "pitch": 41,
            "velocity": 96
        },
        {
            "track": 2,
            "channel": 1,
            "program": 38,
            "start_tick": 17280,
            "end_tick": 17372,
            "pitch": 41,
            "velocity": 96
        },
        {
            "track": 5,
            "channel": 2,
            "program": 63,
            "start_tick": 17280,
            "end_tick": 17660,
            "pitch": 60,
            "velocity": 32
        },
        {
            "track": 8,
            "channel": 6,
            "program": 26,
            "start_tick": 17280,
            "end_tick": 17468,
            "pitch": 76,
            "velocity": 32
        },
        {
            "track": 8,
            "channel": 6,
            "program": 26,
            "start_tick": 17280,
            "end_tick": 17468,
            "pitch": 72,
            "velocity": 32
        },
        {
            "track": 9,
            "channel": 9,
            "program": null,
            "start_tick": 17280,
            "end_tick": 17468,
            "pitch": 38,
            "velocity": 127
        },
        {
            "track": 1,
            "channel": 0,
            "program": 1,
            "start_tick": 17472,
            "end_tick": 17660,
            "pitch": 79,
            "velocity": 127
        },
        {
            "track": 2,
            "channel": 1,
            "program": 38,
            "start_tick": 17472,
            "end_tick": 17564,
            "pitch": 41,
            "velocity": 96
        },
        {
            "track": 9,
            "channel": 9,
            "program": null,
            "start_tick": 17472,
            "end_tick": 17660,
            "pitch": 35,
            "velocity": 127
        },
        {
            "track": 1,
            "channel": 0,
            "program": 1,
            "start_tick": 17664,
            "end_tick": 17852,
            "pitch": 88,
            "velocity": 127
        },
        {
            "track": 2,
            "channel": 1,
            "program": 38,
            "start_tick": 17664,
            "end_tick": 17756,
            "pitch": 41,
            "velocity": 96
        },
        {
            "track": 5,
            "channel": 2,
            "program": 63,
            "start_tick": 17664,
            "end_tick": 18044,
            "pitch": 57,
            "velocity": 32
        },
        {
            "track": 1,
            "channel": 0,
            "program": 1,
            "start_tick": 17856,
            "end_tick": 18236,
            "pitch": 86,
            "velocity": 127
        },
        {
            "track": 2,
            "channel": 1,
            "program": 38,
            "start_tick": 17856,
            "end_tick": 17948,
            "pitch": 41,
            "velocity": 96
        },
        {
            "track": 8,
            "channel": 6,
            "program": 26,
            "start_tick": 17856,
            "end_tick": 18236,
            "pitch": 76,
            "velocity": 32
        },
        {
            "track": 8,
            "channel": 6,
            "program": 26,
            "start_tick": 17856,
            "end_tick": 18236,
            "pitch": 72,
            "velocity": 32
        },
        {
            "track": 9,
            "channel": 9,
            "program": null,
            "start_tick": 17856,
            "end_tick": 18044,
            "pitch": 35,
            "velocity": 127
        },
        {
            "track": 2,
            "channel": 1,
            "program": 38,
            "start_tick": 18048,
            "end_tick": 18140,
            "pitch": 41,
            "velocity": 96
        },
        {
            "track": 5,
            "channel": 2,
            "program": 63,
            "start_tick": 18048,
            "end_tick": 18428,
            "pitch": 53,
            "velocity": 32
        },
        {
            "track": 9,
            "channel": 9,
            "program": null,
            "start_tick": 18048,
            "end_tick": 18236,
            "pitch": 38,
            "velocity": 127
        },
        {
            "track": 1,
            "channel": 0,
            "program": 1,
            "start_tick": 18240,
            "end_tick": 18428,
            "pitch": 84,
            "velocity": 127
        },
        {
            "track": 2,
            "channel": 1,
            "program": 38,
            "start_tick": 18240,
            "end_tick": 18332,
            "pitch": 41,
            "velocity": 96
        },
        {
            "track": 1,
            "channel": 0,
            "program": 1,
            "start_tick": 18432,
            "end_tick": 18812,
            "pitch": 83,
            "velocity": 127
        },
        {
            "track": 2,
            "channel": 1,
            "program": 38,
            "start_tick": 18432,
            "end_tick": 18524,
            "pitch": 40,
            "velocity": 96
        },
        {
            "track": 5,
            "channel": 2,
            "program": 63,
            "start_tick": 18432,
            "end_tick": 18812,
            "pitch": 62,
            "velocity": 32
        },
        {
            "track": 9,
            "channel": 9,
            "program": null,
            "start_tick": 18432,
            "end_tick": 18620,
            "pitch": 35,
            "velocity": 127
        },
        {
            "track": 2,
            "channel": 1,
            "program": 38,
            "start_tick": 18624,
            "end_tick": 18716,
            "pitch": 40,
            "velocity": 96
        },
        {
            "track": 1,
            "channel": 0,
            "program": 1,
            "start_tick": 18816,
            "end_tick": 19004,
            "pitch": 84,
            "velocity": 127
        },
        {
            "track": 2,
            "channel": 1,
            "program": 38,
            "start_tick": 18816,
            "end_tick": 18908,
            "pitch": 40,
            "velocity": 96
        },
        {
            "track": 5,
            "channel": 2,
            "program": 63,
            "start_tick": 18816,
            "end_tick": 19196,
            "pitch": 59,
            "velocity": 32
        },
        {
            "track": 8,
            "channel": 6,
            "program": 26,
            "start_tick": 18816,
            "end_tick": 19004,
            "pitch": 74,
            "velocity": 32
        },
        {
            "track": 8,
            "channel": 6,
            "program": 26,
            "start_tick": 18816,
            "end_tick": 19004,
            "pitch": 71,
            "velocity": 32
        },
        {
            "track": 9,
            "channel": 9,
            "program": null,
            "start_tick": 18816,
            "end_tick": 19004,
            "pitch": 38,
            "velocity": 127
        },
        {
            "track": 1,
            "channel": 0,
            "program": 1,
            "start_tick": 19008,
            "end_tick": 19388,
            "pitch": 83,
            "velocity": 127
        },
        {
            "track": 2,
            "channel": 1,
            "program": 38,
            "start_tick": 19008,
            "end_tick": 19100,
            "pitch": 40,
            "velocity": 96
        },
        {
            "track": 9,
            "channel": 9,
            "program": null,
            "start_tick": 19008,
            "end_tick": 19196,
            "pitch": 35,
            "velocity": 127
        },
        {
            "track": 2,
            "channel": 1,
            "program": 38,
            "start_tick": 19200,
            "end_tick": 19292,
            "pitch": 40,
            "velocity": 96
        },
        {
            "track": 5,
            "channel": 2,
            "program": 63,
            "start_tick": 19200,
            "end_tick": 19580,
            "pitch": 55,
            "velocity": 32
        },
        {
            "track": 1,
            "channel": 0,
            "program": 1,
            "start_tick": 19392,
            "end_tick": 19772,
            "pitch": 79,
            "velocity": 127
        },
        {
            "track": 2,
            "channel": 1,
            "program": 38,
            "start_tick": 19392,
            "end_tick": 19580,
            "pitch": 36,
            "velocity": 96
        },
        {
            "track": 6,
            "channel": 4,
            "program": 81,
            "start_tick": 19392,
            "end_tick": 19580,
            "pitch": 81,
            "velocity": 64
        },
        {
            "track": 8,
            "channel": 6,
            "program": 26,
            "start_tick": 19392,
            "end_tick": 19772,
            "pitch": 74,
            "velocity": 32
        },
        {
            "track": 8,
            "channel": 6,
            "program": 26,
            "start_tick": 19392,
            "end_tick": 19772,
            "pitch": 71,
            "velocity": 32
        },
        {
            "track": 9,
            "channel": 9,
            "program": null,
            "start_tick": 19392,
            "end_tick": 19580,
            "pitch": 35,
            "velocity": 127
        },
        {
            "track": 2,
            "channel": 1,
            "program": 38,
            "start_tick": 19584,
            "end_tick": 19772,
            "pitch": 38,
            "velocity": 96
        },
        {
            "track": 5,
            "channel": 2,
            "program": 63,
            "start_tick": 19584,
            "end_tick": 19964,
            "pitch": 52,
            "velocity": 32
        },
        {
            "track": 6,
            "channel": 4,
            "program": 81,
            "start_tick": 19584,
            "end_tick": 19772,
            "pitch": 84,
            "velocity": 64
        },
        {
            "track": 9,
            "channel": 9,
            "program": null,
            "start_tick": 19584,
            "end_tick": 19772,
            "pitch": 38,
            "velocity": 127
        },
        {
            "track": 2,
            "channel": 1,
            "program": 38,
            "start_tick": 19776,
            "end_tick": 19964,
            "pitch": 40,
            "velocity": 96
        },
        {
            "track": 6,
            "channel": 4,
            "program": 81,
            "start_tick": 19776,
            "end_tick": 19964,
            "pitch": 88,
            "velocity": 64
        },
        {
            "track": 2,
            "channel": 1,
            "program": 38,
            "start_tick": 19968,
            "end_tick": 20060,
            "pitch": 41,
            "velocity": 96
        },
        {
            "track": 5,
            "channel": 2,
            "program": 63,
            "start_tick": 19968,
            "end_tick": 20348,
            "pitch": 64,
            "velocity": 32
        },
        {
            "track": 9,
            "channel": 9,
            "program": null,
            "start_tick": 19968,
            "end_tick": 20156,
            "pitch": 35,
            "velocity": 127
        },
        {
            "track": 2,
            "channel": 1,
            "program": 38,
            "start_tick": 20160,
            "end_tick": 20252,
            "pitch": 41,
            "velocity": 96
        },
        {
            "track": 2,
            "channel": 1,
            "program": 38,
            "start_tick": 20352,
            "end_tick": 20444,
            "pitch": 41,
            "velocity": 96
        },
        {
            "track": 5,
            "channel": 2,
            "program": 63,
            "start_tick": 20352,
            "end_tick": 20732,
            "pitch": 60,
            "velocity": 32
        },
        {
            "track": 8,
            "channel": 6,
            "program": 26,
            "start_tick": 20352,
            "end_tick": 20540,
            "pitch": 76,
            "velocity": 32
        },
        {
            "track": 8,
            "channel": 6,
            "program": 26,
            "start_tick": 20352,
            "end_tick": 20540,
            "pitch": 72,
            "velocity": 32
        },
        {
            "track": 9,
            "channel": 9,
            "program": null,
            "start_tick": 20352,
            "end_tick": 20540,
            "pitch": 38,
            "velocity": 127
        },
        {
            "track": 2,
            "channel": 1,
            "program": 38,
            "start_tick": 20544,
            "end_tick": 20636,
            "pitch": 41,
            "velocity": 96
        },
        {
            "track": 9,
            "channel": 9,
            "program": null,
            "start_tick": 20544,
            "end_tick": 20732,
            "pitch": 35,
            "velocity": 127
        },
        {
            "track": 1,
            "channel": 0,
            "program": 1,
            "start_tick": 20736,
            "end_tick": 20924,
            "pitch": 84,
            "velocity": 127
        },
        {
            "track": 2,
            "channel": 1,
            "program": 38,
            "start_tick": 20736,
            "end_tick": 20828,
            "pitch": 41,
            "velocity": 96
        },
        {
            "track": 5,
            "channel": 2,
            "program": 63,
            "start_tick": 20736,
            "end_tick": 21116,
            "pitch": 57,
            "velocity": 32
        },
        {
            "track": 1,
            "channel": 0,
            "program": 1,
            "start_tick": 20928,
            "end_tick": 21308,
            "pitch": 81,
            "velocity": 127
        },
        {
            "track": 2,
            "channel": 1,
            "program": 38,
            "start_tick": 20928,
            "end_tick": 21020,
            "pitch": 41,
            "velocity": 96
        },
        {
            "track": 8,
            "channel": 6,
            "program": 26,
            "start_tick": 20928,
            "end_tick": 21308,
            "pitch": 76,
            "velocity": 32
        },
        {
            "track": 8,
            "channel": 6,
            "program": 26,
            "start_tick": 20928,
            "end_tick": 21308,
            "pitch": 72,
            "velocity": 32
        },
        {
            "track": 9,
            "channel": 9,
            "program": null,
            "start_tick": 20928,
            "end_tick": 21116,
            "pitch": 35,
            "velocity": 127
        },
        {
            "track": 2,
            "channel": 1,
            "program": 38,
            "start_tick": 21120,
            "end_tick": 21212,
            "pitch": 41,
            "velocity": 96
        },
        {
            "track": 5,
            "channel": 2,
            "program": 63,
            "start_tick": 21120,
            "end_tick": 21500,
            "pitch": 53,
            "velocity": 32
        },
        {
            "track": 9,
            "channel": 9,
            "program": null,
            "start_tick": 21120,
            "end_tick": 21308,
            "pitch": 38,
            "velocity": 127
        },
        {
            "track": 1,
            "channel": 0,
            "program": 1,
            "start_tick": 21312,
            "end_tick": 21500,
            "pitch": 84,
            "velocity": 127
        },
        {
            "track": 2,
            "channel": 1,
            "program": 38,
            "start_tick": 21312,
            "end_tick": 21404,
            "pitch": 41,
            "velocity": 96
        },
        {
            "track": 1,
            "channel": 0,
            "program": 1,
            "start_tick": 21504,
            "end_tick": 21884,
            "pitch": 83,
            "velocity": 127
        },
        {
            "track": 2,
            "channel": 1,
            "program": 38,
            "start_tick": 21504,
            "end_tick": 21596,
            "pitch": 40,
            "velocity": 96
        },
        {
            "track": 5,
            "channel": 2,
            "program": 63,
            "start_tick": 21504,
            "end_tick": 21884,
            "pitch": 62,
            "velocity": 32
        },
        {
            "track": 9,
            "channel": 9,
            "program": null,
            "start_tick": 21504,
            "end_tick": 21692,
            "pitch": 35,
            "velocity": 127
        },
        {
            "track": 2,
            "channel": 1,
            "program": 38,
            "start_tick": 21696,
            "end_tick": 21788,
            "pitch": 40,
            "velocity": 96
        },
        {
            "track": 1,
            "channel": 0,
            "program": 1,
            "start_tick": 21888,
            "end_tick": 22076,
            "pitch": 84,
            "velocity": 127
        },
        {
            "track": 2,
            "channel": 1,
            "program": 38,
            "start_tick": 21888,
            "end_tick": 21980,
            "pitch": 40,
            "velocity": 96
        },
        {
            "track": 5,
            "channel": 2,
            "program": 63,
            "start_tick": 21888,
            "end_tick": 22268,
            "pitch": 59,
            "velocity": 32
        },
        {
            "track": 8,
            "channel": 6,
            "program": 26,
            "start_tick": 21888,
            "end_tick": 22076,
            "pitch": 74,
            "velocity": 32
        },
        {
            "track": 8,
            "channel": 6,
            "program": 26,
            "start_tick": 21888,
            "end_tick": 22076,
            "pitch": 71,
            "velocity": 32
        },
        {
            "track": 9,
            "channel": 9,
            "program": null,
            "start_tick": 21888,
            "end_tick": 22076,
            "pitch": 38,
            "velocity": 127
        },
        {
            "track": 1,
            "channel": 0,
            "program": 1,
            "start_tick": 22080,
            "end_tick": 22460,
            "pitch": 83,
            "velocity": 127
        },
        {
            "track": 2,
            "channel": 1,
            "program": 38,
            "start_tick": 22080,
            "end_tick": 22172,
            "pitch": 40,
            "velocity": 96
        },
        {
            "track": 9,
            "channel": 9,
            "program": null,
            "start_tick": 22080,
            "end_tick": 22268,
            "pitch": 35,
            "velocity": 127
        },
        {
            "track": 2,
            "channel": 1,
            "program": 38,
            "start_tick": 22272,
            "end_tick": 22364,
            "pitch": 40,
            "velocity": 96
        },
        {
            "track": 5,
            "channel": 2,
            "program": 63,
            "start_tick": 22272,
            "end_tick": 22652,
            "pitch": 55,
            "velocity": 32
        },
        {
            "track": 1,
            "channel": 0,
            "program": 1,
            "start_tick": 22464,
            "end_tick": 22844,
            "pitch": 79,
            "velocity": 127
        },
        {
            "track": 2,
            "channel": 1,
            "program": 38,
            "start_tick": 22464,
            "end_tick": 22556,
            "pitch": 40,
            "velocity": 96
        },
        {
            "track": 6,
            "channel": 4,
            "program": 81,
            "start_tick": 22464,
            "end_tick": 22652,
            "pitch": 81,
            "velocity": 64
        },
        {
            "track": 8,
            "channel": 6,
            "program": 26,
            "start_tick": 22464,
            "end_tick": 22844,
            "pitch": 74,
            "velocity": 32
        },
        {
            "track": 8,
            "channel": 6,
            "program": 26,
            "start_tick": 22464,
            "end_tick": 22844,
            "pitch": 71,
            "velocity": 32
        },
        {
            "track": 9,
            "channel": 9,
            "program": null,
            "start_tick": 22464,
            "end_tick": 22652,
            "pitch": 35,
            "velocity": 127
        },
        {
            "track": 2,
            "channel": 1,
            "program": 38,
            "start_tick": 22656,
            "end_tick": 22748,
            "pitch": 40,
            "velocity": 96
        },
        {
            "track": 5,
            "channel": 2,
            "program": 63,
            "start_tick": 22656,
            "end_tick": 23036,
            "pitch": 52,
            "velocity": 32
        },
        {
            "track": 6,
            "channel": 4,
            "program": 81,
            "start_tick": 22656,
            "end_tick": 22844,
            "pitch": 84,
            "velocity": 64
        },
        {
            "track": 9,
            "channel": 9,
            "program": null,
            "start_tick": 22656,
            "end_tick": 22844,
            "pitch": 38,
            "velocity": 127
        },
        {
            "track": 2,
            "channel": 1,
            "program": 38,
            "start_tick": 22848,
            "end_tick": 22940,
            "pitch": 40,
            "velocity": 96
        },
        {
            "track": 6,
            "channel": 4,
            "program": 81,
            "start_tick": 22848,
            "end_tick": 23036,
            "pitch": 81,
            "velocity": 64
        },
        {
            "track": 2,
            "channel": 1,
            "program": 38,
            "start_tick": 23040,
            "end_tick": 23132,
            "pitch": 38,
            "velocity": 96
        },
        {
            "track": 5,
            "channel": 2,
            "program": 63,
            "start_tick": 23040,
            "end_tick": 23420,
            "pitch": 60,
            "velocity": 32
        },
        {
            "track": 9,
            "channel": 9,
            "program": null,
            "start_tick": 23040,
            "end_tick": 23228,
            "pitch": 35,
            "velocity": 127
        },
        {
            "track": 2,
            "channel": 1,
            "program": 38,
            "start_tick": 23232,
            "end_tick": 23324,
            "pitch": 38,
            "velocity": 96
        },
        {
            "track": 2,
            "channel": 1,
            "program": 38,
            "start_tick": 23424,
            "end_tick": 23516,
            "pitch": 38,
            "velocity": 96
        },
        {
            "track": 5,
            "channel": 2,
            "program": 63,
            "start_tick": 23424,
            "end_tick": 23804,
            "pitch": 57,
            "velocity": 32
        },
        {
            "track": 8,
            "channel": 6,
            "program": 26,
            "start_tick": 23424,
            "end_tick": 23612,
            "pitch": 72,
            "velocity": 32
        },
        {
            "track": 8,
            "channel": 6,
            "program": 26,
            "start_tick": 23424,
            "end_tick": 23612,
            "pitch": 69,
            "velocity": 32
        },
        {
            "track": 9,
            "channel": 9,
            "program": null,
            "start_tick": 23424,
            "end_tick": 23612,
            "pitch": 38,
            "velocity": 127
        },
        {
            "track": 1,
            "channel": 0,
            "program": 1,
            "start_tick": 23616,
            "end_tick": 23804,
            "pitch": 81,
            "velocity": 127
        },
        {
            "track": 2,
            "channel": 1,
            "program": 38,
            "start_tick": 23616,
            "end_tick": 23708,
            "pitch": 38,
            "velocity": 96
        },
        {
            "track": 9,
            "channel": 9,
            "program": null,
            "start_tick": 23616,
            "end_tick": 23804,
            "pitch": 35,
            "velocity": 127
        },
        {
            "track": 1,
            "channel": 0,
            "program": 1,
            "start_tick": 23808,
            "end_tick": 23996,
            "pitch": 81,
            "velocity": 127
        },
        {
            "track": 2,
            "channel": 1,
            "program": 38,
            "start_tick": 23808,
            "end_tick": 23900,
            "pitch": 38,
            "velocity": 96
        },
        {
            "track": 5,
            "channel": 2,
            "program": 63,
            "start_tick": 23808,
            "end_tick": 24188,
            "pitch": 53,
            "velocity": 32
        },
        {
            "track": 1,
            "channel": 0,
            "program": 1,
            "start_tick": 24000,
            "end_tick": 24380,
            "pitch": 77,
            "velocity": 127
        },
        {
            "track": 2,
            "channel": 1,
            "program": 38,
            "start_tick": 24000,
            "end_tick": 24092,
            "pitch": 38,
            "velocity": 96
        },
        {
            "track": 8,
            "channel": 6,
            "program": 26,
            "start_tick": 24000,
            "end_tick": 24380,
            "pitch": 72,
            "velocity": 32
        },
        {
            "track": 8,
            "channel": 6,
            "program": 26,
            "start_tick": 24000,
            "end_tick": 24380,
            "pitch": 69,
            "velocity": 32
        },
        {
            "track": 9,
            "channel": 9,
            "program": null,
            "start_tick": 24000,
            "end_tick": 24188,
            "pitch": 35,
            "velocity": 127
        },
        {
            "track": 2,
            "channel": 1,
            "program": 38,
            "start_tick": 24192,
            "end_tick": 24284,
            "pitch": 38,
            "velocity": 96
        },
        {
            "track": 5,
            "channel": 2,
            "program": 63,
            "start_tick": 24192,
            "end_tick": 24572,
            "pitch": 50,
            "velocity": 32
        },
        {
            "track": 9,
            "channel": 9,
            "program": null,
            "start_tick": 24192,
            "end_tick": 24380,
            "pitch": 38,
            "velocity": 127
        },
        {
            "track": 1,
            "channel": 0,
            "program": 1,
            "start_tick": 24384,
            "end_tick": 24572,
            "pitch": 81,
            "velocity": 127
        },
        {
            "track": 2,
            "channel": 1,
            "program": 38,
            "start_tick": 24384,
            "end_tick": 24476,
            "pitch": 38,
            "velocity": 96
        },
        {
            "track": 1,
            "channel": 0,
            "program": 1,
            "start_tick": 24576,
            "end_tick": 24956,
            "pitch": 79,
            "velocity": 127
        },
        {
            "track": 2,
            "channel": 1,
            "program": 38,
            "start_tick": 24576,
            "end_tick": 24668,
            "pitch": 36,
            "velocity": 96
        },
        {
            "track": 5,
            "channel": 2,
            "program": 63,
            "start_tick": 24576,
            "end_tick": 24956,
            "pitch": 59,
            "velocity": 32
        },
        {
            "track": 9,
            "channel": 9,
            "program": null,
            "start_tick": 24576,
            "end_tick": 24764,
            "pitch": 35,
            "velocity": 127
        },
        {
            "track": 2,
            "channel": 1,
            "program": 38,
            "start_tick": 24768,
            "end_tick": 24860,
            "pitch": 36,
            "velocity": 96
        },
        {
            "track": 1,
            "channel": 0,
            "program": 1,
            "start_tick": 24960,
            "end_tick": 25148,
            "pitch": 81,
            "velocity": 127
        },
        {
            "track": 2,
            "channel": 1,
            "program": 38,
            "start_tick": 24960,
            "end_tick": 25052,
            "pitch": 36,
            "velocity": 96
        },
        {
            "track": 5,
            "channel": 2,
            "program": 63,
            "start_tick": 24960,
            "end_tick": 25340,
            "pitch": 55,
            "velocity": 32
        },
        {
            "track": 8,
            "channel": 6,
            "program": 26,
            "start_tick": 24960,
            "end_tick": 25148,
            "pitch": 71,
            "velocity": 32
        },
        {
            "track": 8,
            "channel": 6,
            "program": 26,
            "start_tick": 24960,
            "end_tick": 25148,
            "pitch": 67,
            "velocity": 32
        },
        {
            "track": 9,
            "channel": 9,
            "program": null,
            "start_tick": 24960,
            "end_tick": 25148,
            "pitch": 38,
            "velocity": 127
        },
        {
            "track": 1,
            "channel": 0,
            "program": 1,
            "start_tick": 25152,
            "end_tick": 25532,
            "pitch": 79,
            "velocity": 127
        },
        {
            "track": 2,
            "channel": 1,
            "program": 38,
            "start_tick": 25152,
            "end_tick": 25244,
            "pitch": 36,
            "velocity": 96
        },
        {
            "track": 6,
            "channel": 4,
            "program": 81,
            "start_tick": 25152,
            "end_tick": 25244,
            "pitch": 84,
            "velocity": 64
        },
        {
            "track": 9,
            "channel": 9,
            "program": null,
            "start_tick": 25152,
            "end_tick": 25340,
            "pitch": 35,
            "velocity": 127
        },
        {
            "track": 2,
            "channel": 1,
            "program": 38,
            "start_tick": 25344,
            "end_tick": 25436,
            "pitch": 36,
            "velocity": 96
        },
        {
            "track": 6,
            "channel": 4,
            "program": 81,
            "start_tick": 25344,
            "end_tick": 25724,
            "pitch": 81,
            "velocity": 64
        },
        {
            "track": 1,
            "channel": 0,
            "program": 1,
            "start_tick": 25536,
            "end_tick": 25916,
            "pitch": 72,
            "velocity": 127
        },
        {
            "track": 2,
            "channel": 1,
            "program": 38,
            "start_tick": 25536,
            "end_tick": 25724,
            "pitch": 36,
            "velocity": 96
        },
        {
            "track": 8,
            "channel": 6,
            "program": 26,
            "start_tick": 25536,
            "end_tick": 25916,
            "pitch": 71,
            "velocity": 32
        },
        {
            "track": 8,
            "channel": 6,
            "program": 26,
            "start_tick": 25536,
            "end_tick": 25916,
            "pitch": 67,
            "velocity": 32
        },
        {
            "track": 9,
            "channel": 9,
            "program": null,
            "start_tick": 25536,
            "end_tick": 25724,
            "pitch": 38,
            "velocity": 127
        },
        {
            "track": 2,
            "channel": 1,
            "program": 38,
            "start_tick": 25728,
            "end_tick": 25916,
            "pitch": 38,
            "velocity": 96
        },
        {
            "track": 6,
            "channel": 4,
            "program": 81,
            "start_tick": 25728,
            "end_tick": 25820,
            "pitch": 82,
            "velocity": 64
        },
        {
            "track": 9,
            "channel": 9,
            "program": null,
            "start_tick": 25728,
            "end_tick": 25916,
            "pitch": 38,
            "velocity": 127
        },
        {
            "track": 2,
            "channel": 1,
            "program": 38,
            "start_tick": 25920,
            "end_tick": 26108,
            "pitch": 40,
            "velocity": 96
        },
        {
            "track": 6,
            "channel": 4,
            "program": 81,
            "start_tick": 25920,
            "end_tick": 26012,
            "pitch": 83,
            "velocity": 64
        },
        {
            "track": 9,
            "channel": 9,
            "program": null,
            "start_tick": 25920,
            "end_tick": 26108,
            "pitch": 38,
            "velocity": 127
        },
        {
            "track": 2,
            "channel": 1,
            "program": 38,
            "start_tick": 26112,
            "end_tick": 26204,
            "pitch": 41,
            "velocity": 96
        },
        {
            "track": 5,
            "channel": 2,
            "program": 63,
            "start_tick": 26112,
            "end_tick": 26300,
            "pitch": 64,
            "velocity": 32
        },
        {
            "track": 6,
            "channel": 4,
            "program": 81,
            "start_tick": 26112,
            "end_tick": 26300,
            "pitch": 84,
            "velocity": 64
        },
        {
            "track": 7,
            "channel": 5,
            "program": 50,
            "start_tick": 26112,
            "end_tick": 28028,
            "pitch": 96,
            "velocity": 64
        },
        {
            "track": 9,
            "channel": 9,
            "program": null,
            "start_tick": 26112,
            "end_tick": 26300,
            "pitch": 35,
            "velocity": 127
        },
        {
            "track": 9,
            "channel": 9,
            "program": null,
            "start_tick": 26112,
            "end_tick": 26492,
            "pitch": 49,
            "velocity": 127
        },
        {
            "track": 2,
            "channel": 1,
            "program": 38,
            "start_tick": 26304,
            "end_tick": 26396,
            "pitch": 41,
            "velocity": 96
        },
        {
            "track": 5,
            "channel": 2,
            "program": 63,
            "start_tick": 26304,
            "end_tick": 26492,
            "pitch": 60,
            "velocity": 32
        },
        {
            "track": 2,
            "channel": 1,
            "program": 38,
            "start_tick": 26496,
            "end_tick": 26588,
            "pitch": 41,
            "velocity": 96
        },
        {
            "track": 8,
            "channel": 6,
            "program": 26,
            "start_tick": 26496,
            "end_tick": 26684,
            "pitch": 76,
            "velocity": 32
        },
        {
            "track": 8,
            "channel": 6,
            "program": 26,
            "start_tick": 26496,
            "end_tick": 26684,
            "pitch": 72,
            "velocity": 32
        },
        {
            "track": 9,
            "channel": 9,
            "program": null,
            "start_tick": 26496,
            "end_tick": 26684,
            "pitch": 38,
            "velocity": 127
        },
        {
            "track": 2,
            "channel": 1,
            "program": 38,
            "start_tick": 26688,
            "end_tick": 26780,
            "pitch": 41,
            "velocity": 96
        },
        {
            "track": 9,
            "channel": 9,
            "program": null,
            "start_tick": 26688,
            "end_tick": 26876,
            "pitch": 35,
            "velocity": 127
        },
        {
            "track": 1,
            "channel": 0,
            "program": 1,
            "start_tick": 26880,
            "end_tick": 27068,
            "pitch": 84,
            "velocity": 127
        },
        {
            "track": 2,
            "channel": 1,
            "program": 38,
            "start_tick": 26880,
            "end_tick": 26972,
            "pitch": 41,
            "velocity": 96
        },
        {
            "track": 1,
            "channel": 0,
            "program": 1,
            "start_tick": 27072,
            "end_tick": 27452,
            "pitch": 81,
            "velocity": 127
        },
        {
            "track": 2,
            "channel": 1,
            "program": 38,
            "start_tick": 27072,
            "end_tick": 27164,
            "pitch": 41,
            "velocity": 96
        },
        {
            "track": 8,
            "channel": 6,
            "program": 26,
            "start_tick": 27072,
            "end_tick": 27452,
            "pitch": 76,
            "velocity": 32
        },
        {
            "track": 8,
            "channel": 6,
            "program": 26,
            "start_tick": 27072,
            "end_tick": 27452,
            "pitch": 72,
            "velocity": 32
        },
        {
            "track": 9,
            "channel": 9,
            "program": null,
            "start_tick": 27072,
            "end_tick": 27260,
            "pitch": 35,
            "velocity": 127
        },
        {
            "track": 2,
            "channel": 1,
            "program": 38,
            "start_tick": 27264,
            "end_tick": 27356,
            "pitch": 41,
            "velocity": 96
        },
        {
            "track": 5,
            "channel": 2,
            "program": 63,
            "start_tick": 27264,
            "end_tick": 27452,
            "pitch": 64,
            "velocity": 32
        },
        {
            "track": 9,
            "channel": 9,
            "program": null,
            "start_tick": 27264,
            "end_tick": 27452,
            "pitch": 38,
            "velocity": 127
        },
        {
            "track": 1,
            "channel": 0,
            "program": 1,
            "start_tick": 27456,
            "end_tick": 27644,
            "pitch": 84,
            "velocity": 127
        },
        {
            "track": 2,
            "channel": 1,
            "program": 38,
            "start_tick": 27456,
            "end_tick": 27548,
            "pitch": 41,
            "velocity": 96
        },
        {
            "track": 5,
            "channel": 2,
            "program": 63,
            "start_tick": 27456,
            "end_tick": 27644,
            "pitch": 60,
            "velocity": 32
        },
        {
            "track": 1,
            "channel": 0,
            "program": 1,
            "start_tick": 27648,
            "end_tick": 28028,
            "pitch": 83,
            "velocity": 127
        },
        {
            "track": 2,
            "channel": 1,
            "program": 38,
            "start_tick": 27648,
            "end_tick": 27740,
            "pitch": 40,
            "velocity": 96
        },
        {
            "track": 5,
            "channel": 2,
            "program": 63,
            "start_tick": 27648,
            "end_tick": 27836,
            "pitch": 62,
            "velocity": 32
        },
        {
            "track": 9,
            "channel": 9,
            "program": null,
            "start_tick": 27648,
            "end_tick": 27836,
            "pitch": 35,
            "velocity": 127
        },
        {
            "track": 2,
            "channel": 1,
            "program": 38,
            "start_tick": 27840,
            "end_tick": 27932,
            "pitch": 40,
            "velocity": 96
        },
        {
            "track": 5,
            "channel": 2,
            "program": 63,
            "start_tick": 27840,
            "end_tick": 28028,
            "pitch": 59,
            "velocity": 32
        },
        {
            "track": 1,
            "channel": 0,
            "program": 1,
            "start_tick": 28032,
            "end_tick": 28220,
            "pitch": 84,
            "velocity": 127
        },
        {
            "track": 2,
            "channel": 1,
            "program": 38,
            "start_tick": 28032,
            "end_tick": 28124,
            "pitch": 40,
            "velocity": 96
        },
        {
            "track": 7,
            "channel": 5,
            "program": 50,
            "start_tick": 28032,
            "end_tick": 28412,
            "pitch": 98,
            "velocity": 64
        },
        {
            "track": 8,
            "channel": 6,
            "program": 26,
            "start_tick": 28032,
            "end_tick": 28220,
            "pitch": 74,
            "velocity": 32
        },
        {
            "track": 8,
            "channel": 6,
            "program": 26,
            "start_tick": 28032,
            "end_tick": 28220,
            "pitch": 71,
            "velocity": 32
        },
        {
            "track": 9,
            "channel": 9,
            "program": null,
            "start_tick": 28032,
            "end_tick": 28220,
            "pitch": 38,
            "velocity": 127
        },
        {
            "track": 1,
            "channel": 0,
            "program": 1,
            "start_tick": 28224,
            "end_tick": 28604,
            "pitch": 83,
            "velocity": 127
        },
        {
            "track": 2,
            "channel": 1,
            "program": 38,
            "start_tick": 28224,
            "end_tick": 28316,
            "pitch": 40,
            "velocity": 96
        },
        {
            "track": 9,
            "channel": 9,
            "program": null,
            "start_tick": 28224,
            "end_tick": 28412,
            "pitch": 35,
            "velocity": 127
        },
        {
            "track": 2,
            "channel": 1,
            "program": 38,
            "start_tick": 28416,
            "end_tick": 28508,
            "pitch": 40,
            "velocity": 96
        },
        {
            "track": 7,
            "channel": 5,
            "program": 50,
            "start_tick": 28416,
            "end_tick": 29180,
            "pitch": 95,
            "velocity": 64
        },
        {
            "track": 1,
            "channel": 0,
            "program": 1,
            "start_tick": 28608,
            "end_tick": 28988,
            "pitch": 79,
            "velocity": 127
        },
        {
            "track": 2,
            "channel": 1,
            "program": 38,
            "start_tick": 28608,
            "end_tick": 28796,
            "pitch": 36,
            "velocity": 96
        },
        {
            "track": 6,
            "channel": 4,
            "program": 81,
            "start_tick": 28608,
            "end_tick": 28796,
            "pitch": 81,
            "velocity": 64
        },
        {
            "track": 8,
            "channel": 6,
            "program": 26,
            "start_tick": 28608,
            "end_tick": 28988,
            "pitch": 74,
            "velocity": 32
        },
        {
            "track": 8,
            "channel": 6,
            "program": 26,
            "start_tick": 28608,
            "end_tick": 28988,
            "pitch": 71,
            "velocity": 32
        },
        {
            "track": 9,
            "channel": 9,
            "program": null,
            "start_tick": 28608,
            "end_tick": 28796,
            "pitch": 35,
            "velocity": 127
        },
        {
            "track": 2,
            "channel": 1,
            "program": 38,
            "start_tick": 28800,
            "end_tick": 28988,
            "pitch": 38,
            "velocity": 96
        },
        {
            "track": 6,
            "channel": 4,
            "program": 81,
            "start_tick": 28800,
            "end_tick": 28988,
            "pitch": 84,
            "velocity": 64
        },
        {
            "track": 9,
            "channel": 9,
            "program": null,
            "start_tick": 28800,
            "end_tick": 28988,
            "pitch": 38,
            "velocity": 127
        },
        {
            "track": 2,
            "channel": 1,
            "program": 38,
            "start_tick": 28992,
            "end_tick": 29180,
            "pitch": 40,
            "velocity": 96
        },
        {
            "track": 6,
            "channel": 4,
            "program": 81,
            "start_tick": 28992,
            "end_tick": 29180,
            "pitch": 81,
            "velocity": 64
        },
        {
            "track": 2,
            "channel": 1,
            "program": 38,
            "start_tick": 29184,
            "end_tick": 29276,
            "pitch": 41,
            "velocity": 96
        },
        {
            "track": 5,
            "channel": 2,
            "program": 63,
            "start_tick": 29184,
            "end_tick": 29372,
            "pitch": 64,
            "velocity": 32
        },
        {
            "track": 7,
            "channel": 5,
            "program": 50,
            "start_tick": 29184,
            "end_tick": 31100,
            "pitch": 96,
            "velocity": 64
        },
        {
            "track": 9,
            "channel": 9,
            "program": null,
            "start_tick": 29184,
            "end_tick": 29372,
            "pitch": 35,
            "velocity": 127
        },
        {
            "track": 2,
            "channel": 1,
            "program": 38,
            "start_tick": 29376,
            "end_tick": 29468,
            "pitch": 41,
            "velocity": 96
        },
        {
            "track": 5,
            "channel": 2,
            "program": 63,
            "start_tick": 29376,
            "end_tick": 29564,
            "pitch": 60,
            "velocity": 32
        },
        {
            "track": 2,
            "channel": 1,
            "program": 38,
            "start_tick": 29568,
            "end_tick": 29660,
            "pitch": 41,
            "velocity": 96
        },
        {
            "track": 8,
            "channel": 6,
            "program": 26,
            "start_tick": 29568,
            "end_tick": 29756,
            "pitch": 76,
            "velocity": 32
        },
        {
            "track": 8,
            "channel": 6,
            "program": 26,
            "start_tick": 29568,
            "end_tick": 29756,
            "pitch": 72,
            "velocity": 32
        },
        {
            "track": 9,
            "channel": 9,
            "program": null,
            "start_tick": 29568,
            "end_tick": 29756,
            "pitch": 38,
            "velocity": 127
        },
        {
            "track": 1,
            "channel": 0,
            "program": 1,
            "start_tick": 29760,
            "end_tick": 29948,
            "pitch": 79,
            "velocity": 127
        },
        {
            "track": 2,
            "channel": 1,
            "program": 38,
            "start_tick": 29760,
            "end_tick": 29852,
            "pitch": 41,
            "velocity": 96
        },
        {
            "track": 9,
            "channel": 9,
            "program": null,
            "start_tick": 29760,
            "end_tick": 29948,
            "pitch": 35,
            "velocity": 127
        },
        {
            "track": 1,
            "channel": 0,
            "program": 1,
            "start_tick": 29952,
            "end_tick": 30140,
            "pitch": 88,
            "velocity": 127
        },
        {
            "track": 2,
            "channel": 1,
            "program": 38,
            "start_tick": 29952,
            "end_tick": 30044,
            "pitch": 41,
            "velocity": 96
        },
        {
            "track": 1,
            "channel": 0,
            "program": 1,
            "start_tick": 30144,
            "end_tick": 30524,
            "pitch": 86,
            "velocity": 127
        },
        {
            "track": 2,
            "channel": 1,
            "program": 38,
            "start_tick": 30144,
            "end_tick": 30236,
            "pitch": 41,
            "velocity": 96
        },
        {
            "track": 8,
            "channel": 6,
            "program": 26,
            "start_tick": 30144,
            "end_tick": 30524,
            "pitch": 76,
            "velocity": 32
        },
        {
            "track": 8,
            "channel": 6,
            "program": 26,
            "start_tick": 30144,
            "end_tick": 30524,
            "pitch": 72,
            "velocity": 32
        },
        {
            "track": 9,
            "channel": 9,
            "program": null,
            "start_tick": 30144,
            "end_tick": 30332,
            "pitch": 35,
            "velocity": 127
        },
        {
            "track": 2,
            "channel": 1,
            "program": 38,
            "start_tick": 30336,
            "end_tick": 30428,
            "pitch": 41,
            "velocity": 96
        },
        {
            "track": 5,
            "channel": 2,
            "program": 63,
            "start_tick": 30336,
            "end_tick": 30524,
            "pitch": 64,
            "velocity": 32
        },
        {
            "track": 9,
            "channel": 9,
            "program": null,
            "start_tick": 30336,
            "end_tick": 30524,
            "pitch": 38,
            "velocity": 127
        },
        {
            "track": 1,
            "channel": 0,
            "program": 1,
            "start_tick": 30528,
            "end_tick": 30716,
            "pitch": 84,
            "velocity": 127
        },
        {
            "track": 2,
            "channel": 1,
            "program": 38,
            "start_tick": 30528,
            "end_tick": 30620,
            "pitch": 41,
            "velocity": 96
        },
        {
            "track": 5,
            "channel": 2,
            "program": 63,
            "start_tick": 30528,
            "end_tick": 30716,
            "pitch": 60,
            "velocity": 32
        },
        {
            "track": 1,
            "channel": 0,
            "program": 1,
            "start_tick": 30720,
            "end_tick": 31100,
            "pitch": 83,
            "velocity": 127
        },
        {
            "track": 2,
            "channel": 1,
            "program": 38,
            "start_tick": 30720,
            "end_tick": 30812,
            "pitch": 40,
            "velocity": 96
        },
        {
            "track": 5,
            "channel": 2,
            "program": 63,
            "start_tick": 30720,
            "end_tick": 30908,
            "pitch": 62,
            "velocity": 32
        },
        {
            "track": 9,
            "channel": 9,
            "program": null,
            "start_tick": 30720,
            "end_tick": 30908,
            "pitch": 35,
            "velocity": 127
        },
        {
            "track": 2,
            "channel": 1,
            "program": 38,
            "start_tick": 30912,
            "end_tick": 31004,
            "pitch": 40,
            "velocity": 96
        },
        {
            "track": 5,
            "channel": 2,
            "program": 63,
            "start_tick": 30912,
            "end_tick": 31100,
            "pitch": 59,
            "velocity": 32
        },
        {
            "track": 1,
            "channel": 0,
            "program": 1,
            "start_tick": 31104,
            "end_tick": 31292,
            "pitch": 84,
            "velocity": 127
        },
        {
            "track": 2,
            "channel": 1,
            "program": 38,
            "start_tick": 31104,
            "end_tick": 31196,
            "pitch": 40,
            "velocity": 96
        },
        {
            "track": 7,
            "channel": 5,
            "program": 50,
            "start_tick": 31104,
            "end_tick": 31484,
            "pitch": 95,
            "velocity": 64
        },
        {
            "track": 8,
            "channel": 6,
            "program": 26,
            "start_tick": 31104,
            "end_tick": 31292,
            "pitch": 74,
            "velocity": 32
        },
        {
            "track": 8,
            "channel": 6,
            "program": 26,
            "start_tick": 31104,
            "end_tick": 31292,
            "pitch": 71,
            "velocity": 32
        },
        {
            "track": 9,
            "channel": 9,
            "program": null,
            "start_tick": 31104,
            "end_tick": 31292,
            "pitch": 38,
            "velocity": 127
        },
        {
            "track": 1,
            "channel": 0,
            "program": 1,
            "start_tick": 31296,
            "end_tick": 31676,
            "pitch": 83,
            "velocity": 127
        },
        {
            "track": 2,
            "channel": 1,
            "program": 38,
            "start_tick": 31296,
            "end_tick": 31388,
            "pitch": 40,
            "velocity": 96
        },
        {
            "track": 9,
            "channel": 9,
            "program": null,
            "start_tick": 31296,
            "end_tick": 31484,
            "pitch": 35,
            "velocity": 127
        },
        {
            "track": 2,
            "channel": 1,
            "program": 38,
            "start_tick": 31488,
            "end_tick": 31580,
            "pitch": 40,
            "velocity": 96
        },
        {
            "track": 7,
            "channel": 5,
            "program": 50,
            "start_tick": 31488,
            "end_tick": 32252,
            "pitch": 91,
            "velocity": 64
        },
        {
            "track": 1,
            "channel": 0,
            "program": 1,
            "start_tick": 31680,
            "end_tick": 32060,
            "pitch": 79,
            "velocity": 127
        },
        {
            "track": 2,
            "channel": 1,
            "program": 38,
            "start_tick": 31680,
            "end_tick": 31868,
            "pitch": 36,
            "velocity": 96
        },
        {
            "track": 6,
            "channel": 4,
            "program": 81,
            "start_tick": 31680,
            "end_tick": 31868,
            "pitch": 81,
            "velocity": 64
        },
        {
            "track": 8,
            "channel": 6,
            "program": 26,
            "start_tick": 31680,
            "end_tick": 32060,
            "pitch": 74,
            "velocity": 32
        },
        {
            "track": 8,
            "channel": 6,
            "program": 26,
            "start_tick": 31680,
            "end_tick": 32060,
            "pitch": 71,
            "velocity": 32
        },
        {
            "track": 9,
            "channel": 9,
            "program": null,
            "start_tick": 31680,
            "end_tick": 31868,
            "pitch": 35,
            "velocity": 127
        },
        {
            "track": 2,
            "channel": 1,
            "program": 38,
            "start_tick": 31872,
            "end_tick": 32060,
            "pitch": 38,
            "velocity": 96
        },
        {
            "track": 6,
            "channel": 4,
            "program": 81,
            "start_tick": 31872,
            "end_tick": 32060,
            "pitch": 84,
            "velocity": 64
        },
        {
            "track": 9,
            "channel": 9,
            "program": null,
            "start_tick": 31872,
            "end_tick": 32060,
            "pitch": 38,
            "velocity": 127
        },
        {
            "track": 2,
            "channel": 1,
            "program": 38,
            "start_tick": 32064,
            "end_tick": 32252,
            "pitch": 40,
            "velocity": 96
        },
        {
            "track": 6,
            "channel": 4,
            "program": 81,
            "start_tick": 32064,
            "end_tick": 32252,
            "pitch": 88,
            "velocity": 64
        },
        {
            "track": 2,
            "channel": 1,
            "program": 38,
            "start_tick": 32256,
            "end_tick": 32348,
            "pitch": 41,
            "velocity": 96
        },
        {
            "track": 5,
            "channel": 2,
            "program": 63,
            "start_tick": 32256,
            "end_tick": 32444,
            "pitch": 64,
            "velocity": 32
        },
        {
            "track": 7,
            "channel": 5,
            "program": 50,
            "start_tick": 32256,
            "end_tick": 34172,
            "pitch": 96,
            "velocity": 64
        },
        {
            "track": 9,
            "channel": 9,
            "program": null,
            "start_tick": 32256,
            "end_tick": 32444,
            "pitch": 35,
            "velocity": 127
        },
        {
            "track": 2,
            "channel": 1,
            "program": 38,
            "start_tick": 32448,
            "end_tick": 32540,
            "pitch": 41,
            "velocity": 96
        },
        {
            "track": 5,
            "channel": 2,
            "program": 63,
            "start_tick": 32448,
            "end_tick": 32636,
            "pitch": 60,
            "velocity": 32
        },
        {
            "track": 2,
            "channel": 1,
            "program": 38,
            "start_tick": 32640,
            "end_tick": 32732,
            "pitch": 41,
            "velocity": 96
        },
        {
            "track": 8,
            "channel": 6,
            "program": 26,
            "start_tick": 32640,
            "end_tick": 32828,
            "pitch": 76,
            "velocity": 32
        },
        {
            "track": 8,
            "channel": 6,
            "program": 26,
            "start_tick": 32640,
            "end_tick": 32828,
            "pitch": 72,
            "velocity": 32
        },
        {
            "track": 9,
            "channel": 9,
            "program": null,
            "start_tick": 32640,
            "end_tick": 32828,
            "pitch": 38,
            "velocity": 127
        },
        {
            "track": 2,
            "channel": 1,
            "program": 38,
            "start_tick": 32832,
            "end_tick": 32924,
            "pitch": 41,
            "velocity": 96
        },
        {
            "track": 9,
            "channel": 9,
            "program": null,
            "start_tick": 32832,
            "end_tick": 33020,
            "pitch": 35,
            "velocity": 127
        },
        {
            "track": 1,
            "channel": 0,
            "program": 1,
            "start_tick": 33024,
            "end_tick": 33212,
            "pitch": 84,
            "velocity": 127
        },
        {
            "track": 2,
            "channel": 1,
            "program": 38,
            "start_tick": 33024,
            "end_tick": 33116,
            "pitch": 41,
            "velocity": 96
        },
        {
            "track": 1,
            "channel": 0,
            "program": 1,
            "start_tick": 33216,
            "end_tick": 33596,
            "pitch": 81,
            "velocity": 127
        },
        {
            "track": 2,
            "channel": 1,
            "program": 38,
            "start_tick": 33216,
            "end_tick": 33308,
            "pitch": 41,
            "velocity": 96
        },
        {
            "track": 8,
            "channel": 6,
            "program": 26,
            "start_tick": 33216,
            "end_tick": 33596,
            "pitch": 76,
            "velocity": 32
        },
        {
            "track": 8,
            "channel": 6,
            "program": 26,
            "start_tick": 33216,
            "end_tick": 33596,
            "pitch": 72,
            "velocity": 32
        },
        {
            "track": 9,
            "channel": 9,
            "program": null,
            "start_tick": 33216,
            "end_tick": 33404,
            "pitch": 35,
            "velocity": 127
        },
        {
            "track": 2,
            "channel": 1,
            "program": 38,
            "start_tick": 33408,
            "end_tick": 33500,
            "pitch": 41,
            "velocity": 96
        },
        {
            "track": 5,
            "channel": 2,
            "program": 63,
            "start_tick": 33408,
            "end_tick": 33596,
            "pitch": 64,
            "velocity": 32
        },
        {
            "track": 9,
            "channel": 9,
            "program": null,
            "start_tick": 33408,
            "end_tick": 33596,
            "pitch": 38,
            "velocity": 127
        },
        {
            "track": 1,
            "channel": 0,
            "program": 1,
            "start_tick": 33600,
            "end_tick": 33788,
            "pitch": 84,
            "velocity": 127
        },
        {
            "track": 2,
            "channel": 1,
            "program": 38,
            "start_tick": 33600,
            "end_tick": 33692,
            "pitch": 41,
            "velocity": 96
        },
        {
            "track": 5,
            "channel": 2,
            "program": 63,
            "start_tick": 33600,
            "end_tick": 33788,
            "pitch": 60,
            "velocity": 32
        },
        {
            "track": 1,
            "channel": 0,
            "program": 1,
            "start_tick": 33792,
            "end_tick": 34172,
            "pitch": 83,
            "velocity": 127
        },
        {
            "track": 2,
            "channel": 1,
            "program": 38,
            "start_tick": 33792,
            "end_tick": 33884,
            "pitch": 40,
            "velocity": 96
        },
        {
            "track": 5,
            "channel": 2,
            "program": 63,
            "start_tick": 33792,
            "end_tick": 33980,
            "pitch": 62,
            "velocity": 32
        },
        {
            "track": 9,
            "channel": 9,
            "program": null,
            "start_tick": 33792,
            "end_tick": 33980,
            "pitch": 35,
            "velocity": 127
        },
        {
            "track": 2,
            "channel": 1,
            "program": 38,
            "start_tick": 33984,
            "end_tick": 34076,
            "pitch": 40,
            "velocity": 96
        },
        {
            "track": 5,
            "channel": 2,
            "program": 63,
            "start_tick": 33984,
            "end_tick": 34172,
            "pitch": 59,
            "velocity": 32
        },
        {
            "track": 1,
            "channel": 0,
            "program": 1,
            "start_tick": 34176,
            "end_tick": 34364,
            "pitch": 84,
            "velocity": 127
        },
        {
            "track": 2,
            "channel": 1,
            "program": 38,
            "start_tick": 34176,
            "end_tick": 34268,
            "pitch": 40,
            "velocity": 96
        },
        {
            "track": 7,
            "channel": 5,
            "program": 50,
            "start_tick": 34176,
            "end_tick": 34556,
            "pitch": 98,
            "velocity": 64
        },
        {
            "track": 8,
            "channel": 6,
            "program": 26,
            "start_tick": 34176,
            "end_tick": 34364,
            "pitch": 74,
            "velocity": 32
        },
        {
            "track": 8,
            "channel": 6,
            "program": 26,
            "start_tick": 34176,
            "end_tick": 34364,
            "pitch": 71,
            "velocity": 32
        },
        {
            "track": 9,
            "channel": 9,
            "program": null,
            "start_tick": 34176,
            "end_tick": 34364,
            "pitch": 38,
            "velocity": 127
        },
        {
            "track": 1,
            "channel": 0,
            "program": 1,
            "start_tick": 34368,
            "end_tick": 34748,
            "pitch": 83,
            "velocity": 127
        },
        {
            "track": 2,
            "channel": 1,
            "program": 38,
            "start_tick": 34368,
            "end_tick": 34460,
            "pitch": 40,
            "velocity": 96
        },
        {
            "track": 9,
            "channel": 9,
            "program": null,
            "start_tick": 34368,
            "end_tick": 34556,
            "pitch": 35,
            "velocity": 127
        },
        {
            "track": 2,
            "channel": 1,
            "program": 38,
            "start_tick": 34560,
            "end_tick": 34652,
            "pitch": 40,
            "velocity": 96
        },
        {
            "track": 7,
            "channel": 5,
            "program": 50,
            "start_tick": 34560,
            "end_tick": 35324,
            "pitch": 95,
            "velocity": 64
        },
        {
            "track": 1,
            "channel": 0,
            "program": 1,
            "start_tick": 34752,
            "end_tick": 35132,
            "pitch": 79,
            "velocity": 127
        },
        {
            "track": 2,
            "channel": 1,
            "program": 38,
            "start_tick": 34752,
            "end_tick": 34844,
            "pitch": 40,
            "velocity": 96
        },
        {
            "track": 6,
            "channel": 4,
            "program": 81,
            "start_tick": 34752,
            "end_tick": 34940,
            "pitch": 81,
            "velocity": 64
        },
        {
            "track": 8,
            "channel": 6,
            "program": 26,
            "start_tick": 34752,
            "end_tick": 35132,
            "pitch": 74,
            "velocity": 32
        },
        {
            "track": 8,
            "channel": 6,
            "program": 26,
            "start_tick": 34752,
            "end_tick": 35132,
            "pitch": 71,
            "velocity": 32
        },
        {
            "track": 9,
            "channel": 9,
            "program": null,
            "start_tick": 34752,
            "end_tick": 34940,
            "pitch": 35,
            "velocity": 127
        },
        {
            "track": 2,
            "channel": 1,
            "program": 38,
            "start_tick": 34944,
            "end_tick": 35036,
            "pitch": 40,
            "velocity": 96
        },
        {
            "track": 6,
            "channel": 4,
            "program": 81,
            "start_tick": 34944,
            "end_tick": 35132,
            "pitch": 84,
            "velocity": 64
        },
        {
            "track": 9,
            "channel": 9,
            "program": null,
            "start_tick": 34944,
            "end_tick": 35132,
            "pitch": 38,
            "velocity": 127
        },
        {
            "track": 2,
            "channel": 1,
            "program": 38,
            "start_tick": 35136,
            "end_tick": 35228,
            "pitch": 40,
            "velocity": 96
        },
        {
            "track": 6,
            "channel": 4,
            "program": 81,
            "start_tick": 35136,
            "end_tick": 35324,
            "pitch": 81,
            "velocity": 64
        },
        {
            "track": 2,
            "channel": 1,
            "program": 38,
            "start_tick": 35328,
            "end_tick": 35420,
            "pitch": 38,
            "velocity": 96
        },
        {
            "track": 5,
            "channel": 2,
            "program": 63,
            "start_tick": 35328,
            "end_tick": 35516,
            "pitch": 60,
            "velocity": 32
        },
        {
            "track": 7,
            "channel": 5,
            "program": 50,
            "start_tick": 35328,
            "end_tick": 38396,
            "pitch": 96,
            "velocity": 64
        },
        {
            "track": 9,
            "channel": 9,
            "program": null,
            "start_tick": 35328,
            "end_tick": 35516,
            "pitch": 35,
            "velocity": 127
        },
        {
            "track": 2,
            "channel": 1,
            "program": 38,
            "start_tick": 35520,
            "end_tick": 35612,
            "pitch": 38,
            "velocity": 96
        },
        {
            "track": 5,
            "channel": 2,
            "program": 63,
            "start_tick": 35520,
            "end_tick": 35708,
            "pitch": 57,
            "velocity": 32
        },
        {
            "track": 2,
            "channel": 1,
            "program": 38,
            "start_tick": 35712,
            "end_tick": 35804,
            "pitch": 38,
            "velocity": 96
        },
        {
            "track": 8,
            "channel": 6,
            "program": 26,
            "start_tick": 35712,
            "end_tick": 35900,
            "pitch": 72,
            "velocity": 32
        },
        {
            "track": 8,
            "channel": 6,
            "program": 26,
            "start_tick": 35712,
            "end_tick": 35900,
            "pitch": 69,
            "velocity": 32
        },
        {
            "track": 9,
            "channel": 9,
            "program": null,
            "start_tick": 35712,
            "end_tick": 35900,
            "pitch": 38,
            "velocity": 127
        },
        {
            "track": 1,
            "channel": 0,
            "program": 1,
            "start_tick": 35904,
            "end_tick": 36092,
            "pitch": 81,
            "velocity": 127
        },
        {
            "track": 2,
            "channel": 1,
            "program": 38,
            "start_tick": 35904,
            "end_tick": 35996,
            "pitch": 38,
            "velocity": 96
        },
        {
            "track": 9,
            "channel": 9,
            "program": null,
            "start_tick": 35904,
            "end_tick": 36092,
            "pitch": 35,
            "velocity": 127
        },
        {
            "track": 1,
            "channel": 0,
            "program": 1,
            "start_tick": 36096,
            "end_tick": 36284,
            "pitch": 81,
            "velocity": 127
        },
        {
            "track": 2,
            "channel": 1,
            "program": 38,
            "start_tick": 36096,
            "end_tick": 36188,
            "pitch": 38,
            "velocity": 96
        },
        {
            "track": 1,
            "channel": 0,
            "program": 1,
            "start_tick": 36288,
            "end_tick": 36668,
            "pitch": 77,
            "velocity": 127
        },
        {
            "track": 2,
            "channel": 1,
            "program": 38,
            "start_tick": 36288,
            "end_tick": 36380,
            "pitch": 38,
            "velocity": 96
        },
        {
            "track": 8,
            "channel": 6,
            "program": 26,
            "start_tick": 36288,
            "end_tick": 36668,
            "pitch": 72,
            "velocity": 32
        },
        {
            "track": 8,
            "channel": 6,
            "program": 26,
            "start_tick": 36288,
            "end_tick": 36668,
            "pitch": 69,
            "velocity": 32
        },
        {
            "track": 9,
            "channel": 9,
            "program": null,
            "start_tick": 36288,
            "end_tick": 36476,
            "pitch": 35,
            "velocity": 127
        },
        {
            "track": 2,
            "channel": 1,
            "program": 38,
            "start_tick": 36480,
            "end_tick": 36572,
            "pitch": 38,
            "velocity": 96
        },
        {
            "track": 9,
            "channel": 9,
            "program": null,
            "start_tick": 36480,
            "end_tick": 36668,
            "pitch": 38,
            "velocity": 127
        },
        {
            "track": 1,
            "channel": 0,
            "program": 1,
            "start_tick": 36672,
            "end_tick": 36860,
            "pitch": 81,
            "velocity": 127
        },
        {
            "track": 2,
            "channel": 1,
            "program": 38,
            "start_tick": 36672,
            "end_tick": 36764,
            "pitch": 38,
            "velocity": 96
        },
        {
            "track": 1,
            "channel": 0,
            "program": 1,
            "start_tick": 36864,
            "end_tick": 37244,
            "pitch": 79,
            "velocity": 127
        },
        {
            "track": 2,
            "channel": 1,
            "program": 38,
            "start_tick": 36864,
            "end_tick": 36956,
            "pitch": 36,
            "velocity": 96
        },
        {
            "track": 9,
            "channel": 9,
            "program": null,
            "start_tick": 36864,
            "end_tick": 37052,
            "pitch": 35,
            "velocity": 127
        },
        {
            "track": 2,
            "channel": 1,
            "program": 38,
            "start_tick": 37056,
            "end_tick": 37148,
            "pitch": 36,
            "velocity": 96
        },
        {
            "track": 1,
            "channel": 0,
            "program": 1,
            "start_tick": 37248,
            "end_tick": 37436,
            "pitch": 81,
            "velocity": 127
        },
        {
            "track": 2,
            "channel": 1,
            "program": 38,
            "start_tick": 37248,
            "end_tick": 37340,
            "pitch": 36,
            "velocity": 96
        },
        {
            "track": 8,
            "channel": 6,
            "program": 26,
            "start_tick": 37248,
            "end_tick": 37436,
            "pitch": 71,
            "velocity": 32
        },
        {
            "track": 8,
            "channel": 6,
            "program": 26,
            "start_tick": 37248,
            "end_tick": 37436,
            "pitch": 67,
            "velocity": 32
        },
        {
            "track": 9,
            "channel": 9,
            "program": null,
            "start_tick": 37248,
            "end_tick": 37436,
            "pitch": 38,
            "velocity": 127
        },
        {
            "track": 1,
            "channel": 0,
            "program": 1,
            "start_tick": 37440,
            "end_tick": 37820,
            "pitch": 79,
            "velocity": 127
        },
        {
            "track": 2,
            "channel": 1,
            "program": 38,
            "start_tick": 37440,
            "end_tick": 37532,
            "pitch": 36,
            "velocity": 96
        },
        {
            "track": 6,
            "channel": 4,
            "program": 81,
            "start_tick": 37440,
            "end_tick": 37532,
            "pitch": 84,
            "velocity": 64
        },
        {
            "track": 9,
            "channel": 9,
            "program": null,
            "start_tick": 37440,
            "end_tick": 37628,
            "pitch": 35,
            "velocity": 127
        },
        {
            "track": 2,
            "channel": 1,
            "program": 38,
            "start_tick": 37632,
            "end_tick": 37724,
            "pitch": 36,
            "velocity": 96
        },
        {
            "track": 6,
            "channel": 4,
            "program": 81,
            "start_tick": 37632,
            "end_tick": 38012,
            "pitch": 81,
            "velocity": 64
        },
        {
            "track": 1,
            "channel": 0,
            "program": 1,
            "start_tick": 37824,
            "end_tick": 38012,
            "pitch": 72,
            "velocity": 127
        },
        {
            "track": 2,
            "channel": 1,
            "program": 38,
            "start_tick": 37824,
            "end_tick": 37916,
            "pitch": 36,
            "velocity": 96
        },
        {
            "track": 8,
            "channel": 6,
            "program": 26,
            "start_tick": 37824,
            "end_tick": 38204,
            "pitch": 71,
            "velocity": 32
        },
        {
            "track": 8,
            "channel": 6,
            "program": 26,
            "start_tick": 37824,
            "end_tick": 38204,
            "pitch": 67,
            "velocity": 32
        },
        {
            "track": 9,
            "channel": 9,
            "program": null,
            "start_tick": 37824,
            "end_tick": 38012,
            "pitch": 38,
            "velocity": 127
        },
        {
            "track": 1,
            "channel": 0,
            "program": 1,
            "start_tick": 38016,
            "end_tick": 38204,
            "pitch": 72,
            "velocity": 127
        },
        {
            "track": 2,
            "channel": 1,
            "program": 38,
            "start_tick": 38016,
            "end_tick": 38108,
            "pitch": 36,
            "velocity": 96
        },
        {
            "track": 6,
            "channel": 4,
            "program": 81,
            "start_tick": 38016,
            "end_tick": 38108,
            "pitch": 82,
            "velocity": 64
        },
        {
            "track": 9,
            "channel": 9,
            "program": null,
            "start_tick": 38016,
            "end_tick": 38204,
            "pitch": 38,
            "velocity": 127
        },
        {
            "track": 1,
            "channel": 0,
            "program": 1,
            "start_tick": 38208,
            "end_tick": 38396,
            "pitch": 76,
            "velocity": 127
        },
        {
            "track": 2,
            "channel": 1,
            "program": 38,
            "start_tick": 38208,
            "end_tick": 38300,
            "pitch": 36,
            "velocity": 96
        },
        {
            "track": 6,
            "channel": 4,
            "program": 81,
            "start_tick": 38208,
            "end_tick": 38300,
            "pitch": 83,
            "velocity": 64
        },
        {
            "track": 9,
            "channel": 9,
            "program": null,
            "start_tick": 38208,
            "end_tick": 38396,
            "pitch": 38,
            "velocity": 127
        },
        {
            "track": 1,
            "channel": 0,
            "program": 1,
            "start_tick": 38400,
            "end_tick": 41084,
            "pitch": 74,
            "velocity": 127
        },
        {
            "track": 2,
            "channel": 1,
            "program": 38,
            "start_tick": 38400,
            "end_tick": 38972,
            "pitch": 46,
            "velocity": 96
        },
        {
            "track": 4,
            "channel": 3,
            "program": 80,
            "start_tick": 38400,
            "end_tick": 38972,
            "pitch": 82,
            "velocity": 64
        },
        {
            "track": 5,
            "channel": 2,
            "program": 63,
            "start_tick": 38400,
            "end_tick": 38972,
            "pitch": 62,
            "velocity": 32
        },
        {
            "track": 5,
            "channel": 2,
            "program": 63,
            "start_tick": 38400,
            "end_tick": 38972,
            "pitch": 57,
            "velocity": 32
        },
        {
            "track": 9,
            "channel": 9,
            "program": null,
            "start_tick": 38400,
            "end_tick": 38588,
            "pitch": 35,
            "velocity": 127
        },
        {
            "track": 9,
            "channel": 9,
            "program": null,
            "start_tick": 38400,
            "end_tick": 38780,
            "pitch": 49,
            "velocity": 127
        },
        {
            "track": 9,
            "channel": 9,
            "program": null,
            "start_tick": 38784,
            "end_tick": 38972,
            "pitch": 38,
            "velocity": 127
        },
        {
            "track": 2,
            "channel": 1,
            "program": 38,
            "start_tick": 38976,
            "end_tick": 39548,
            "pitch": 45,
            "velocity": 96
        },
        {
            "track": 4,
            "channel": 3,
            "program": 80,
            "start_tick": 38976,
            "end_tick": 39548,
            "pitch": 81,
            "velocity": 64
        },
        {
            "track": 5,
            "channel": 2,
            "program": 63,
            "start_tick": 38976,
            "end_tick": 39548,
            "pitch": 62,
            "velocity": 32
        },
        {
            "track": 5,
            "channel": 2,
            "program": 63,
            "start_tick": 38976,
            "end_tick": 39548,
            "pitch": 57,
            "velocity": 32
        },
        {
            "track": 9,
            "channel": 9,
            "program": null,
            "start_tick": 38976,
            "end_tick": 39164,
            "pitch": 35,
            "velocity": 127
        },
        {
            "track": 9,
            "channel": 9,
            "program": null,
            "start_tick": 39360,
            "end_tick": 39548,
            "pitch": 35,
            "velocity": 127
        },
        {
            "track": 2,
            "channel": 1,
            "program": 38,
            "start_tick": 39552,
            "end_tick": 40124,
            "pitch": 43,
            "velocity": 96
        },
        {
            "track": 4,
            "channel": 3,
            "program": 80,
            "start_tick": 39552,
            "end_tick": 40124,
            "pitch": 79,
            "velocity": 64
        },
        {
            "track": 5,
            "channel": 2,
            "program": 63,
            "start_tick": 39552,
            "end_tick": 40124,
            "pitch": 57,
            "velocity": 32
        },
        {
            "track": 5,
            "channel": 2,
            "program": 63,
            "start_tick": 39552,
            "end_tick": 40124,
            "pitch": 62,
            "velocity": 32
        },
        {
            "track": 9,
            "channel": 9,
            "program": null,
            "start_tick": 39552,
            "end_tick": 39740,
            "pitch": 38,
            "velocity": 127
        },
        {
            "track": 9,
            "channel": 9,
            "program": null,
            "start_tick": 39936,
            "end_tick": 40124,
            "pitch": 35,
            "velocity": 127
        },
        {
            "track": 2,
            "channel": 1,
            "program": 38,
            "start_tick": 40128,
            "end_tick": 40700,
            "pitch": 41,
            "velocity": 96
        },
        {
            "track": 4,
            "channel": 3,
            "program": 80,
            "start_tick": 40128,
            "end_tick": 40700,
            "pitch": 77,
            "velocity": 64
        },
        {
            "track": 5,
            "channel": 2,
            "program": 63,
            "start_tick": 40128,
            "end_tick": 40700,
            "pitch": 62,
            "velocity": 32
        },
        {
            "track": 5,
            "channel": 2,
            "program": 63,
            "start_tick": 40128,
            "end_tick": 40700,
            "pitch": 57,
            "velocity": 32
        },
        {
            "track": 9,
            "channel": 9,
            "program": null,
            "start_tick": 40320,
            "end_tick": 40508,
            "pitch": 38,
            "velocity": 127
        },
        {
            "track": 9,
            "channel": 9,
            "program": null,
            "start_tick": 40512,
            "end_tick": 40700,
            "pitch": 35,
            "velocity": 127
        },
        {
            "track": 2,
            "channel": 1,
            "program": 38,
            "start_tick": 40704,
            "end_tick": 40988,
            "pitch": 40,
            "velocity": 96
        },
        {
            "track": 4,
            "channel": 3,
            "program": 80,
            "start_tick": 40704,
            "end_tick": 40988,
            "pitch": 76,
            "velocity": 64
        },
        {
            "track": 5,
            "channel": 2,
            "program": 63,
            "start_tick": 40704,
            "end_tick": 40988,
            "pitch": 62,
            "velocity": 32
        },
        {
            "track": 5,
            "channel": 2,
            "program": 63,
            "start_tick": 40704,
            "end_tick": 40988,
            "pitch": 57,
            "velocity": 32
        },
        {
            "track": 9,
            "channel": 9,
            "program": null,
            "start_tick": 40896,
            "end_tick": 41084,
            "pitch": 35,
            "velocity": 127
        },
        {
            "track": 1,
            "channel": 0,
            "program": 1,
            "start_tick": 41088,
            "end_tick": 41276,
            "pitch": 69,
            "velocity": 127
        },
        {
            "track": 2,
            "channel": 1,
            "program": 38,
            "start_tick": 41088,
            "end_tick": 41372,
            "pitch": 40,
            "velocity": 96
        },
        {
            "track": 4,
            "channel": 3,
            "program": 80,
            "start_tick": 41088,
            "end_tick": 41372,
            "pitch": 76,
            "velocity": 64
        },
        {
            "track": 5,
            "channel": 2,
            "program": 63,
            "start_tick": 41088,
            "end_tick": 41372,
            "pitch": 57,
            "velocity": 32
        },
        {
            "track": 5,
            "channel": 2,
            "program": 63,
            "start_tick": 41088,
            "end_tick": 41372,
            "pitch": 62,
            "velocity": 32
        },
        {
            "track": 9,
            "channel": 9,
            "program": null,
            "start_tick": 41088,
            "end_tick": 41276,
            "pitch": 38,
            "velocity": 127
        },
        {
            "track": 1,
            "channel": 0,
            "program": 1,
            "start_tick": 41280,
            "end_tick": 41468,
            "pitch": 72,
            "velocity": 127
        },
        {
            "track": 1,
            "channel": 0,
            "program": 1,
            "start_tick": 41472,
            "end_tick": 43964,
            "pitch": 76,
            "velocity": 127
        },
        {
            "track": 2,
            "channel": 1,
            "program": 38,
            "start_tick": 41472,
            "end_tick": 42044,
            "pitch": 33,
            "velocity": 96
        },
        {
            "track": 4,
            "channel": 3,
            "program": 80,
            "start_tick": 41472,
            "end_tick": 42044,
            "pitch": 69,
            "velocity": 64
        },
        {
            "track": 5,
            "channel": 2,
            "program": 63,
            "start_tick": 41472,
            "end_tick": 42044,
            "pitch": 60,
            "velocity": 32
        },
        {
            "track": 5,
            "channel": 2,
            "program": 63,
            "start_tick": 41472,
            "end_tick": 42044,
            "pitch": 57,
            "velocity": 32
        },
        {
            "track": 9,
            "channel": 9,
            "program": null,
            "start_tick": 41472,
            "end_tick": 41660,
            "pitch": 35,
            "velocity": 127
        },
        {
            "track": 9,
            "channel": 9,
            "program": null,
            "start_tick": 41856,
            "end_tick": 42044,
            "pitch": 38,
            "velocity": 127
        },
        {
            "track": 2,
            "channel": 1,
            "program": 38,
            "start_tick": 42048,
            "end_tick": 42620,
            "pitch": 35,
            "velocity": 96
        },
        {
            "track": 4,
            "channel": 3,
            "program": 80,
            "start_tick": 42048,
            "end_tick": 42620,
            "pitch": 71,
            "velocity": 64
        },
        {
            "track": 5,
            "channel": 2,
            "program": 63,
            "start_tick": 42048,
            "end_tick": 42620,
            "pitch": 60,
            "velocity": 32
        },
        {
            "track": 5,
            "channel": 2,
            "program": 63,
            "start_tick": 42048,
            "end_tick": 42620,
            "pitch": 57,
            "velocity": 32
        },
        {
            "track": 9,
            "channel": 9,
            "program": null,
            "start_tick": 42048,
            "end_tick": 42236,
            "pitch": 35,
            "velocity": 127
        },
        {
            "track": 9,
            "channel": 9,
            "program": null,
            "start_tick": 42432,
            "end_tick": 42620,
            "pitch": 35,
            "velocity": 127
        },
        {
            "track": 2,
            "channel": 1,
            "program": 38,
            "start_tick": 42624,
            "end_tick": 43196,
            "pitch": 36,
            "velocity": 96
        },
        {
            "track": 4,
            "channel": 3,
            "program": 80,
            "start_tick": 42624,
            "end_tick": 43196,
            "pitch": 72,
            "velocity": 64
        },
        {
            "track": 5,
            "channel": 2,
            "program": 63,
            "start_tick": 42624,
            "end_tick": 43196,
            "pitch": 57,
            "velocity": 32
        },
        {
            "track": 5,
            "channel": 2,
            "program": 63,
            "start_tick": 42624,
            "end_tick": 43196,
            "pitch": 60,
            "velocity": 32
        },
        {
            "track": 9,
            "channel": 9,
            "program": null,
            "start_tick": 42624,
            "end_tick": 42812,
            "pitch": 38,
            "velocity": 127
        },
        {
            "track": 9,
            "channel": 9,
            "program": null,
            "start_tick": 43008,
            "end_tick": 43196,
            "pitch": 35,
            "velocity": 127
        },
        {
            "track": 2,
            "channel": 1,
            "program": 38,
            "start_tick": 43200,
            "end_tick": 43772,
            "pitch": 38,
            "velocity": 96
        },
        {
            "track": 4,
            "channel": 3,
            "program": 80,
            "start_tick": 43200,
            "end_tick": 43772,
            "pitch": 74,
            "velocity": 64
        },
        {
            "track": 5,
            "channel": 2,
            "program": 63,
            "start_tick": 43200,
            "end_tick": 43772,
            "pitch": 60,
            "velocity": 32
        },
        {
            "track": 5,
            "channel": 2,
            "program": 63,
            "start_tick": 43200,
            "end_tick": 43772,
            "pitch": 57,
            "velocity": 32
        },
        {
            "track": 9,
            "channel": 9,
            "program": null,
            "start_tick": 43392,
            "end_tick": 43580,
            "pitch": 38,
            "velocity": 127
        },
        {
            "track": 9,
            "channel": 9,
            "program": null,
            "start_tick": 43584,
            "end_tick": 43772,
            "pitch": 35,
            "velocity": 127
        },
        {
            "track": 2,
            "channel": 1,
            "program": 38,
            "start_tick": 43776,
            "end_tick": 44060,
            "pitch": 40,
            "velocity": 96
        },
        {
            "track": 4,
            "channel": 3,
            "program": 80,
            "start_tick": 43776,
            "end_tick": 44060,
            "pitch": 76,
            "velocity": 64
        },
        {
            "track": 5,
            "channel": 2,
            "program": 63,
            "start_tick": 43776,
            "end_tick": 44060,
            "pitch": 60,
            "velocity": 32
        },
        {
            "track": 5,
            "channel": 2,
            "program": 63,
            "start_tick": 43776,
            "end_tick": 44060,
            "pitch": 57,
            "velocity": 32
        },
        {
            "track": 1,
            "channel": 0,
            "program": 1,
            "start_tick": 43968,
            "end_tick": 44156,
            "pitch": 72,
            "velocity": 127
        },
        {
            "track": 9,
            "channel": 9,
            "program": null,
            "start_tick": 43968,
            "end_tick": 44156,
            "pitch": 35,
            "velocity": 127
        },
        {
            "track": 1,
            "channel": 0,
            "program": 1,
            "start_tick": 44160,
            "end_tick": 44348,
            "pitch": 72,
            "velocity": 127
        },
        {
            "track": 2,
            "channel": 1,
            "program": 38,
            "start_tick": 44160,
            "end_tick": 44444,
            "pitch": 45,
            "velocity": 96
        },
        {
            "track": 4,
            "channel": 3,
            "program": 80,
            "start_tick": 44160,
            "end_tick": 44444,
            "pitch": 81,
            "velocity": 64
        },
        {
            "track": 5,
            "channel": 2,
            "program": 63,
            "start_tick": 44160,
            "end_tick": 44444,
            "pitch": 57,
            "velocity": 32
        },
        {
            "track": 5,
            "channel": 2,
            "program": 63,
            "start_tick": 44160,
            "end_tick": 44444,
            "pitch": 60,
            "velocity": 32
        },
        {
            "track": 9,
            "channel": 9,
            "program": null,
            "start_tick": 44160,
            "end_tick": 44348,
            "pitch": 38,
            "velocity": 127
        },
        {
            "track": 1,
            "channel": 0,
            "program": 1,
            "start_tick": 44352,
            "end_tick": 44540,
            "pitch": 76,
            "velocity": 127
        },
        {
            "track": 1,
            "channel": 0,
            "program": 1,
            "start_tick": 44544,
            "end_tick": 47228,
            "pitch": 75,
            "velocity": 127
        },
        {
            "track": 2,
            "channel": 1,
            "program": 38,
            "start_tick": 44544,
            "end_tick": 45116,
            "pitch": 44,
            "velocity": 96
        },
        {
            "track": 4,
            "channel": 3,
            "program": 80,
            "start_tick": 44544,
            "end_tick": 45116,
            "pitch": 80,
            "velocity": 64
        },
        {
            "track": 5,
            "channel": 2,
            "program": 63,
            "start_tick": 44544,
            "end_tick": 45116,
            "pitch": 60,
            "velocity": 32
        },
        {
            "track": 5,
            "channel": 2,
            "program": 63,
            "start_tick": 44544,
            "end_tick": 45116,
            "pitch": 55,
            "velocity": 32
        },
        {
            "track": 9,
            "channel": 9,
            "program": null,
            "start_tick": 44544,
            "end_tick": 44732,
            "pitch": 35,
            "velocity": 127
        },
        {
            "track": 9,
            "channel": 9,
            "program": null,
            "start_tick": 44928,
            "end_tick": 45116,
            "pitch": 38,
            "velocity": 127
        },
        {
            "track": 2,
            "channel": 1,
            "program": 38,
            "start_tick": 45120,
            "end_tick": 45692,
            "pitch": 43,
            "velocity": 96
        },
        {
            "track": 4,
            "channel": 3,
            "program": 80,
            "start_tick": 45120,
            "end_tick": 45692,
            "pitch": 79,
            "velocity": 64
        },
        {
            "track": 5,
            "channel": 2,
            "program": 63,
            "start_tick": 45120,
            "end_tick": 45692,
            "pitch": 60,
            "velocity": 32
        },
        {
            "track": 5,
            "channel": 2,
            "program": 63,
            "start_tick": 45120,
            "end_tick": 45692,
            "pitch": 55,
            "velocity": 32
        },
        {
            "track": 9,
            "channel": 9,
            "program": null,
            "start_tick": 45120,
            "end_tick": 45308,
            "pitch": 35,
            "velocity": 127
        },
        {
            "track": 9,
            "channel": 9,
            "program": null,
            "start_tick": 45504,
            "end_tick": 45692,
            "pitch": 35,
            "velocity": 127
        },
        {
            "track": 2,
            "channel": 1,
            "program": 38,
            "start_tick": 45696,
            "end_tick": 46268,
            "pitch": 41,
            "velocity": 96
        },
        {
            "track": 4,
            "channel": 3,
            "program": 80,
            "start_tick": 45696,
            "end_tick": 46268,
            "pitch": 77,
            "velocity": 64
        },
        {
            "track": 5,
            "channel": 2,
            "program": 63,
            "start_tick": 45696,
            "end_tick": 46268,
            "pitch": 55,
            "velocity": 32
        },
        {
            "track": 5,
            "channel": 2,
            "program": 63,
            "start_tick": 45696,
            "end_tick": 46268,
            "pitch": 60,
            "velocity": 32
        },
        {
            "track": 9,
            "channel": 9,
            "program": null,
            "start_tick": 45696,
            "end_tick": 45884,
            "pitch": 38,
            "velocity": 127
        },
        {
            "track": 9,
            "channel": 9,
            "program": null,
            "start_tick": 46080,
            "end_tick": 46268,
            "pitch": 35,
            "velocity": 127
        },
        {
            "track": 2,
            "channel": 1,
            "program": 38,
            "start_tick": 46272,
            "end_tick": 46844,
            "pitch": 39,
            "velocity": 96
        },
        {
            "track": 4,
            "channel": 3,
            "program": 80,
            "start_tick": 46272,
            "end_tick": 46844,
            "pitch": 75,
            "velocity": 64
        },
        {
            "track": 5,
            "channel": 2,
            "program": 63,
            "start_tick": 46272,
            "end_tick": 46844,
            "pitch": 60,
            "velocity": 32
        },
        {
            "track": 5,
            "channel": 2,
            "program": 63,
            "start_tick": 46272,
            "end_tick": 46844,
            "pitch": 55,
            "velocity": 32
        },
        {
            "track": 9,
            "channel": 9,
            "program": null,
            "start_tick": 46464,
            "end_tick": 46652,
            "pitch": 38,
            "velocity": 127
        },
        {
            "track": 9,
            "channel": 9,
            "program": null,
            "start_tick": 46656,
            "end_tick": 46844,
            "pitch": 35,
            "velocity": 127
        },
        {
            "track": 2,
            "channel": 1,
            "program": 38,
            "start_tick": 46848,
            "end_tick": 47132,
            "pitch": 38,
            "velocity": 96
        },
        {
            "track": 4,
            "channel": 3,
            "program": 80,
            "start_tick": 46848,
            "end_tick": 47132,
            "pitch": 74,
            "velocity": 64
        },
        {
            "track": 5,
            "channel": 2,
            "program": 63,
            "start_tick": 46848,
            "end_tick": 47132,
            "pitch": 60,
            "velocity": 32
        },
        {
            "track": 5,
            "channel": 2,
            "program": 63,
            "start_tick": 46848,
            "end_tick": 47132,
            "pitch": 55,
            "velocity": 32
        },
        {
            "track": 9,
            "channel": 9,
            "program": null,
            "start_tick": 47040,
            "end_tick": 47228,
            "pitch": 35,
            "velocity": 127
        },
        {
            "track": 1,
            "channel": 0,
            "program": 1,
            "start_tick": 47232,
            "end_tick": 47420,
            "pitch": 72,
            "velocity": 127
        },
        {
            "track": 2,
            "channel": 1,
            "program": 38,
            "start_tick": 47232,
            "end_tick": 47516,
            "pitch": 36,
            "velocity": 96
        },
        {
            "track": 4,
            "channel": 3,
            "program": 80,
            "start_tick": 47232,
            "end_tick": 47516,
            "pitch": 72,
            "velocity": 64
        },
        {
            "track": 5,
            "channel": 2,
            "program": 63,
            "start_tick": 47232,
            "end_tick": 47516,
            "pitch": 55,
            "velocity": 32
        },
        {
            "track": 5,
            "channel": 2,
            "program": 63,
            "start_tick": 47232,
            "end_tick": 47516,
            "pitch": 60,
            "velocity": 32
        },
        {
            "track": 9,
            "channel": 9,
            "program": null,
            "start_tick": 47232,
            "end_tick": 47420,
            "pitch": 38,
            "velocity": 127
        },
        {
            "track": 1,
            "channel": 0,
            "program": 1,
            "start_tick": 47424,
            "end_tick": 47612,
            "pitch": 75,
            "velocity": 127
        },
        {
            "track": 1,
            "channel": 0,
            "program": 1,
            "start_tick": 47616,
            "end_tick": 50684,
            "pitch": 74,
            "velocity": 127
        },
        {
            "track": 2,
            "channel": 1,
            "program": 38,
            "start_tick": 47616,
            "end_tick": 48188,
            "pitch": 31,
            "velocity": 96
        },
        {
            "track": 5,
            "channel": 2,
            "program": 63,
            "start_tick": 47616,
            "end_tick": 48188,
            "pitch": 69,
            "velocity": 32
        },
        {
            "track": 5,
            "channel": 2,
            "program": 63,
            "start_tick": 47616,
            "end_tick": 48188,
            "pitch": 65,
            "velocity": 32
        },
        {
            "track": 9,
            "channel": 9,
            "program": null,
            "start_tick": 47616,
            "end_tick": 47804,
            "pitch": 35,
            "velocity": 127
        },
        {
            "track": 4,
            "channel": 3,
            "program": 80,
            "start_tick": 47808,
            "end_tick": 47996,
            "pitch": 79,
            "velocity": 64
        },
        {
            "track": 4,
            "channel": 3,
            "program": 80,
            "start_tick": 48000,
            "end_tick": 48188,
            "pitch": 81,
            "velocity": 64
        },
        {
            "track": 9,
            "channel": 9,
            "program": null,
            "start_tick": 48000,
            "end_tick": 48188,
            "pitch": 38,
            "velocity": 127
        },
        {
            "track": 2,
            "channel": 1,
            "program": 38,
            "start_tick": 48192,
            "end_tick": 48764,
            "pitch": 38,
            "velocity": 96
        },
        {
            "track": 4,
            "channel": 3,
            "program": 80,
            "start_tick": 48192,
            "end_tick": 48572,
            "pitch": 79,
            "velocity": 64
        },
        {
            "track": 5,
            "channel": 2,
            "program": 63,
            "start_tick": 48192,
            "end_tick": 48764,
            "pitch": 69,
            "velocity": 32
        },
        {
            "track": 5,
            "channel": 2,
            "program": 63,
            "start_tick": 48192,
            "end_tick": 48764,
            "pitch": 65,
            "velocity": 32
        },
        {
            "track": 9,
            "channel": 9,
            "program": null,
            "start_tick": 48192,
            "end_tick": 48380,
            "pitch": 35,
            "velocity": 127
        },
        {
            "track": 4,
            "channel": 3,
            "program": 80,
            "start_tick": 48576,
            "end_tick": 48764,
            "pitch": 81,
            "velocity": 64
        },
        {
            "track": 9,
            "channel": 9,
            "program": null,
            "start_tick": 48576,
            "end_tick": 48764,
            "pitch": 35,
            "velocity": 127
        },
        {
            "track": 2,
            "channel": 1,
            "program": 38,
            "start_tick": 48768,
            "end_tick": 49148,
            "pitch": 31,
            "velocity": 96
        },
        {
            "track": 5,
            "channel": 2,
            "program": 63,
            "start_tick": 48768,
            "end_tick": 49340,
            "pitch": 65,
            "velocity": 32
        },
        {
            "track": 5,
            "channel": 2,
            "program": 63,
            "start_tick": 48768,
            "end_tick": 49340,
            "pitch": 69,
            "velocity": 32
        },
        {
            "track": 9,
            "channel": 9,
            "program": null,
            "start_tick": 48768,
            "end_tick": 48956,
            "pitch": 38,
            "velocity": 127
        },
        {
            "track": 4,
            "channel": 3,
            "program": 80,
            "start_tick": 48960,
            "end_tick": 49340,
            "pitch": 88,
            "velocity": 64
        },
        {
            "track": 2,
            "channel": 1,
            "program": 38,
            "start_tick": 49152,
            "end_tick": 49340,
            "pitch": 43,
            "velocity": 96
        },
        {
            "track": 9,
            "channel": 9,
            "program": null,
            "start_tick": 49152,
            "end_tick": 49340,
            "pitch": 35,
            "velocity": 127
        },
        {
            "track": 2,
            "channel": 1,
            "program": 38,
            "start_tick": 49344,
            "end_tick": 49532,
            "pitch": 31,
            "velocity": 96
        },
        {
            "track": 4,
            "channel": 3,
            "program": 80,
            "start_tick": 49344,
            "end_tick": 49532,
            "pitch": 88,
            "velocity": 64
        },
        {
            "track": 5,
            "channel": 2,
            "program": 63,
            "start_tick": 49344,
            "end_tick": 49916,
            "pitch": 69,
            "velocity": 32
        },
        {
            "track": 5,
            "channel": 2,
            "program": 63,
            "start_tick": 49344,
            "end_tick": 49916,
            "pitch": 65,
            "velocity": 32
        },
        {
            "track": 2,
            "channel": 1,
            "program": 38,
            "start_tick": 49536,
            "end_tick": 49724,
            "pitch": 33,
            "velocity": 96
        },
        {
            "track": 4,
            "channel": 3,
            "program": 80,
            "start_tick": 49536,
            "end_tick": 49724,
            "pitch": 89,
            "velocity": 64
        },
        {
            "track": 9,
            "channel": 9,
            "program": null,
            "start_tick": 49536,
            "end_tick": 49724,
            "pitch": 38,
            "velocity": 127
        },
        {
            "track": 2,
            "channel": 1,
            "program": 38,
            "start_tick": 49728,
            "end_tick": 49916,
            "pitch": 35,
            "velocity": 96
        },
        {
            "track": 4,
            "channel": 3,
            "program": 80,
            "start_tick": 49728,
            "end_tick": 49916,
            "pitch": 88,
            "velocity": 64
        },
        {
            "track": 9,
            "channel": 9,
            "program": null,
            "start_tick": 49728,
            "end_tick": 49916,
            "pitch": 35,
            "velocity": 127
        },
        {
            "track": 2,
            "channel": 1,
            "program": 38,
            "start_tick": 49920,
            "end_tick": 50108,
            "pitch": 36,
            "velocity": 96
        },
        {
            "track": 4,
            "channel": 3,
            "program": 80,
            "start_tick": 49920,
            "end_tick": 50108,
            "pitch": 91,
            "velocity": 64
        },
        {
            "track": 5,
            "channel": 2,
            "program": 63,
            "start_tick": 49920,
            "end_tick": 50204,
            "pitch": 69,
            "velocity": 32
        },
        {
            "track": 5,
            "channel": 2,
            "program": 63,
            "start_tick": 49920,
            "end_tick": 50204,
            "pitch": 65,
            "velocity": 32
        },
        {
            "track": 2,
            "channel": 1,
            "program": 38,
            "start_tick": 50112,
            "end_tick": 50300,
            "pitch": 38,
            "velocity": 96
        },
        {
            "track": 4,
            "channel": 3,
            "program": 80,
            "start_tick": 50112,
            "end_tick": 50300,
            "pitch": 88,
            "velocity": 64
        },
        {
            "track": 9,
            "channel": 9,
            "program": null,
            "start_tick": 50112,
            "end_tick": 50300,
            "pitch": 38,
            "velocity": 127
        },
        {
            "track": 2,
            "channel": 1,
            "program": 38,
            "start_tick": 50304,
            "end_tick": 50492,
            "pitch": 40,
            "velocity": 96
        },
        {
            "track": 4,
            "channel": 3,
            "program": 80,
            "start_tick": 50304,
            "end_tick": 50492,
            "pitch": 88,
            "velocity": 64
        },
        {
            "track": 5,
            "channel": 2,
            "program": 63,
            "start_tick": 50304,
            "end_tick": 50588,
            "pitch": 65,
            "velocity": 32
        },
        {
            "track": 5,
            "channel": 2,
            "program": 63,
            "start_tick": 50304,
            "end_tick": 50588,
            "pitch": 69,
            "velocity": 32
        },
        {
            "track": 9,
            "channel": 9,
            "program": null,
            "start_tick": 50304,
            "end_tick": 50492,
            "pitch": 38,
            "velocity": 127
        },
        {
            "track": 2,
            "channel": 1,
            "program": 38,
            "start_tick": 50496,
            "end_tick": 50684,
            "pitch": 41,
            "velocity": 96
        },
        {
            "track": 4,
            "channel": 3,
            "program": 80,
            "start_tick": 50496,
            "end_tick": 50684,
            "pitch": 84,
            "velocity": 64
        },
        {
            "track": 9,
            "channel": 9,
            "program": null,
            "start_tick": 50496,
            "end_tick": 50684,
            "pitch": 38,
            "velocity": 127
        },
        {
            "track": 2,
            "channel": 1,
            "program": 38,
            "start_tick": 50688,
            "end_tick": 50780,
            "pitch": 41,
            "velocity": 96
        },
        {
            "track": 5,
            "channel": 2,
            "program": 63,
            "start_tick": 50688,
            "end_tick": 51068,
            "pitch": 64,
            "velocity": 32
        },
        {
            "track": 9,
            "channel": 9,
            "program": null,
            "start_tick": 50688,
            "end_tick": 50876,
            "pitch": 35,
            "velocity": 127
        },
        {
            "track": 9,
            "channel": 9,
            "program": null,
            "start_tick": 50688,
            "end_tick": 51068,
            "pitch": 49,
            "velocity": 127
        },
        {
            "track": 2,
            "channel": 1,
            "program": 38,
            "start_tick": 50880,
            "end_tick": 50972,
            "pitch": 41,
            "velocity": 96
        },
        {
            "track": 2,
            "channel": 1,
            "program": 38,
            "start_tick": 51072,
            "end_tick": 51164,
            "pitch": 41,
            "velocity": 96
        },
        {
            "track": 5,
            "channel": 2,
            "program": 63,
            "start_tick": 51072,
            "end_tick": 51452,
            "pitch": 60,
            "velocity": 32
        },
        {
            "track": 8,
            "channel": 6,
            "program": 26,
            "start_tick": 51072,
            "end_tick": 51260,
            "pitch": 76,
            "velocity": 32
        },
        {
            "track": 8,
            "channel": 6,
            "program": 26,
            "start_tick": 51072,
            "end_tick": 51260,
            "pitch": 72,
            "velocity": 32
        },
        {
            "track": 9,
            "channel": 9,
            "program": null,
            "start_tick": 51072,
            "end_tick": 51260,
            "pitch": 38,
            "velocity": 127
        },
        {
            "track": 2,
            "channel": 1,
            "program": 38,
            "start_tick": 51264,
            "end_tick": 51356,
            "pitch": 41,
            "velocity": 96
        },
        {
            "track": 9,
            "channel": 9,
            "program": null,
            "start_tick": 51264,
            "end_tick": 51452,
            "pitch": 35,
            "velocity": 127
        },
        {
            "track": 1,
            "channel": 0,
            "program": 1,
            "start_tick": 51456,
            "end_tick": 51644,
            "pitch": 84,
            "velocity": 127
        },
        {
            "track": 2,
            "channel": 1,
            "program": 38,
            "start_tick": 51456,
            "end_tick": 51548,
            "pitch": 41,
            "velocity": 96
        },
        {
            "track": 5,
            "channel": 2,
            "program": 63,
            "start_tick": 51456,
            "end_tick": 51836,
            "pitch": 57,
            "velocity": 32
        },
        {
            "track": 1,
            "channel": 0,
            "program": 1,
            "start_tick": 51648,
            "end_tick": 52028,
            "pitch": 81,
            "velocity": 127
        },
        {
            "track": 2,
            "channel": 1,
            "program": 38,
            "start_tick": 51648,
            "end_tick": 51740,
            "pitch": 41,
            "velocity": 96
        },
        {
            "track": 8,
            "channel": 6,
            "program": 26,
            "start_tick": 51648,
            "end_tick": 52028,
            "pitch": 76,
            "velocity": 32
        },
        {
            "track": 8,
            "channel": 6,
            "program": 26,
            "start_tick": 51648,
            "end_tick": 52028,
            "pitch": 72,
            "velocity": 32
        },
        {
            "track": 9,
            "channel": 9,
            "program": null,
            "start_tick": 51648,
            "end_tick": 51836,
            "pitch": 35,
            "velocity": 127
        },
        {
            "track": 2,
            "channel": 1,
            "program": 38,
            "start_tick": 51840,
            "end_tick": 51932,
            "pitch": 41,
            "velocity": 96
        },
        {
            "track": 5,
            "channel": 2,
            "program": 63,
            "start_tick": 51840,
            "end_tick": 52220,
            "pitch": 53,
            "velocity": 32
        },
        {
            "track": 9,
            "channel": 9,
            "program": null,
            "start_tick": 51840,
            "end_tick": 52028,
            "pitch": 38,
            "velocity": 127
        },
        {
            "track": 1,
            "channel": 0,
            "program": 1,
            "start_tick": 52032,
            "end_tick": 52220,
            "pitch": 84,
            "velocity": 127
        },
        {
            "track": 2,
            "channel": 1,
            "program": 38,
            "start_tick": 52032,
            "end_tick": 52124,
            "pitch": 41,
            "velocity": 96
        },
        {
            "track": 1,
            "channel": 0,
            "program": 1,
            "start_tick": 52224,
            "end_tick": 52604,
            "pitch": 83,
            "velocity": 127
        },
        {
            "track": 2,
            "channel": 1,
            "program": 38,
            "start_tick": 52224,
            "end_tick": 52316,
            "pitch": 40,
            "velocity": 96
        },
        {
            "track": 5,
            "channel": 2,
            "program": 63,
            "start_tick": 52224,
            "end_tick": 52604,
            "pitch": 62,
            "velocity": 32
        },
        {
            "track": 9,
            "channel": 9,
            "program": null,
            "start_tick": 52224,
            "end_tick": 52412,
            "pitch": 35,
            "velocity": 127
        },
        {
            "track": 2,
            "channel": 1,
            "program": 38,
            "start_tick": 52416,
            "end_tick": 52508,
            "pitch": 40,
            "velocity": 96
        },
        {
            "track": 1,
            "channel": 0,
            "program": 1,
            "start_tick": 52608,
            "end_tick": 52796,
            "pitch": 84,
            "velocity": 127
        },
        {
            "track": 2,
            "channel": 1,
            "program": 38,
            "start_tick": 52608,
            "end_tick": 52700,
            "pitch": 40,
            "velocity": 96
        },
        {
            "track": 5,
            "channel": 2,
            "program": 63,
            "start_tick": 52608,
            "end_tick": 52988,
            "pitch": 59,
            "velocity": 32
        },
        {
            "track": 8,
            "channel": 6,
            "program": 26,
            "start_tick": 52608,
            "end_tick": 52796,
            "pitch": 74,
            "velocity": 32
        },
        {
            "track": 8,
            "channel": 6,
            "program": 26,
            "start_tick": 52608,
            "end_tick": 52796,
            "pitch": 71,
            "velocity": 32
        },
        {
            "track": 9,
            "channel": 9,
            "program": null,
            "start_tick": 52608,
            "end_tick": 52796,
            "pitch": 38,
            "velocity": 127
        },
        {
            "track": 1,
            "channel": 0,
            "program": 1,
            "start_tick": 52800,
            "end_tick": 53180,
            "pitch": 83,
            "velocity": 127
        },
        {
            "track": 2,
            "channel": 1,
            "program": 38,
            "start_tick": 52800,
            "end_tick": 52892,
            "pitch": 40,
            "velocity": 96
        },
        {
            "track": 9,
            "channel": 9,
            "program": null,
            "start_tick": 52800,
            "end_tick": 52988,
            "pitch": 35,
            "velocity": 127
        },
        {
            "track": 2,
            "channel": 1,
            "program": 38,
            "start_tick": 52992,
            "end_tick": 53084,
            "pitch": 40,
            "velocity": 96
        },
        {
            "track": 5,
            "channel": 2,
            "program": 63,
            "start_tick": 52992,
            "end_tick": 53372,
            "pitch": 55,
            "velocity": 32
        },
        {
            "track": 1,
            "channel": 0,
            "program": 1,
            "start_tick": 53184,
            "end_tick": 53564,
            "pitch": 79,
            "velocity": 127
        },
        {
            "track": 2,
            "channel": 1,
            "program": 38,
            "start_tick": 53184,
            "end_tick": 53372,
            "pitch": 36,
            "velocity": 96
        },
        {
            "track": 6,
            "channel": 4,
            "program": 81,
            "start_tick": 53184,
            "end_tick": 53372,
            "pitch": 81,
            "velocity": 64
        },
        {
            "track": 8,
            "channel": 6,
            "program": 26,
            "start_tick": 53184,
            "end_tick": 53564,
            "pitch": 74,
            "velocity": 32
        },
        {
            "track": 8,
            "channel": 6,
            "program": 26,
            "start_tick": 53184,
            "end_tick": 53564,
            "pitch": 71,
            "velocity": 32
        },
        {
            "track": 9,
            "channel": 9,
            "program": null,
            "start_tick": 53184,
            "end_tick": 53372,
            "pitch": 35,
            "velocity": 127
        },
        {
            "track": 2,
            "channel": 1,
            "program": 38,
            "start_tick": 53376,
            "end_tick": 53564,
            "pitch": 38,
            "velocity": 96
        },
        {
            "track": 5,
            "channel": 2,
            "program": 63,
            "start_tick": 53376,
            "end_tick": 53756,
            "pitch": 52,
            "velocity": 32
        },
        {
            "track": 6,
            "channel": 4,
            "program": 81,
            "start_tick": 53376,
            "end_tick": 53564,
            "pitch": 84,
            "velocity": 64
        },
        {
            "track": 9,
            "channel": 9,
            "program": null,
            "start_tick": 53376,
            "end_tick": 53564,
            "pitch": 38,
            "velocity": 127
        },
        {
            "track": 2,
            "channel": 1,
            "program": 38,
            "start_tick": 53568,
            "end_tick": 53756,
            "pitch": 40,
            "velocity": 96
        },
        {
            "track": 6,
            "channel": 4,
            "program": 81,
            "start_tick": 53568,
            "end_tick": 53756,
            "pitch": 81,
            "velocity": 64
        },
        {
            "track": 2,
            "channel": 1,
            "program": 38,
            "start_tick": 53760,
            "end_tick": 53852,
            "pitch": 41,
            "velocity": 96
        },
        {
            "track": 5,
            "channel": 2,
            "program": 63,
            "start_tick": 53760,
            "end_tick": 54140,
            "pitch": 64,
            "velocity": 32
        },
        {
            "track": 9,
            "channel": 9,
            "program": null,
            "start_tick": 53760,
            "end_tick": 53948,
            "pitch": 35,
            "velocity": 127
        },
        {
            "track": 2,
            "channel": 1,
            "program": 38,
            "start_tick": 53952,
            "end_tick": 54044,
            "pitch": 41,
            "velocity": 96
        },
        {
            "track": 2,
            "channel": 1,
            "program": 38,
            "start_tick": 54144,
            "end_tick": 54236,
            "pitch": 41,
            "velocity": 96
        },
        {
            "track": 5,
            "channel": 2,
            "program": 63,
            "start_tick": 54144,
            "end_tick": 54524,
            "pitch": 60,
            "velocity": 32
        },
        {
            "track": 8,
            "channel": 6,
            "program": 26,
            "start_tick": 54144,
            "end_tick": 54332,
            "pitch": 76,
            "velocity": 32
        },
        {
            "track": 8,
            "channel": 6,
            "program": 26,
            "start_tick": 54144,
            "end_tick": 54332,
            "pitch": 72,
            "velocity": 32
        },
        {
            "track": 9,
            "channel": 9,
            "program": null,
            "start_tick": 54144,
            "end_tick": 54332,
            "pitch": 38,
            "velocity": 127
        },
        {
            "track": 1,
            "channel": 0,
            "program": 1,
            "start_tick": 54336,
            "end_tick": 54524,
            "pitch": 79,
            "velocity": 127
        },
        {
            "track": 2,
            "channel": 1,
            "program": 38,
            "start_tick": 54336,
            "end_tick": 54428,
            "pitch": 41,
            "velocity": 96
        },
        {
            "track": 9,
            "channel": 9,
            "program": null,
            "start_tick": 54336,
            "end_tick": 54524,
            "pitch": 35,
            "velocity": 127
        },
        {
            "track": 1,
            "channel": 0,
            "program": 1,
            "start_tick": 54528,
            "end_tick": 54716,
            "pitch": 88,
            "velocity": 127
        },
        {
            "track": 2,
            "channel": 1,
            "program": 38,
            "start_tick": 54528,
            "end_tick": 54620,
            "pitch": 41,
            "velocity": 96
        },
        {
            "track": 5,
            "channel": 2,
            "program": 63,
            "start_tick": 54528,
            "end_tick": 54908,
            "pitch": 57,
            "velocity": 32
        },
        {
            "track": 1,
            "channel": 0,
            "program": 1,
            "start_tick": 54720,
            "end_tick": 55100,
            "pitch": 86,
            "velocity": 127
        },
        {
            "track": 2,
            "channel": 1,
            "program": 38,
            "start_tick": 54720,
            "end_tick": 54812,
            "pitch": 41,
            "velocity": 96
        },
        {
            "track": 8,
            "channel": 6,
            "program": 26,
            "start_tick": 54720,
            "end_tick": 55100,
            "pitch": 76,
            "velocity": 32
        },
        {
            "track": 8,
            "channel": 6,
            "program": 26,
            "start_tick": 54720,
            "end_tick": 55100,
            "pitch": 72,
            "velocity": 32
        },
        {
            "track": 9,
            "channel": 9,
            "program": null,
            "start_tick": 54720,
            "end_tick": 54908,
            "pitch": 35,
            "velocity": 127
        },
        {
            "track": 2,
            "channel": 1,
            "program": 38,
            "start_tick": 54912,
            "end_tick": 55004,
            "pitch": 41,
            "velocity": 96
        },
        {
            "track": 5,
            "channel": 2,
            "program": 63,
            "start_tick": 54912,
            "end_tick": 55292,
            "pitch": 53,
            "velocity": 32
        },
        {
            "track": 9,
            "channel": 9,
            "program": null,
            "start_tick": 54912,
            "end_tick": 55100,
            "pitch": 38,
            "velocity": 127
        },
        {
            "track": 1,
            "channel": 0,
            "program": 1,
            "start_tick": 55104,
            "end_tick": 55292,
            "pitch": 84,
            "velocity": 127
        },
        {
            "track": 2,
            "channel": 1,
            "program": 38,
            "start_tick": 55104,
            "end_tick": 55196,
            "pitch": 41,
            "velocity": 96
        },
        {
            "track": 1,
            "channel": 0,
            "program": 1,
            "start_tick": 55296,
            "end_tick": 55676,
            "pitch": 83,
            "velocity": 127
        },
        {
            "track": 2,
            "channel": 1,
            "program": 38,
            "start_tick": 55296,
            "end_tick": 55388,
            "pitch": 40,
            "velocity": 96
        },
        {
            "track": 5,
            "channel": 2,
            "program": 63,
            "start_tick": 55296,
            "end_tick": 55676,
            "pitch": 62,
            "velocity": 32
        },
        {
            "track": 9,
            "channel": 9,
            "program": null,
            "start_tick": 55296,
            "end_tick": 55484,
            "pitch": 35,
            "velocity": 127
        },
        {
            "track": 2,
            "channel": 1,
            "program": 38,
            "start_tick": 55488,
            "end_tick": 55580,
            "pitch": 40,
            "velocity": 96
        },
        {
            "track": 1,
            "channel": 0,
            "program": 1,
            "start_tick": 55680,
            "end_tick": 55868,
            "pitch": 84,
            "velocity": 127
        },
        {
            "track": 2,
            "channel": 1,
            "program": 38,
            "start_tick": 55680,
            "end_tick": 55772,
            "pitch": 40,
            "velocity": 96
        },
        {
            "track": 5,
            "channel": 2,
            "program": 63,
            "start_tick": 55680,
            "end_tick": 56060,
            "pitch": 59,
            "velocity": 32
        },
        {
            "track": 8,
            "channel": 6,
            "program": 26,
            "start_tick": 55680,
            "end_tick": 55868,
            "pitch": 74,
            "velocity": 32
        },
        {
            "track": 8,
            "channel": 6,
            "program": 26,
            "start_tick": 55680,
            "end_tick": 55868,
            "pitch": 71,
            "velocity": 32
        },
        {
            "track": 9,
            "channel": 9,
            "program": null,
            "start_tick": 55680,
            "end_tick": 55868,
            "pitch": 38,
            "velocity": 127
        },
        {
            "track": 1,
            "channel": 0,
            "program": 1,
            "start_tick": 55872,
            "end_tick": 56252,
            "pitch": 83,
            "velocity": 127
        },
        {
            "track": 2,
            "channel": 1,
            "program": 38,
            "start_tick": 55872,
            "end_tick": 55964,
            "pitch": 40,
            "velocity": 96
        },
        {
            "track": 9,
            "channel": 9,
            "program": null,
            "start_tick": 55872,
            "end_tick": 56060,
            "pitch": 35,
            "velocity": 127
        },
        {
            "track": 2,
            "channel": 1,
            "program": 38,
            "start_tick": 56064,
            "end_tick": 56156,
            "pitch": 40,
            "velocity": 96
        },
        {
            "track": 5,
            "channel": 2,
            "program": 63,
            "start_tick": 56064,
            "end_tick": 56444,
            "pitch": 55,
            "velocity": 32
        },
        {
            "track": 1,
            "channel": 0,
            "program": 1,
            "start_tick": 56256,
            "end_tick": 56636,
            "pitch": 79,
            "velocity": 127
        },
        {
            "track": 2,
            "channel": 1,
            "program": 38,
            "start_tick": 56256,
            "end_tick": 56444,
            "pitch": 36,
            "velocity": 96
        },
        {
            "track": 6,
            "channel": 4,
            "program": 81,
            "start_tick": 56256,
            "end_tick": 56444,
            "pitch": 81,
            "velocity": 64
        },
        {
            "track": 8,
            "channel": 6,
            "program": 26,
            "start_tick": 56256,
            "end_tick": 56636,
            "pitch": 74,
            "velocity": 32
        },
        {
            "track": 8,
            "channel": 6,
            "program": 26,
            "start_tick": 56256,
            "end_tick": 56636,
            "pitch": 71,
            "velocity": 32
        },
        {
            "track": 9,
            "channel": 9,
            "program": null,
            "start_tick": 56256,
            "end_tick": 56444,
            "pitch": 35,
            "velocity": 127
        },
        {
            "track": 2,
            "channel": 1,
            "program": 38,
            "start_tick": 56448,
            "end_tick": 56636,
            "pitch": 38,
            "velocity": 96
        },
        {
            "track": 5,
            "channel": 2,
            "program": 63,
            "start_tick": 56448,
            "end_tick": 56828,
            "pitch": 52,
            "velocity": 32
        },
        {
            "track": 6,
            "channel": 4,
            "program": 81,
            "start_tick": 56448,
            "end_tick": 56636,
            "pitch": 84,
            "velocity": 64
        },
        {
            "track": 9,
            "channel": 9,
            "program": null,
            "start_tick": 56448,
            "end_tick": 56636,
            "pitch": 38,
            "velocity": 127
        },
        {
            "track": 2,
            "channel": 1,
            "program": 38,
            "start_tick": 56640,
            "end_tick": 56828,
            "pitch": 40,
            "velocity": 96
        },
        {
            "track": 6,
            "channel": 4,
            "program": 81,
            "start_tick": 56640,
            "end_tick": 56828,
            "pitch": 88,
            "velocity": 64
        },
        {
            "track": 2,
            "channel": 1,
            "program": 38,
            "start_tick": 56832,
            "end_tick": 56924,
            "pitch": 41,
            "velocity": 96
        },
        {
            "track": 5,
            "channel": 2,
            "program": 63,
            "start_tick": 56832,
            "end_tick": 57212,
            "pitch": 64,
            "velocity": 32
        },
        {
            "track": 9,
            "channel": 9,
            "program": null,
            "start_tick": 56832,
            "end_tick": 57020,
            "pitch": 35,
            "velocity": 127
        },
        {
            "track": 2,
            "channel": 1,
            "program": 38,
            "start_tick": 57024,
            "end_tick": 57116,
            "pitch": 41,
            "velocity": 96
        },
        {
            "track": 2,
            "channel": 1,
            "program": 38,
            "start_tick": 57216,
            "end_tick": 57308,
            "pitch": 41,
            "velocity": 96
        },
        {
            "track": 5,
            "channel": 2,
            "program": 63,
            "start_tick": 57216,
            "end_tick": 57596,
            "pitch": 60,
            "velocity": 32
        },
        {
            "track": 8,
            "channel": 6,
            "program": 26,
            "start_tick": 57216,
            "end_tick": 57404,
            "pitch": 76,
            "velocity": 32
        },
        {
            "track": 8,
            "channel": 6,
            "program": 26,
            "start_tick": 57216,
            "end_tick": 57404,
            "pitch": 72,
            "velocity": 32
        },
        {
            "track": 9,
            "channel": 9,
            "program": null,
            "start_tick": 57216,
            "end_tick": 57404,
            "pitch": 38,
            "velocity": 127
        },
        {
            "track": 2,
            "channel": 1,
            "program": 38,
            "start_tick": 57408,
            "end_tick": 57500,
            "pitch": 41,
            "velocity": 96
        },
        {
            "track": 9,
            "channel": 9,
            "program": null,
            "start_tick": 57408,
            "end_tick": 57596,
            "pitch": 35,
            "velocity": 127
        },
        {
            "track": 1,
            "channel": 0,
            "program": 1,
            "start_tick": 57600,
            "end_tick": 57788,
            "pitch": 84,
            "velocity": 127
        },
        {
            "track": 2,
            "channel": 1,
            "program": 38,
            "start_tick": 57600,
            "end_tick": 57692,
            "pitch": 41,
            "velocity": 96
        },
        {
            "track": 5,
            "channel": 2,
            "program": 63,
            "start_tick": 57600,
            "end_tick": 57980,
            "pitch": 57,
            "velocity": 32
        },
        {
            "track": 1,
            "channel": 0,
            "program": 1,
            "start_tick": 57792,
            "end_tick": 58172,
            "pitch": 81,
            "velocity": 127
        },
        {
            "track": 2,
            "channel": 1,
            "program": 38,
            "start_tick": 57792,
            "end_tick": 57884,
            "pitch": 41,
            "velocity": 96
        },
        {
            "track": 8,
            "channel": 6,
            "program": 26,
            "start_tick": 57792,
            "end_tick": 58172,
            "pitch": 76,
            "velocity": 32
        },
        {
            "track": 8,
            "channel": 6,
            "program": 26,
            "start_tick": 57792,
            "end_tick": 58172,
            "pitch": 72,
            "velocity": 32
        },
        {
            "track": 9,
            "channel": 9,
            "program": null,
            "start_tick": 57792,
            "end_tick": 57980,
            "pitch": 35,
            "velocity": 127
        },
        {
            "track": 2,
            "channel": 1,
            "program": 38,
            "start_tick": 57984,
            "end_tick": 58076,
            "pitch": 41,
            "velocity": 96
        },
        {
            "track": 5,
            "channel": 2,
            "program": 63,
            "start_tick": 57984,
            "end_tick": 58364,
            "pitch": 53,
            "velocity": 32
        },
        {
            "track": 9,
            "channel": 9,
            "program": null,
            "start_tick": 57984,
            "end_tick": 58172,
            "pitch": 38,
            "velocity": 127
        },
        {
            "track": 1,
            "channel": 0,
            "program": 1,
            "start_tick": 58176,
            "end_tick": 58364,
            "pitch": 84,
            "velocity": 127
        },
        {
            "track": 2,
            "channel": 1,
            "program": 38,
            "start_tick": 58176,
            "end_tick": 58268,
            "pitch": 41,
            "velocity": 96
        },
        {
            "track": 1,
            "channel": 0,
            "program": 1,
            "start_tick": 58368,
            "end_tick": 58748,
            "pitch": 83,
            "velocity": 127
        },
        {
            "track": 2,
            "channel": 1,
            "program": 38,
            "start_tick": 58368,
            "end_tick": 58460,
            "pitch": 40,
            "velocity": 96
        },
        {
            "track": 5,
            "channel": 2,
            "program": 63,
            "start_tick": 58368,
            "end_tick": 58748,
            "pitch": 62,
            "velocity": 32
        },
        {
            "track": 9,
            "channel": 9,
            "program": null,
            "start_tick": 58368,
            "end_tick": 58556,
            "pitch": 35,
            "velocity": 127
        },
        {
            "track": 2,
            "channel": 1,
            "program": 38,
            "start_tick": 58560,
            "end_tick": 58652,
            "pitch": 40,
            "velocity": 96
        },
        {
            "track": 1,
            "channel": 0,
            "program": 1,
            "start_tick": 58752,
            "end_tick": 58940,
            "pitch": 84,
            "velocity": 127
        },
        {
            "track": 2,
            "channel": 1,
            "program": 38,
            "start_tick": 58752,
            "end_tick": 58844,
            "pitch": 40,
            "velocity": 96
        },
        {
            "track": 5,
            "channel": 2,
            "program": 63,
            "start_tick": 58752,
            "end_tick": 59132,
            "pitch": 59,
            "velocity": 32
        },
        {
            "track": 8,
            "channel": 6,
            "program": 26,
            "start_tick": 58752,
            "end_tick": 58940,
            "pitch": 74,
            "velocity": 32
        },
        {
            "track": 8,
            "channel": 6,
            "program": 26,
            "start_tick": 58752,
            "end_tick": 58940,
            "pitch": 71,
            "velocity": 32
        },
        {
            "track": 9,
            "channel": 9,
            "program": null,
            "start_tick": 58752,
            "end_tick": 58940,
            "pitch": 38,
            "velocity": 127
        },
        {
            "track": 1,
            "channel": 0,
            "program": 1,
            "start_tick": 58944,
            "end_tick": 59324,
            "pitch": 83,
            "velocity": 127
        },
        {
            "track": 2,
            "channel": 1,
            "program": 38,
            "start_tick": 58944,
            "end_tick": 59036,
            "pitch": 40,
            "velocity": 96
        },
        {
            "track": 9,
            "channel": 9,
            "program": null,
            "start_tick": 58944,
            "end_tick": 59132,
            "pitch": 35,
            "velocity": 127
        },
        {
            "track": 2,
            "channel": 1,
            "program": 38,
            "start_tick": 59136,
            "end_tick": 59228,
            "pitch": 40,
            "velocity": 96
        },
        {
            "track": 5,
            "channel": 2,
            "program": 63,
            "start_tick": 59136,
            "end_tick": 59516,
            "pitch": 55,
            "velocity": 32
        },
        {
            "track": 1,
            "channel": 0,
            "program": 1,
            "start_tick": 59328,
            "end_tick": 59708,
            "pitch": 79,
            "velocity": 127
        },
        {
            "track": 2,
            "channel": 1,
            "program": 38,
            "start_tick": 59328,
            "end_tick": 59420,
            "pitch": 40,
            "velocity": 96
        },
        {
            "track": 6,
            "channel": 4,
            "program": 81,
            "start_tick": 59328,
            "end_tick": 59516,
            "pitch": 81,
            "velocity": 64
        },
        {
            "track": 8,
            "channel": 6,
            "program": 26,
            "start_tick": 59328,
            "end_tick": 59708,
            "pitch": 74,
            "velocity": 32
        },
        {
            "track": 8,
            "channel": 6,
            "program": 26,
            "start_tick": 59328,
            "end_tick": 59708,
            "pitch": 71,
            "velocity": 32
        },
        {
            "track": 9,
            "channel": 9,
            "program": null,
            "start_tick": 59328,
            "end_tick": 59516,
            "pitch": 35,
            "velocity": 127
        },
        {
            "track": 2,
            "channel": 1,
            "program": 38,
            "start_tick": 59520,
            "end_tick": 59612,
            "pitch": 40,
            "velocity": 96
        },
        {
            "track": 5,
            "channel": 2,
            "program": 63,
            "start_tick": 59520,
            "end_tick": 59900,
            "pitch": 52,
            "velocity": 32
        },
        {
            "track": 6,
            "channel": 4,
            "program": 81,
            "start_tick": 59520,
            "end_tick": 59708,
            "pitch": 84,
            "velocity": 64
        },
        {
            "track": 9,
            "channel": 9,
            "program": null,
            "start_tick": 59520,
            "end_tick": 59708,
            "pitch": 38,
            "velocity": 127
        },
        {
            "track": 2,
            "channel": 1,
            "program": 38,
            "start_tick": 59712,
            "end_tick": 59804,
            "pitch": 40,
            "velocity": 96
        },
        {
            "track": 6,
            "channel": 4,
            "program": 81,
            "start_tick": 59712,
            "end_tick": 59900,
            "pitch": 81,
            "velocity": 64
        },
        {
            "track": 2,
            "channel": 1,
            "program": 38,
            "start_tick": 59904,
            "end_tick": 59996,
            "pitch": 38,
            "velocity": 96
        },
        {
            "track": 5,
            "channel": 2,
            "program": 63,
            "start_tick": 59904,
            "end_tick": 60284,
            "pitch": 60,
            "velocity": 32
        },
        {
            "track": 9,
            "channel": 9,
            "program": null,
            "start_tick": 59904,
            "end_tick": 60092,
            "pitch": 35,
            "velocity": 127
        },
        {
            "track": 2,
            "channel": 1,
            "program": 38,
            "start_tick": 60096,
            "end_tick": 60188,
            "pitch": 38,
            "velocity": 96
        },
        {
            "track": 2,
            "channel": 1,
            "program": 38,
            "start_tick": 60288,
            "end_tick": 60380,
            "pitch": 38,
            "velocity": 96
        },
        {
            "track": 5,
            "channel": 2,
            "program": 63,
            "start_tick": 60288,
            "end_tick": 60668,
            "pitch": 57,
            "velocity": 32
        },
        {
            "track": 8,
            "channel": 6,
            "program": 26,
            "start_tick": 60288,
            "end_tick": 60476,
            "pitch": 72,
            "velocity": 32
        },
        {
            "track": 8,
            "channel": 6,
            "program": 26,
            "start_tick": 60288,
            "end_tick": 60476,
            "pitch": 69,
            "velocity": 32
        },
        {
            "track": 9,
            "channel": 9,
            "program": null,
            "start_tick": 60288,
            "end_tick": 60476,
            "pitch": 38,
            "velocity": 127
        },
        {
            "track": 1,
            "channel": 0,
            "program": 1,
            "start_tick": 60480,
            "end_tick": 60668,
            "pitch": 81,
            "velocity": 127
        },
        {
            "track": 2,
            "channel": 1,
            "program": 38,
            "start_tick": 60480,
            "end_tick": 60572,
            "pitch": 38,
            "velocity": 96
        },
        {
            "track": 9,
            "channel": 9,
            "program": null,
            "start_tick": 60480,
            "end_tick": 60668,
            "pitch": 35,
            "velocity": 127
        },
        {
            "track": 1,
            "channel": 0,
            "program": 1,
            "start_tick": 60672,
            "end_tick": 60860,
            "pitch": 81,
            "velocity": 127
        },
        {
            "track": 2,
            "channel": 1,
            "program": 38,
            "start_tick": 60672,
            "end_tick": 60764,
            "pitch": 38,
            "velocity": 96
        },
        {
            "track": 5,
            "channel": 2,
            "program": 63,
            "start_tick": 60672,
            "end_tick": 61052,
            "pitch": 53,
            "velocity": 32
        },
        {
            "track": 1,
            "channel": 0,
            "program": 1,
            "start_tick": 60864,
            "end_tick": 61244,
            "pitch": 77,
            "velocity": 127
        },
        {
            "track": 2,
            "channel": 1,
            "program": 38,
            "start_tick": 60864,
            "end_tick": 60956,
            "pitch": 38,
            "velocity": 96
        },
        {
            "track": 8,
            "channel": 6,
            "program": 26,
            "start_tick": 60864,
            "end_tick": 61244,
            "pitch": 72,
            "velocity": 32
        },
        {
            "track": 8,
            "channel": 6,
            "program": 26,
            "start_tick": 60864,
            "end_tick": 61244,
            "pitch": 69,
            "velocity": 32
        },
        {
            "track": 9,
            "channel": 9,
            "program": null,
            "start_tick": 60864,
            "end_tick": 61052,
            "pitch": 35,
            "velocity": 127
        },
        {
            "track": 2,
            "channel": 1,
            "program": 38,
            "start_tick": 61056,
            "end_tick": 61148,
            "pitch": 38,
            "velocity": 96
        },
        {
            "track": 5,
            "channel": 2,
            "program": 63,
            "start_tick": 61056,
            "end_tick": 61436,
            "pitch": 50,
            "velocity": 32
        },
        {
            "track": 9,
            "channel": 9,
            "program": null,
            "start_tick": 61056,
            "end_tick": 61244,
            "pitch": 38,
            "velocity": 127
        },
        {
            "track": 1,
            "channel": 0,
            "program": 1,
            "start_tick": 61248,
            "end_tick": 61436,
            "pitch": 81,
            "velocity": 127
        },
        {
            "track": 2,
            "channel": 1,
            "program": 38,
            "start_tick": 61248,
            "end_tick": 61340,
            "pitch": 38,
            "velocity": 96
        },
        {
            "track": 1,
            "channel": 0,
            "program": 1,
            "start_tick": 61440,
            "end_tick": 61820,
            "pitch": 79,
            "velocity": 127
        },
        {
            "track": 2,
            "channel": 1,
            "program": 38,
            "start_tick": 61440,
            "end_tick": 61532,
            "pitch": 36,
            "velocity": 96
        },
        {
            "track": 5,
            "channel": 2,
            "program": 63,
            "start_tick": 61440,
            "end_tick": 61820,
            "pitch": 59,
            "velocity": 32
        },
        {
            "track": 9,
            "channel": 9,
            "program": null,
            "start_tick": 61440,
            "end_tick": 61628,
            "pitch": 35,
            "velocity": 127
        },
        {
            "track": 2,
            "channel": 1,
            "program": 38,
            "start_tick": 61632,
            "end_tick": 61724,
            "pitch": 36,
            "velocity": 96
        },
        {
            "track": 1,
            "channel": 0,
            "program": 1,
            "start_tick": 61824,
            "end_tick": 62012,
            "pitch": 81,
            "velocity": 127
        },
        {
            "track": 2,
            "channel": 1,
            "program": 38,
            "start_tick": 61824,
            "end_tick": 61916,
            "pitch": 36,
            "velocity": 96
        },
        {
            "track": 5,
            "channel": 2,
            "program": 63,
            "start_tick": 61824,
            "end_tick": 62204,
            "pitch": 55,
            "velocity": 32
        },
        {
            "track": 8,
            "channel": 6,
            "program": 26,
            "start_tick": 61824,
            "end_tick": 62012,
            "pitch": 71,
            "velocity": 32
        },
        {
            "track": 8,
            "channel": 6,
            "program": 26,
            "start_tick": 61824,
            "end_tick": 62012,
            "pitch": 67,
            "velocity": 32
        },
        {
            "track": 9,
            "channel": 9,
            "program": null,
            "start_tick": 61824,
            "end_tick": 62012,
            "pitch": 38,
            "velocity": 127
        },
        {
            "track": 1,
            "channel": 0,
            "program": 1,
            "start_tick": 62016,
            "end_tick": 62396,
            "pitch": 79,
            "velocity": 127
        },
        {
            "track": 2,
            "channel": 1,
            "program": 38,
            "start_tick": 62016,
            "end_tick": 62108,
            "pitch": 36,
            "velocity": 96
        },
        {
            "track": 6,
            "channel": 4,
            "program": 81,
            "start_tick": 62016,
            "end_tick": 62108,
            "pitch": 84,
            "velocity": 64
        },
        {
            "track": 9,
            "channel": 9,
            "program": null,
            "start_tick": 62016,
            "end_tick": 62204,
            "pitch": 35,
            "velocity": 127
        },
        {
            "track": 2,
            "channel": 1,
            "program": 38,
            "start_tick": 62208,
            "end_tick": 62300,
            "pitch": 36,
            "velocity": 96
        },
        {
            "track": 6,
            "channel": 4,
            "program": 81,
            "start_tick": 62208,
            "end_tick": 62588,
            "pitch": 81,
            "velocity": 64
        },
        {
            "track": 1,
            "channel": 0,
            "program": 1,
            "start_tick": 62400,
            "end_tick": 62780,
            "pitch": 72,
            "velocity": 127
        },
        {
            "track": 2,
            "channel": 1,
            "program": 38,
            "start_tick": 62400,
            "end_tick": 62588,
            "pitch": 36,
            "velocity": 96
        },
        {
            "track": 8,
            "channel": 6,
            "program": 26,
            "start_tick": 62400,
            "end_tick": 62780,
            "pitch": 71,
            "velocity": 32
        },
        {
            "track": 8,
            "channel": 6,
            "program": 26,
            "start_tick": 62400,
            "end_tick": 62780,
            "pitch": 67,
            "velocity": 32
        },
        {
            "track": 9,
            "channel": 9,
            "program": null,
            "start_tick": 62400,
            "end_tick": 62588,
            "pitch": 38,
            "velocity": 127
        },
        {
            "track": 2,
            "channel": 1,
            "program": 38,
            "start_tick": 62592,
            "end_tick": 62780,
            "pitch": 38,
            "velocity": 96
        },
        {
            "track": 6,
            "channel": 4,
            "program": 81,
            "start_tick": 62592,
            "end_tick": 62684,
            "pitch": 82,
            "velocity": 64
        },
        {
            "track": 9,
            "channel": 9,
            "program": null,
            "start_tick": 62592,
            "end_tick": 62780,
            "pitch": 38,
            "velocity": 127
        },
        {
            "track": 2,
            "channel": 1,
            "program": 38,
            "start_tick": 62784,
            "end_tick": 62972,
            "pitch": 40,
            "velocity": 96
        },
        {
            "track": 6,
            "channel": 4,
            "program": 81,
            "start_tick": 62784,
            "end_tick": 62876,
            "pitch": 83,
            "velocity": 64
        },
        {
            "track": 9,
            "channel": 9,
            "program": null,
            "start_tick": 62784,
            "end_tick": 62972,
            "pitch": 38,
            "velocity": 127
        },
        {
            "track": 2,
            "channel": 1,
            "program": 38,
            "start_tick": 62976,
            "end_tick": 63068,
            "pitch": 41,
            "velocity": 96
        },
        {
            "track": 5,
            "channel": 2,
            "program": 63,
            "start_tick": 62976,
            "end_tick": 63164,
            "pitch": 64,
            "velocity": 32
        },
        {
            "track": 6,
            "channel": 4,
            "program": 81,
            "start_tick": 62976,
            "end_tick": 63164,
            "pitch": 84,
            "velocity": 64
        },
        {
            "track": 7,
            "channel": 5,
            "program": 50,
            "start_tick": 62976,
            "end_tick": 64892,
            "pitch": 96,
            "velocity": 64
        },
        {
            "track": 9,
            "channel": 9,
            "program": null,
            "start_tick": 62976,
            "end_tick": 63164,
            "pitch": 35,
            "velocity": 127
        },
        {
            "track": 9,
            "channel": 9,
            "program": null,
            "start_tick": 62976,
            "end_tick": 63356,
            "pitch": 49,
            "velocity": 127
        },
        {
            "track": 2,
            "channel": 1,
            "program": 38,
            "start_tick": 63168,
            "end_tick": 63260,
            "pitch": 41,
            "velocity": 96
        },
        {
            "track": 5,
            "channel": 2,
            "program": 63,
            "start_tick": 63168,
            "end_tick": 63356,
            "pitch": 60,
            "velocity": 32
        },
        {
            "track": 2,
            "channel": 1,
            "program": 38,
            "start_tick": 63360,
            "end_tick": 63452,
            "pitch": 41,
            "velocity": 96
        },
        {
            "track": 8,
            "channel": 6,
            "program": 26,
            "start_tick": 63360,
            "end_tick": 63548,
            "pitch": 76,
            "velocity": 32
        },
        {
            "track": 8,
            "channel": 6,
            "program": 26,
            "start_tick": 63360,
            "end_tick": 63548,
            "pitch": 72,
            "velocity": 32
        },
        {
            "track": 9,
            "channel": 9,
            "program": null,
            "start_tick": 63360,
            "end_tick": 63548,
            "pitch": 38,
            "velocity": 127
        },
        {
            "track": 2,
            "channel": 1,
            "program": 38,
            "start_tick": 63552,
            "end_tick": 63644,
            "pitch": 41,
            "velocity": 96
        },
        {
            "track": 9,
            "channel": 9,
            "program": null,
            "start_tick": 63552,
            "end_tick": 63740,
            "pitch": 35,
            "velocity": 127
        },
        {
            "track": 1,
            "channel": 0,
            "program": 1,
            "start_tick": 63744,
            "end_tick": 63932,
            "pitch": 84,
            "velocity": 127
        },
        {
            "track": 2,
            "channel": 1,
            "program": 38,
            "start_tick": 63744,
            "end_tick": 63836,
            "pitch": 41,
            "velocity": 96
        },
        {
            "track": 1,
            "channel": 0,
            "program": 1,
            "start_tick": 63936,
            "end_tick": 64316,
            "pitch": 81,
            "velocity": 127
        },
        {
            "track": 2,
            "channel": 1,
            "program": 38,
            "start_tick": 63936,
            "end_tick": 64028,
            "pitch": 41,
            "velocity": 96
        },
        {
            "track": 8,
            "channel": 6,
            "program": 26,
            "start_tick": 63936,
            "end_tick": 64316,
            "pitch": 76,
            "velocity": 32
        },
        {
            "track": 8,
            "channel": 6,
            "program": 26,
            "start_tick": 63936,
            "end_tick": 64316,
            "pitch": 72,
            "velocity": 32
        },
        {
            "track": 9,
            "channel": 9,
            "program": null,
            "start_tick": 63936,
            "end_tick": 64124,
            "pitch": 35,
            "velocity": 127
        },
        {
            "track": 2,
            "channel": 1,
            "program": 38,
            "start_tick": 64128,
            "end_tick": 64220,
            "pitch": 41,
            "velocity": 96
        },
        {
            "track": 5,
            "channel": 2,
            "program": 63,
            "start_tick": 64128,
            "end_tick": 64316,
            "pitch": 64,
            "velocity": 32
        },
        {
            "track": 9,
            "channel": 9,
            "program": null,
            "start_tick": 64128,
            "end_tick": 64316,
            "pitch": 38,
            "velocity": 127
        },
        {
            "track": 1,
            "channel": 0,
            "program": 1,
            "start_tick": 64320,
            "end_tick": 64508,
            "pitch": 84,
            "velocity": 127
        },
        {
            "track": 2,
            "channel": 1,
            "program": 38,
            "start_tick": 64320,
            "end_tick": 64412,
            "pitch": 41,
            "velocity": 96
        },
        {
            "track": 5,
            "channel": 2,
            "program": 63,
            "start_tick": 64320,
            "end_tick": 64508,
            "pitch": 60,
            "velocity": 32
        },
        {
            "track": 1,
            "channel": 0,
            "program": 1,
            "start_tick": 64512,
            "end_tick": 64892,
            "pitch": 83,
            "velocity": 127
        },
        {
            "track": 2,
            "channel": 1,
            "program": 38,
            "start_tick": 64512,
            "end_tick": 64604,
            "pitch": 40,
            "velocity": 96
        },
        {
            "track": 5,
            "channel": 2,
            "program": 63,
            "start_tick": 64512,
            "end_tick": 64700,
            "pitch": 62,
            "velocity": 32
        },
        {
            "track": 9,
            "channel": 9,
            "program": null,
            "start_tick": 64512,
            "end_tick": 64700,
            "pitch": 35,
            "velocity": 127
        },
        {
            "track": 2,
            "channel": 1,
            "program": 38,
            "start_tick": 64704,
            "end_tick": 64796,
            "pitch": 40,
            "velocity": 96
        },
        {
            "track": 5,
            "channel": 2,
            "program": 63,
            "start_tick": 64704,
            "end_tick": 64892,
            "pitch": 59,
            "velocity": 32
        },
        {
            "track": 1,
            "channel": 0,
            "program": 1,
            "start_tick": 64896,
            "end_tick": 65084,
            "pitch": 84,
            "velocity": 127
        },
        {
            "track": 2,
            "channel": 1,
            "program": 38,
            "start_tick": 64896,
            "end_tick": 64988,
            "pitch": 40,
            "velocity": 96
        },
        {
            "track": 7,
            "channel": 5,
            "program": 50,
            "start_tick": 64896,
            "end_tick": 65276,
            "pitch": 98,
            "velocity": 64
        },
        {
            "track": 8,
            "channel": 6,
            "program": 26,
            "start_tick": 64896,
            "end_tick": 65084,
            "pitch": 74,
            "velocity": 32
        },
        {
            "track": 8,
            "channel": 6,
            "program": 26,
            "start_tick": 64896,
            "end_tick": 65084,
            "pitch": 71,
            "velocity": 32
        },
        {
            "track": 9,
            "channel": 9,
            "program": null,
            "start_tick": 64896,
            "end_tick": 65084,
            "pitch": 38,
            "velocity": 127
        },
        {
            "track": 1,
            "channel": 0,
            "program": 1,
            "start_tick": 65088,
            "end_tick": 65468,
            "pitch": 83,
            "velocity": 127
        },
        {
            "track": 2,
            "channel": 1,
            "program": 38,
            "start_tick": 65088,
            "end_tick": 65180,
            "pitch": 40,
            "velocity": 96
        },
        {
            "track": 9,
            "channel": 9,
            "program": null,
            "start_tick": 65088,
            "end_tick": 65276,
            "pitch": 35,
            "velocity": 127
        },
        {
            "track": 2,
            "channel": 1,
            "program": 38,
            "start_tick": 65280,
            "end_tick": 65372,
            "pitch": 40,
            "velocity": 96
        },
        {
            "track": 7,
            "channel": 5,
            "program": 50,
            "start_tick": 65280,
            "end_tick": 66044,
            "pitch": 95,
            "velocity": 64
        },
        {
            "track": 1,
            "channel": 0,
            "program": 1,
            "start_tick": 65472,
            "end_tick": 65852,
            "pitch": 79,
            "velocity": 127
        },
        {
            "track": 2,
            "channel": 1,
            "program": 38,
            "start_tick": 65472,
            "end_tick": 65660,
            "pitch": 36,
            "velocity": 96
        },
        {
            "track": 6,
            "channel": 4,
            "program": 81,
            "start_tick": 65472,
            "end_tick": 65660,
            "pitch": 81,
            "velocity": 64
        },
        {
            "track": 8,
            "channel": 6,
            "program": 26,
            "start_tick": 65472,
            "end_tick": 65852,
            "pitch": 74,
            "velocity": 32
        },
        {
            "track": 8,
            "channel": 6,
            "program": 26,
            "start_tick": 65472,
            "end_tick": 65852,
            "pitch": 71,
            "velocity": 32
        },
        {
            "track": 9,
            "channel": 9,
            "program": null,
            "start_tick": 65472,
            "end_tick": 65660,
            "pitch": 35,
            "velocity": 127
        },
        {
            "track": 2,
            "channel": 1,
            "program": 38,
            "start_tick": 65664,
            "end_tick": 65852,
            "pitch": 38,
            "velocity": 96
        },
        {
            "track": 6,
            "channel": 4,
            "program": 81,
            "start_tick": 65664,
            "end_tick": 65852,
            "pitch": 84,
            "velocity": 64
        },
        {
            "track": 9,
            "channel": 9,
            "program": null,
            "start_tick": 65664,
            "end_tick": 65852,
            "pitch": 38,
            "velocity": 127
        },
        {
            "track": 2,
            "channel": 1,
            "program": 38,
            "start_tick": 65856,
            "end_tick": 66044,
            "pitch": 40,
            "velocity": 96
        },
        {
            "track": 6,
            "channel": 4,
            "program": 81,
            "start_tick": 65856,
            "end_tick": 66044,
            "pitch": 81,
            "velocity": 64
        },
        {
            "track": 2,
            "channel": 1,
            "program": 38,
            "start_tick": 66048,
            "end_tick": 66140,
            "pitch": 41,
            "velocity": 96
        },
        {
            "track": 5,
            "channel": 2,
            "program": 63,
            "start_tick": 66048,
            "end_tick": 66236,
            "pitch": 64,
            "velocity": 32
        },
        {
            "track": 7,
            "channel": 5,
            "program": 50,
            "start_tick": 66048,
            "end_tick": 67964,
            "pitch": 96,
            "velocity": 64
        },
        {
            "track": 9,
            "channel": 9,
            "program": null,
            "start_tick": 66048,
            "end_tick": 66236,
            "pitch": 35,
            "velocity": 127
        },
        {
            "track": 2,
            "channel": 1,
            "program": 38,
            "start_tick": 66240,
            "end_tick": 66332,
            "pitch": 41,
            "velocity": 96
        },
        {
            "track": 5,
            "channel": 2,
            "program": 63,
            "start_tick": 66240,
            "end_tick": 66428,
            "pitch": 60,
            "velocity": 32
        },
        {
            "track": 2,
            "channel": 1,
            "program": 38,
            "start_tick": 66432,
            "end_tick": 66524,
            "pitch": 41,
            "velocity": 96
        },
        {
            "track": 8,
            "channel": 6,
            "program": 26,
            "start_tick": 66432,
            "end_tick": 66620,
            "pitch": 76,
            "velocity": 32
        },
        {
            "track": 8,
            "channel": 6,
            "program": 26,
            "start_tick": 66432,
            "end_tick": 66620,
            "pitch": 72,
            "velocity": 32
        },
        {
            "track": 9,
            "channel": 9,
            "program": null,
            "start_tick": 66432,
            "end_tick": 66620,
            "pitch": 38,
            "velocity": 127
        },
        {
            "track": 1,
            "channel": 0,
            "program": 1,
            "start_tick": 66624,
            "end_tick": 66812,
            "pitch": 79,
            "velocity": 127
        },
        {
            "track": 2,
            "channel": 1,
            "program": 38,
            "start_tick": 66624,
            "end_tick": 66716,
            "pitch": 41,
            "velocity": 96
        },
        {
            "track": 9,
            "channel": 9,
            "program": null,
            "start_tick": 66624,
            "end_tick": 66812,
            "pitch": 35,
            "velocity": 127
        },
        {
            "track": 1,
            "channel": 0,
            "program": 1,
            "start_tick": 66816,
            "end_tick": 67004,
            "pitch": 88,
            "velocity": 127
        },
        {
            "track": 2,
            "channel": 1,
            "program": 38,
            "start_tick": 66816,
            "end_tick": 66908,
            "pitch": 41,
            "velocity": 96
        },
        {
            "track": 1,
            "channel": 0,
            "program": 1,
            "start_tick": 67008,
            "end_tick": 67388,
            "pitch": 86,
            "velocity": 127
        },
        {
            "track": 2,
            "channel": 1,
            "program": 38,
            "start_tick": 67008,
            "end_tick": 67100,
            "pitch": 41,
            "velocity": 96
        },
        {
            "track": 8,
            "channel": 6,
            "program": 26,
            "start_tick": 67008,
            "end_tick": 67388,
            "pitch": 76,
            "velocity": 32
        },
        {
            "track": 8,
            "channel": 6,
            "program": 26,
            "start_tick": 67008,
            "end_tick": 67388,
            "pitch": 72,
            "velocity": 32
        },
        {
            "track": 9,
            "channel": 9,
            "program": null,
            "start_tick": 67008,
            "end_tick": 67196,
            "pitch": 35,
            "velocity": 127
        },
        {
            "track": 2,
            "channel": 1,
            "program": 38,
            "start_tick": 67200,
            "end_tick": 67292,
            "pitch": 41,
            "velocity": 96
        },
        {
            "track": 5,
            "channel": 2,
            "program": 63,
            "start_tick": 67200,
            "end_tick": 67388,
            "pitch": 64,
            "velocity": 32
        },
        {
            "track": 9,
            "channel": 9,
            "program": null,
            "start_tick": 67200,
            "end_tick": 67388,
            "pitch": 38,
            "velocity": 127
        },
        {
            "track": 1,
            "channel": 0,
            "program": 1,
            "start_tick": 67392,
            "end_tick": 67580,
            "pitch": 84,
            "velocity": 127
        },
        {
            "track": 2,
            "channel": 1,
            "program": 38,
            "start_tick": 67392,
            "end_tick": 67484,
            "pitch": 41,
            "velocity": 96
        },
        {
            "track": 5,
            "channel": 2,
            "program": 63,
            "start_tick": 67392,
            "end_tick": 67580,
            "pitch": 60,
            "velocity": 32
        },
        {
            "track": 1,
            "channel": 0,
            "program": 1,
            "start_tick": 67584,
            "end_tick": 67964,
            "pitch": 83,
            "velocity": 127
        },
        {
            "track": 2,
            "channel": 1,
            "program": 38,
            "start_tick": 67584,
            "end_tick": 67676,
            "pitch": 40,
            "velocity": 96
        },
        {
            "track": 5,
            "channel": 2,
            "program": 63,
            "start_tick": 67584,
            "end_tick": 67772,
            "pitch": 62,
            "velocity": 32
        },
        {
            "track": 9,
            "channel": 9,
            "program": null,
            "start_tick": 67584,
            "end_tick": 67772,
            "pitch": 35,
            "velocity": 127
        },
        {
            "track": 2,
            "channel": 1,
            "program": 38,
            "start_tick": 67776,
            "end_tick": 67868,
            "pitch": 40,
            "velocity": 96
        },
        {
            "track": 5,
            "channel": 2,
            "program": 63,
            "start_tick": 67776,
            "end_tick": 67964,
            "pitch": 59,
            "velocity": 32
        },
        {
            "track": 1,
            "channel": 0,
            "program": 1,
            "start_tick": 67968,
            "end_tick": 68156,
            "pitch": 84,
            "velocity": 127
        },
        {
            "track": 2,
            "channel": 1,
            "program": 38,
            "start_tick": 67968,
            "end_tick": 68060,
            "pitch": 40,
            "velocity": 96
        },
        {
            "track": 7,
            "channel": 5,
            "program": 50,
            "start_tick": 67968,
            "end_tick": 68348,
            "pitch": 95,
            "velocity": 64
        },
        {
            "track": 8,
            "channel": 6,
            "program": 26,
            "start_tick": 67968,
            "end_tick": 68156,
            "pitch": 74,
            "velocity": 32
        },
        {
            "track": 8,
            "channel": 6,
            "program": 26,
            "start_tick": 67968,
            "end_tick": 68156,
            "pitch": 71,
            "velocity": 32
        },
        {
            "track": 9,
            "channel": 9,
            "program": null,
            "start_tick": 67968,
            "end_tick": 68156,
            "pitch": 38,
            "velocity": 127
        },
        {
            "track": 1,
            "channel": 0,
            "program": 1,
            "start_tick": 68160,
            "end_tick": 68540,
            "pitch": 83,
            "velocity": 127
        },
        {
            "track": 2,
            "channel": 1,
            "program": 38,
            "start_tick": 68160,
            "end_tick": 68252,
            "pitch": 40,
            "velocity": 96
        },
        {
            "track": 9,
            "channel": 9,
            "program": null,
            "start_tick": 68160,
            "end_tick": 68348,
            "pitch": 35,
            "velocity": 127
        },
        {
            "track": 2,
            "channel": 1,
            "program": 38,
            "start_tick": 68352,
            "end_tick": 68444,
            "pitch": 40,
            "velocity": 96
        },
        {
            "track": 7,
            "channel": 5,
            "program": 50,
            "start_tick": 68352,
            "end_tick": 69116,
            "pitch": 91,
            "velocity": 64
        },
        {
            "track": 1,
            "channel": 0,
            "program": 1,
            "start_tick": 68544,
            "end_tick": 68924,
            "pitch": 79,
            "velocity": 127
        },
        {
            "track": 2,
            "channel": 1,
            "program": 38,
            "start_tick": 68544,
            "end_tick": 68732,
            "pitch": 36,
            "velocity": 96
        },
        {
            "track": 6,
            "channel": 4,
            "program": 81,
            "start_tick": 68544,
            "end_tick": 68732,
            "pitch": 81,
            "velocity": 64
        },
        {
            "track": 8,
            "channel": 6,
            "program": 26,
            "start_tick": 68544,
            "end_tick": 68924,
            "pitch": 74,
            "velocity": 32
        },
        {
            "track": 8,
            "channel": 6,
            "program": 26,
            "start_tick": 68544,
            "end_tick": 68924,
            "pitch": 71,
            "velocity": 32
        },
        {
            "track": 9,
            "channel": 9,
            "program": null,
            "start_tick": 68544,
            "end_tick": 68732,
            "pitch": 35,
            "velocity": 127
        },
        {
            "track": 2,
            "channel": 1,
            "program": 38,
            "start_tick": 68736,
            "end_tick": 68924,
            "pitch": 38,
            "velocity": 96
        },
        {
            "track": 6,
            "channel": 4,
            "program": 81,
            "start_tick": 68736,
            "end_tick": 68924,
            "pitch": 84,
            "velocity": 64
        },
        {
            "track": 9,
            "channel": 9,
            "program": null,
            "start_tick": 68736,
            "end_tick": 68924,
            "pitch": 38,
            "velocity": 127
        },
        {
            "track": 2,
            "channel": 1,
            "program": 38,
            "start_tick": 68928,
            "end_tick": 69116,
            "pitch": 40,
            "velocity": 96
        },
        {
            "track": 6,
            "channel": 4,
            "program": 81,
            "start_tick": 68928,
            "end_tick": 69116,
            "pitch": 88,
            "velocity": 64
        },
        {
            "track": 2,
            "channel": 1,
            "program": 38,
            "start_tick": 69120,
            "end_tick": 69212,
            "pitch": 41,
            "velocity": 96
        },
        {
            "track": 5,
            "channel": 2,
            "program": 63,
            "start_tick": 69120,
            "end_tick": 69308,
            "pitch": 64,
            "velocity": 32
        },
        {
            "track": 7,
            "channel": 5,
            "program": 50,
            "start_tick": 69120,
            "end_tick": 71036,
            "pitch": 96,
            "velocity": 64
        },
        {
            "track": 9,
            "channel": 9,
            "program": null,
            "start_tick": 69120,
            "end_tick": 69308,
            "pitch": 35,
            "velocity": 127
        },
        {
            "track": 2,
            "channel": 1,
            "program": 38,
            "start_tick": 69312,
            "end_tick": 69404,
            "pitch": 41,
            "velocity": 96
        },
        {
            "track": 5,
            "channel": 2,
            "program": 63,
            "start_tick": 69312,
            "end_tick": 69500,
            "pitch": 60,
            "velocity": 32
        },
        {
            "track": 2,
            "channel": 1,
            "program": 38,
            "start_tick": 69504,
            "end_tick": 69596,
            "pitch": 41,
            "velocity": 96
        },
        {
            "track": 8,
            "channel": 6,
            "program": 26,
            "start_tick": 69504,
            "end_tick": 69692,
            "pitch": 76,
            "velocity": 32
        },
        {
            "track": 8,
            "channel": 6,
            "program": 26,
            "start_tick": 69504,
            "end_tick": 69692,
            "pitch": 72,
            "velocity": 32
        },
        {
            "track": 9,
            "channel": 9,
            "program": null,
            "start_tick": 69504,
            "end_tick": 69692,
            "pitch": 38,
            "velocity": 127
        },
        {
            "track": 2,
            "channel": 1,
            "program": 38,
            "start_tick": 69696,
            "end_tick": 69788,
            "pitch": 41,
            "velocity": 96
        },
        {
            "track": 9,
            "channel": 9,
            "program": null,
            "start_tick": 69696,
            "end_tick": 69884,
            "pitch": 35,
            "velocity": 127
        },
        {
            "track": 1,
            "channel": 0,
            "program": 1,
            "start_tick": 69888,
            "end_tick": 70076,
            "pitch": 84,
            "velocity": 127
        },
        {
            "track": 2,
            "channel": 1,
            "program": 38,
            "start_tick": 69888,
            "end_tick": 69980,
            "pitch": 41,
            "velocity": 96
        },
        {
            "track": 1,
            "channel": 0,
            "program": 1,
            "start_tick": 70080,
            "end_tick": 70460,
            "pitch": 81,
            "velocity": 127
        },
        {
            "track": 2,
            "channel": 1,
            "program": 38,
            "start_tick": 70080,
            "end_tick": 70172,
            "pitch": 41,
            "velocity": 96
        },
        {
            "track": 8,
            "channel": 6,
            "program": 26,
            "start_tick": 70080,
            "end_tick": 70460,
            "pitch": 76,
            "velocity": 32
        },
        {
            "track": 8,
            "channel": 6,
            "program": 26,
            "start_tick": 70080,
            "end_tick": 70460,
            "pitch": 72,
            "velocity": 32
        },
        {
            "track": 9,
            "channel": 9,
            "program": null,
            "start_tick": 70080,
            "end_tick": 70268,
            "pitch": 35,
            "velocity": 127
        },
        {
            "track": 2,
            "channel": 1,
            "program": 38,
            "start_tick": 70272,
            "end_tick": 70364,
            "pitch": 41,
            "velocity": 96
        },
        {
            "track": 5,
            "channel": 2,
            "program": 63,
            "start_tick": 70272,
            "end_tick": 70460,
            "pitch": 64,
            "velocity": 32
        },
        {
            "track": 9,
            "channel": 9,
            "program": null,
            "start_tick": 70272,
            "end_tick": 70460,
            "pitch": 38,
            "velocity": 127
        },
        {
            "track": 1,
            "channel": 0,
            "program": 1,
            "start_tick": 70464,
            "end_tick": 70652,
            "pitch": 84,
            "velocity": 127
        },
        {
            "track": 2,
            "channel": 1,
            "program": 38,
            "start_tick": 70464,
            "end_tick": 70556,
            "pitch": 41,
            "velocity": 96
        },
        {
            "track": 5,
            "channel": 2,
            "program": 63,
            "start_tick": 70464,
            "end_tick": 70652,
            "pitch": 60,
            "velocity": 32
        },
        {
            "track": 1,
            "channel": 0,
            "program": 1,
            "start_tick": 70656,
            "end_tick": 71036,
            "pitch": 83,
            "velocity": 127
        },
        {
            "track": 2,
            "channel": 1,
            "program": 38,
            "start_tick": 70656,
            "end_tick": 70748,
            "pitch": 40,
            "velocity": 96
        },
        {
            "track": 5,
            "channel": 2,
            "program": 63,
            "start_tick": 70656,
            "end_tick": 70844,
            "pitch": 62,
            "velocity": 32
        },
        {
            "track": 9,
            "channel": 9,
            "program": null,
            "start_tick": 70656,
            "end_tick": 70844,
            "pitch": 35,
            "velocity": 127
        },
        {
            "track": 2,
            "channel": 1,
            "program": 38,
            "start_tick": 70848,
            "end_tick": 70940,
            "pitch": 40,
            "velocity": 96
        },
        {
            "track": 5,
            "channel": 2,
            "program": 63,
            "start_tick": 70848,
            "end_tick": 71036,
            "pitch": 59,
            "velocity": 32
        },
        {
            "track": 1,
            "channel": 0,
            "program": 1,
            "start_tick": 71040,
            "end_tick": 71228,
            "pitch": 84,
            "velocity": 127
        },
        {
            "track": 2,
            "channel": 1,
            "program": 38,
            "start_tick": 71040,
            "end_tick": 71132,
            "pitch": 40,
            "velocity": 96
        },
        {
            "track": 7,
            "channel": 5,
            "program": 50,
            "start_tick": 71040,
            "end_tick": 71420,
            "pitch": 98,
            "velocity": 64
        },
        {
            "track": 8,
            "channel": 6,
            "program": 26,
            "start_tick": 71040,
            "end_tick": 71228,
            "pitch": 74,
            "velocity": 32
        },
        {
            "track": 8,
            "channel": 6,
            "program": 26,
            "start_tick": 71040,
            "end_tick": 71228,
            "pitch": 71,
            "velocity": 32
        },
        {
            "track": 9,
            "channel": 9,
            "program": null,
            "start_tick": 71040,
            "end_tick": 71228,
            "pitch": 38,
            "velocity": 127
        },
        {
            "track": 1,
            "channel": 0,
            "program": 1,
            "start_tick": 71232,
            "end_tick": 71612,
            "pitch": 83,
            "velocity": 127
        },
        {
            "track": 2,
            "channel": 1,
            "program": 38,
            "start_tick": 71232,
            "end_tick": 71324,
            "pitch": 40,
            "velocity": 96
        },
        {
            "track": 9,
            "channel": 9,
            "program": null,
            "start_tick": 71232,
            "end_tick": 71420,
            "pitch": 35,
            "velocity": 127
        },
        {
            "track": 2,
            "channel": 1,
            "program": 38,
            "start_tick": 71424,
            "end_tick": 71516,
            "pitch": 40,
            "velocity": 96
        },
        {
            "track": 7,
            "channel": 5,
            "program": 50,
            "start_tick": 71424,
            "end_tick": 72188,
            "pitch": 95,
            "velocity": 64
        },
        {
            "track": 1,
            "channel": 0,
            "program": 1,
            "start_tick": 71616,
            "end_tick": 71996,
            "pitch": 79,
            "velocity": 127
        },
        {
            "track": 2,
            "channel": 1,
            "program": 38,
            "start_tick": 71616,
            "end_tick": 71708,
            "pitch": 40,
            "velocity": 96
        },
        {
            "track": 6,
            "channel": 4,
            "program": 81,
            "start_tick": 71616,
            "end_tick": 71804,
            "pitch": 81,
            "velocity": 64
        },
        {
            "track": 8,
            "channel": 6,
            "program": 26,
            "start_tick": 71616,
            "end_tick": 71996,
            "pitch": 74,
            "velocity": 32
        },
        {
            "track": 8,
            "channel": 6,
            "program": 26,
            "start_tick": 71616,
            "end_tick": 71996,
            "pitch": 71,
            "velocity": 32
        },
        {
            "track": 9,
            "channel": 9,
            "program": null,
            "start_tick": 71616,
            "end_tick": 71804,
            "pitch": 35,
            "velocity": 127
        },
        {
            "track": 2,
            "channel": 1,
            "program": 38,
            "start_tick": 71808,
            "end_tick": 71900,
            "pitch": 40,
            "velocity": 96
        },
        {
            "track": 6,
            "channel": 4,
            "program": 81,
            "start_tick": 71808,
            "end_tick": 71996,
            "pitch": 84,
            "velocity": 64
        },
        {
            "track": 9,
            "channel": 9,
            "program": null,
            "start_tick": 71808,
            "end_tick": 71996,
            "pitch": 38,
            "velocity": 127
        },
        {
            "track": 2,
            "channel": 1,
            "program": 38,
            "start_tick": 72000,
            "end_tick": 72092,
            "pitch": 40,
            "velocity": 96
        },
        {
            "track": 6,
            "channel": 4,
            "program": 81,
            "start_tick": 72000,
            "end_tick": 72188,
            "pitch": 81,
            "velocity": 64
        },
        {
            "track": 2,
            "channel": 1,
            "program": 38,
            "start_tick": 72192,
            "end_tick": 72284,
            "pitch": 38,
            "velocity": 96
        },
        {
            "track": 5,
            "channel": 2,
            "program": 63,
            "start_tick": 72192,
            "end_tick": 72380,
            "pitch": 60,
            "velocity": 32
        },
        {
            "track": 7,
            "channel": 5,
            "program": 50,
            "start_tick": 72192,
            "end_tick": 75260,
            "pitch": 96,
            "velocity": 64
        },
        {
            "track": 9,
            "channel": 9,
            "program": null,
            "start_tick": 72192,
            "end_tick": 72380,
            "pitch": 35,
            "velocity": 127
        },
        {
            "track": 2,
            "channel": 1,
            "program": 38,
            "start_tick": 72384,
            "end_tick": 72476,
            "pitch": 38,
            "velocity": 96
        },
        {
            "track": 5,
            "channel": 2,
            "program": 63,
            "start_tick": 72384,
            "end_tick": 72572,
            "pitch": 57,
            "velocity": 32
        },
        {
            "track": 2,
            "channel": 1,
            "program": 38,
            "start_tick": 72576,
            "end_tick": 72668,
            "pitch": 38,
            "velocity": 96
        },
        {
            "track": 8,
            "channel": 6,
            "program": 26,
            "start_tick": 72576,
            "end_tick": 72764,
            "pitch": 72,
            "velocity": 32
        },
        {
            "track": 8,
            "channel": 6,
            "program": 26,
            "start_tick": 72576,
            "end_tick": 72764,
            "pitch": 69,
            "velocity": 32
        },
        {
            "track": 9,
            "channel": 9,
            "program": null,
            "start_tick": 72576,
            "end_tick": 72764,
            "pitch": 38,
            "velocity": 127
        },
        {
            "track": 1,
            "channel": 0,
            "program": 1,
            "start_tick": 72768,
            "end_tick": 72956,
            "pitch": 81,
            "velocity": 127
        },
        {
            "track": 2,
            "channel": 1,
            "program": 38,
            "start_tick": 72768,
            "end_tick": 72860,
            "pitch": 38,
            "velocity": 96
        },
        {
            "track": 9,
            "channel": 9,
            "program": null,
            "start_tick": 72768,
            "end_tick": 72956,
            "pitch": 35,
            "velocity": 127
        },
        {
            "track": 1,
            "channel": 0,
            "program": 1,
            "start_tick": 72960,
            "end_tick": 73148,
            "pitch": 81,
            "velocity": 127
        },
        {
            "track": 2,
            "channel": 1,
            "program": 38,
            "start_tick": 72960,
            "end_tick": 73052,
            "pitch": 38,
            "velocity": 96
        },
        {
            "track": 1,
            "channel": 0,
            "program": 1,
            "start_tick": 73152,
            "end_tick": 73532,
            "pitch": 77,
            "velocity": 127
        },
        {
            "track": 2,
            "channel": 1,
            "program": 38,
            "start_tick": 73152,
            "end_tick": 73244,
            "pitch": 38,
            "velocity": 96
        },
        {
            "track": 8,
            "channel": 6,
            "program": 26,
            "start_tick": 73152,
            "end_tick": 73532,
            "pitch": 72,
            "velocity": 32
        },
        {
            "track": 8,
            "channel": 6,
            "program": 26,
            "start_tick": 73152,
            "end_tick": 73532,
            "pitch": 69,
            "velocity": 32
        },
        {
            "track": 9,
            "channel": 9,
            "program": null,
            "start_tick": 73152,
            "end_tick": 73340,
            "pitch": 35,
            "velocity": 127
        },
        {
            "track": 2,
            "channel": 1,
            "program": 38,
            "start_tick": 73344,
            "end_tick": 73436,
            "pitch": 38,
            "velocity": 96
        },
        {
            "track": 9,
            "channel": 9,
            "program": null,
            "start_tick": 73344,
            "end_tick": 73532,
            "pitch": 38,
            "velocity": 127
        },
        {
            "track": 1,
            "channel": 0,
            "program": 1,
            "start_tick": 73536,
            "end_tick": 73724,
            "pitch": 81,
            "velocity": 127
        },
        {
            "track": 2,
            "channel": 1,
            "program": 38,
            "start_tick": 73536,
            "end_tick": 73628,
            "pitch": 38,
            "velocity": 96
        },
        {
            "track": 1,
            "channel": 0,
            "program": 1,
            "start_tick": 73728,
            "end_tick": 74108,
            "pitch": 79,
            "velocity": 127
        },
        {
            "track": 2,
            "channel": 1,
            "program": 38,
            "start_tick": 73728,
            "end_tick": 73820,
            "pitch": 36,
            "velocity": 96
        },
        {
            "track": 9,
            "channel": 9,
            "program": null,
            "start_tick": 73728,
            "end_tick": 73916,
            "pitch": 35,
            "velocity": 127
        },
        {
            "track": 2,
            "channel": 1,
            "program": 38,
            "start_tick": 73920,
            "end_tick": 74012,
            "pitch": 36,
            "velocity": 96
        },
        {
            "track": 1,
            "channel": 0,
            "program": 1,
            "start_tick": 74112,
            "end_tick": 74300,
            "pitch": 81,
            "velocity": 127
        },
        {
            "track": 2,
            "channel": 1,
            "program": 38,
            "start_tick": 74112,
            "end_tick": 74204,
            "pitch": 36,
            "velocity": 96
        },
        {
            "track": 8,
            "channel": 6,
            "program": 26,
            "start_tick": 74112,
            "end_tick": 74300,
            "pitch": 71,
            "velocity": 32
        },
        {
            "track": 8,
            "channel": 6,
            "program": 26,
            "start_tick": 74112,
            "end_tick": 74300,
            "pitch": 67,
            "velocity": 32
        },
        {
            "track": 9,
            "channel": 9,
            "program": null,
            "start_tick": 74112,
            "end_tick": 74300,
            "pitch": 38,
            "velocity": 127
        },
        {
            "track": 1,
            "channel": 0,
            "program": 1,
            "start_tick": 74304,
            "end_tick": 74684,
            "pitch": 79,
            "velocity": 127
        },
        {
            "track": 2,
            "channel": 1,
            "program": 38,
            "start_tick": 74304,
            "end_tick": 74396,
            "pitch": 36,
            "velocity": 96
        },
        {
            "track": 6,
            "channel": 4,
            "program": 81,
            "start_tick": 74304,
            "end_tick": 74396,
            "pitch": 84,
            "velocity": 64
        },
        {
            "track": 9,
            "channel": 9,
            "program": null,
            "start_tick": 74304,
            "end_tick": 74492,
            "pitch": 35,
            "velocity": 127
        },
        {
            "track": 2,
            "channel": 1,
            "program": 38,
            "start_tick": 74496,
            "end_tick": 74588,
            "pitch": 36,
            "velocity": 96
        },
        {
            "track": 6,
            "channel": 4,
            "program": 81,
            "start_tick": 74496,
            "end_tick": 74876,
            "pitch": 81,
            "velocity": 64
        },
        {
            "track": 1,
            "channel": 0,
            "program": 1,
            "start_tick": 74688,
            "end_tick": 74876,
            "pitch": 72,
            "velocity": 127
        },
        {
            "track": 2,
            "channel": 1,
            "program": 38,
            "start_tick": 74688,
            "end_tick": 74780,
            "pitch": 36,
            "velocity": 96
        },
        {
            "track": 8,
            "channel": 6,
            "program": 26,
            "start_tick": 74688,
            "end_tick": 75068,
            "pitch": 71,
            "velocity": 32
        },
        {
            "track": 8,
            "channel": 6,
            "program": 26,
            "start_tick": 74688,
            "end_tick": 75068,
            "pitch": 67,
            "velocity": 32
        },
        {
            "track": 9,
            "channel": 9,
            "program": null,
            "start_tick": 74688,
            "end_tick": 74876,
            "pitch": 38,
            "velocity": 127
        },
        {
            "track": 1,
            "channel": 0,
            "program": 1,
            "start_tick": 74880,
            "end_tick": 75068,
            "pitch": 72,
            "velocity": 127
        },
        {
            "track": 2,
            "channel": 1,
            "program": 38,
            "start_tick": 74880,
            "end_tick": 74972,
            "pitch": 36,
            "velocity": 96
        },
        {
            "track": 6,
            "channel": 4,
            "program": 81,
            "start_tick": 74880,
            "end_tick": 74972,
            "pitch": 82,
            "velocity": 64
        },
        {
            "track": 9,
            "channel": 9,
            "program": null,
            "start_tick": 74880,
            "end_tick": 75068,
            "pitch": 38,
            "velocity": 127
        },
        {
            "track": 1,
            "channel": 0,
            "program": 1,
            "start_tick": 75072,
            "end_tick": 75260,
            "pitch": 76,
            "velocity": 127
        },
        {
            "track": 2,
            "channel": 1,
            "program": 38,
            "start_tick": 75072,
            "end_tick": 75164,
            "pitch": 36,
            "velocity": 96
        },
        {
            "track": 6,
            "channel": 4,
            "program": 81,
            "start_tick": 75072,
            "end_tick": 75164,
            "pitch": 83,
            "velocity": 64
        },
        {
            "track": 9,
            "channel": 9,
            "program": null,
            "start_tick": 75072,
            "end_tick": 75260,
            "pitch": 38,
            "velocity": 127
        },
        {
            "track": 1,
            "channel": 0,
            "program": 1,
            "start_tick": 75264,
            "end_tick": 77948,
            "pitch": 74,
            "velocity": 127
        },
        {
            "track": 2,
            "channel": 1,
            "program": 38,
            "start_tick": 75264,
            "end_tick": 75836,
            "pitch": 46,
            "velocity": 96
        },
        {
            "track": 4,
            "channel": 3,
            "program": 80,
            "start_tick": 75264,
            "end_tick": 75836,
            "pitch": 82,
            "velocity": 64
        },
        {
            "track": 5,
            "channel": 2,
            "program": 63,
            "start_tick": 75264,
            "end_tick": 75836,
            "pitch": 62,
            "velocity": 32
        },
        {
            "track": 5,
            "channel": 2,
            "program": 63,
            "start_tick": 75264,
            "end_tick": 75836,
            "pitch": 57,
            "velocity": 32
        },
        {
            "track": 9,
            "channel": 9,
            "program": null,
            "start_tick": 75264,
            "end_tick": 75452,
            "pitch": 35,
            "velocity": 127
        },
        {
            "track": 9,
            "channel": 9,
            "program": null,
            "start_tick": 75264,
            "end_tick": 75644,
            "pitch": 49,
            "velocity": 127
        },
        {
            "track": 9,
            "channel": 9,
            "program": null,
            "start_tick": 75648,
            "end_tick": 75836,
            "pitch": 38,
            "velocity": 127
        },
        {
            "track": 2,
            "channel": 1,
            "program": 38,
            "start_tick": 75840,
            "end_tick": 76412,
            "pitch": 45,
            "velocity": 96
        },
        {
            "track": 4,
            "channel": 3,
            "program": 80,
            "start_tick": 75840,
            "end_tick": 76412,
            "pitch": 81,
            "velocity": 64
        },
        {
            "track": 5,
            "channel": 2,
            "program": 63,
            "start_tick": 75840,
            "end_tick": 76412,
            "pitch": 62,
            "velocity": 32
        },
        {
            "track": 5,
            "channel": 2,
            "program": 63,
            "start_tick": 75840,
            "end_tick": 76412,
            "pitch": 57,
            "velocity": 32
        },
        {
            "track": 9,
            "channel": 9,
            "program": null,
            "start_tick": 75840,
            "end_tick": 76028,
            "pitch": 35,
            "velocity": 127
        },
        {
            "track": 9,
            "channel": 9,
            "program": null,
            "start_tick": 76224,
            "end_tick": 76412,
            "pitch": 35,
            "velocity": 127
        },
        {
            "track": 2,
            "channel": 1,
            "program": 38,
            "start_tick": 76416,
            "end_tick": 76988,
            "pitch": 43,
            "velocity": 96
        },
        {
            "track": 4,
            "channel": 3,
            "program": 80,
            "start_tick": 76416,
            "end_tick": 76988,
            "pitch": 79,
            "velocity": 64
        },
        {
            "track": 5,
            "channel": 2,
            "program": 63,
            "start_tick": 76416,
            "end_tick": 76988,
            "pitch": 57,
            "velocity": 32
        },
        {
            "track": 5,
            "channel": 2,
            "program": 63,
            "start_tick": 76416,
            "end_tick": 76988,
            "pitch": 62,
            "velocity": 32
        },
        {
            "track": 9,
            "channel": 9,
            "program": null,
            "start_tick": 76416,
            "end_tick": 76604,
            "pitch": 38,
            "velocity": 127
        },
        {
            "track": 9,
            "channel": 9,
            "program": null,
            "start_tick": 76800,
            "end_tick": 76988,
            "pitch": 35,
            "velocity": 127
        },
        {
            "track": 2,
            "channel": 1,
            "program": 38,
            "start_tick": 76992,
            "end_tick": 77564,
            "pitch": 41,
            "velocity": 96
        },
        {
            "track": 4,
            "channel": 3,
            "program": 80,
            "start_tick": 76992,
            "end_tick": 77564,
            "pitch": 77,
            "velocity": 64
        },
        {
            "track": 5,
            "channel": 2,
            "program": 63,
            "start_tick": 76992,
            "end_tick": 77564,
            "pitch": 62,
            "velocity": 32
        },
        {
            "track": 5,
            "channel": 2,
            "program": 63,
            "start_tick": 76992,
            "end_tick": 77564,
            "pitch": 57,
            "velocity": 32
        },
        {
            "track": 9,
            "channel": 9,
            "program": null,
            "start_tick": 77184,
            "end_tick": 77372,
            "pitch": 38,
            "velocity": 127
        },
        {
            "track": 9,
            "channel": 9,
            "program": null,
            "start_tick": 77376,
            "end_tick": 77564,
            "pitch": 35,
            "velocity": 127
        },
        {
            "track": 2,
            "channel": 1,
            "program": 38,
            "start_tick": 77568,
            "end_tick": 77852,
            "pitch": 40,
            "velocity": 96
        },
        {
            "track": 4,
            "channel": 3,
            "program": 80,
            "start_tick": 77568,
            "end_tick": 77852,
            "pitch": 76,
            "velocity": 64
        },
        {
            "track": 5,
            "channel": 2,
            "program": 63,
            "start_tick": 77568,
            "end_tick": 77852,
            "pitch": 62,
            "velocity": 32
        },
        {
            "track": 5,
            "channel": 2,
            "program": 63,
            "start_tick": 77568,
            "end_tick": 77852,
            "pitch": 57,
            "velocity": 32
        },
        {
            "track": 9,
            "channel": 9,
            "program": null,
            "start_tick": 77760,
            "end_tick": 77948,
            "pitch": 35,
            "velocity": 127
        },
        {
            "track": 1,
            "channel": 0,
            "program": 1,
            "start_tick": 77952,
            "end_tick": 78140,
            "pitch": 69,
            "velocity": 127
        },
        {
            "track": 2,
            "channel": 1,
            "program": 38,
            "start_tick": 77952,
            "end_tick": 78236,
            "pitch": 40,
            "velocity": 96
        },
        {
            "track": 4,
            "channel": 3,
            "program": 80,
            "start_tick": 77952,
            "end_tick": 78236,
            "pitch": 76,
            "velocity": 64
        },
        {
            "track": 5,
            "channel": 2,
            "program": 63,
            "start_tick": 77952,
            "end_tick": 78236,
            "pitch": 57,
            "velocity": 32
        },
        {
            "track": 5,
            "channel": 2,
            "program": 63,
            "start_tick": 77952,
            "end_tick": 78236,
            "pitch": 62,
            "velocity": 32
        },
        {
            "track": 9,
            "channel": 9,
            "program": null,
            "start_tick": 77952,
            "end_tick": 78140,
            "pitch": 38,
            "velocity": 127
        },
        {
            "track": 1,
            "channel": 0,
            "program": 1,
            "start_tick": 78144,
            "end_tick": 78332,
            "pitch": 72,
            "velocity": 127
        },
        {
            "track": 1,
            "channel": 0,
            "program": 1,
            "start_tick": 78336,
            "end_tick": 80828,
            "pitch": 76,
            "velocity": 127
        },
        {
            "track": 2,
            "channel": 1,
            "program": 38,
            "start_tick": 78336,
            "end_tick": 78908,
            "pitch": 33,
            "velocity": 96
        },
        {
            "track": 4,
            "channel": 3,
            "program": 80,
            "start_tick": 78336,
            "end_tick": 78908,
            "pitch": 69,
            "velocity": 64
        },
        {
            "track": 5,
            "channel": 2,
            "program": 63,
            "start_tick": 78336,
            "end_tick": 78908,
            "pitch": 60,
            "velocity": 32
        },
        {
            "track": 5,
            "channel": 2,
            "program": 63,
            "start_tick": 78336,
            "end_tick": 78908,
            "pitch": 57,
            "velocity": 32
        },
        {
            "track": 9,
            "channel": 9,
            "program": null,
            "start_tick": 78336,
            "end_tick": 78524,
            "pitch": 35,
            "velocity": 127
        },
        {
            "track": 9,
            "channel": 9,
            "program": null,
            "start_tick": 78720,
            "end_tick": 78908,
            "pitch": 38,
            "velocity": 127
        },
        {
            "track": 2,
            "channel": 1,
            "program": 38,
            "start_tick": 78912,
            "end_tick": 79484,
            "pitch": 35,
            "velocity": 96
        },
        {
            "track": 4,
            "channel": 3,
            "program": 80,
            "start_tick": 78912,
            "end_tick": 79484,
            "pitch": 71,
            "velocity": 64
        },
        {
            "track": 5,
            "channel": 2,
            "program": 63,
            "start_tick": 78912,
            "end_tick": 79484,
            "pitch": 60,
            "velocity": 32
        },
        {
            "track": 5,
            "channel": 2,
            "program": 63,
            "start_tick": 78912,
            "end_tick": 79484,
            "pitch": 57,
            "velocity": 32
        },
        {
            "track": 9,
            "channel": 9,
            "program": null,
            "start_tick": 78912,
            "end_tick": 79100,
            "pitch": 35,
            "velocity": 127
        },
        {
            "track": 9,
            "channel": 9,
            "program": null,
            "start_tick": 79296,
            "end_tick": 79484,
            "pitch": 35,
            "velocity": 127
        },
        {
            "track": 2,
            "channel": 1,
            "program": 38,
            "start_tick": 79488,
            "end_tick": 80060,
            "pitch": 36,
            "velocity": 96
        },
        {
            "track": 4,
            "channel": 3,
            "program": 80,
            "start_tick": 79488,
            "end_tick": 80060,
            "pitch": 72,
            "velocity": 64
        },
        {
            "track": 5,
            "channel": 2,
            "program": 63,
            "start_tick": 79488,
            "end_tick": 80060,
            "pitch": 57,
            "velocity": 32
        },
        {
            "track": 5,
            "channel": 2,
            "program": 63,
            "start_tick": 79488,
            "end_tick": 80060,
            "pitch": 60,
            "velocity": 32
        },
        {
            "track": 9,
            "channel": 9,
            "program": null,
            "start_tick": 79488,
            "end_tick": 79676,
            "pitch": 38,
            "velocity": 127
        },
        {
            "track": 9,
            "channel": 9,
            "program": null,
            "start_tick": 79872,
            "end_tick": 80060,
            "pitch": 35,
            "velocity": 127
        },
        {
            "track": 2,
            "channel": 1,
            "program": 38,
            "start_tick": 80064,
            "end_tick": 80636,
            "pitch": 38,
            "velocity": 96
        },
        {
            "track": 4,
            "channel": 3,
            "program": 80,
            "start_tick": 80064,
            "end_tick": 80636,
            "pitch": 74,
            "velocity": 64
        },
        {
            "track": 5,
            "channel": 2,
            "program": 63,
            "start_tick": 80064,
            "end_tick": 80636,
            "pitch": 60,
            "velocity": 32
        },
        {
            "track": 5,
            "channel": 2,
            "program": 63,
            "start_tick": 80064,
            "end_tick": 80636,
            "pitch": 57,
            "velocity": 32
        },
        {
            "track": 9,
            "channel": 9,
            "program": null,
            "start_tick": 80256,
            "end_tick": 80444,
            "pitch": 38,
            "velocity": 127
        },
        {
            "track": 9,
            "channel": 9,
            "program": null,
            "start_tick": 80448,
            "end_tick": 80636,
            "pitch": 35,
            "velocity": 127
        },
        {
            "track": 2,
            "channel": 1,
            "program": 38,
            "start_tick": 80640,
            "end_tick": 80924,
            "pitch": 40,
            "velocity": 96
        },
        {
            "track": 4,
            "channel": 3,
            "program": 80,
            "start_tick": 80640,
            "end_tick": 80924,
            "pitch": 76,
            "velocity": 64
        },
        {
            "track": 5,
            "channel": 2,
            "program": 63,
            "start_tick": 80640,
            "end_tick": 80924,
            "pitch": 60,
            "velocity": 32
        },
        {
            "track": 5,
            "channel": 2,
            "program": 63,
            "start_tick": 80640,
            "end_tick": 80924,
            "pitch": 57,
            "velocity": 32
        },
        {
            "track": 1,
            "channel": 0,
            "program": 1,
            "start_tick": 80832,
            "end_tick": 81020,
            "pitch": 72,
            "velocity": 127
        },
        {
            "track": 9,
            "channel": 9,
            "program": null,
            "start_tick": 80832,
            "end_tick": 81020,
            "pitch": 35,
            "velocity": 127
        },
        {
            "track": 1,
            "channel": 0,
            "program": 1,
            "start_tick": 81024,
            "end_tick": 81212,
            "pitch": 72,
            "velocity": 127
        },
        {
            "track": 2,
            "channel": 1,
            "program": 38,
            "start_tick": 81024,
            "end_tick": 81308,
            "pitch": 45,
            "velocity": 96
        },
        {
            "track": 4,
            "channel": 3,
            "program": 80,
            "start_tick": 81024,
            "end_tick": 81308,
            "pitch": 81,
            "velocity": 64
        },
        {
            "track": 5,
            "channel": 2,
            "program": 63,
            "start_tick": 81024,
            "end_tick": 81308,
            "pitch": 57,
            "velocity": 32
        },
        {
            "track": 5,
            "channel": 2,
            "program": 63,
            "start_tick": 81024,
            "end_tick": 81308,
            "pitch": 60,
            "velocity": 32
        },
        {
            "track": 9,
            "channel": 9,
            "program": null,
            "start_tick": 81024,
            "end_tick": 81212,
            "pitch": 38,
            "velocity": 127
        },
        {
            "track": 1,
            "channel": 0,
            "program": 1,
            "start_tick": 81216,
            "end_tick": 81404,
            "pitch": 76,
            "velocity": 127
        },
        {
            "track": 1,
            "channel": 0,
            "program": 1,
            "start_tick": 81408,
            "end_tick": 84092,
            "pitch": 75,
            "velocity": 127
        },
        {
            "track": 2,
            "channel": 1,
            "program": 38,
            "start_tick": 81408,
            "end_tick": 81980,
            "pitch": 44,
            "velocity": 96
        },
        {
            "track": 4,
            "channel": 3,
            "program": 80,
            "start_tick": 81408,
            "end_tick": 81980,
            "pitch": 80,
            "velocity": 64
        },
        {
            "track": 5,
            "channel": 2,
            "program": 63,
            "start_tick": 81408,
            "end_tick": 81980,
            "pitch": 60,
            "velocity": 32
        },
        {
            "track": 5,
            "channel": 2,
            "program": 63,
            "start_tick": 81408,
            "end_tick": 81980,
            "pitch": 55,
            "velocity": 32
        },
        {
            "track": 9,
            "channel": 9,
            "program": null,
            "start_tick": 81408,
            "end_tick": 81596,
            "pitch": 35,
            "velocity": 127
        },
        {
            "track": 9,
            "channel": 9,
            "program": null,
            "start_tick": 81792,
            "end_tick": 81980,
            "pitch": 38,
            "velocity": 127
        },
        {
            "track": 2,
            "channel": 1,
            "program": 38,
            "start_tick": 81984,
            "end_tick": 82556,
            "pitch": 43,
            "velocity": 96
        },
        {
            "track": 4,
            "channel": 3,
            "program": 80,
            "start_tick": 81984,
            "end_tick": 82556,
            "pitch": 79,
            "velocity": 64
        },
        {
            "track": 5,
            "channel": 2,
            "program": 63,
            "start_tick": 81984,
            "end_tick": 82556,
            "pitch": 60,
            "velocity": 32
        },
        {
            "track": 5,
            "channel": 2,
            "program": 63,
            "start_tick": 81984,
            "end_tick": 82556,
            "pitch": 55,
            "velocity": 32
        },
        {
            "track": 9,
            "channel": 9,
            "program": null,
            "start_tick": 81984,
            "end_tick": 82172,
            "pitch": 35,
            "velocity": 127
        },
        {
            "track": 9,
            "channel": 9,
            "program": null,
            "start_tick": 82368,
            "end_tick": 82556,
            "pitch": 35,
            "velocity": 127
        },
        {
            "track": 2,
            "channel": 1,
            "program": 38,
            "start_tick": 82560,
            "end_tick": 83132,
            "pitch": 41,
            "velocity": 96
        },
        {
            "track": 4,
            "channel": 3,
            "program": 80,
            "start_tick": 82560,
            "end_tick": 83132,
            "pitch": 77,
            "velocity": 64
        },
        {
            "track": 5,
            "channel": 2,
            "program": 63,
            "start_tick": 82560,
            "end_tick": 83132,
            "pitch": 55,
            "velocity": 32
        },
        {
            "track": 5,
            "channel": 2,
            "program": 63,
            "start_tick": 82560,
            "end_tick": 83132,
            "pitch": 60,
            "velocity": 32
        },
        {
            "track": 9,
            "channel": 9,
            "program": null,
            "start_tick": 82560,
            "end_tick": 82748,
            "pitch": 38,
            "velocity": 127
        },
        {
            "track": 9,
            "channel": 9,
            "program": null,
            "start_tick": 82944,
            "end_tick": 83132,
            "pitch": 35,
            "velocity": 127
        },
        {
            "track": 2,
            "channel": 1,
            "program": 38,
            "start_tick": 83136,
            "end_tick": 83708,
            "pitch": 39,
            "velocity": 96
        },
        {
            "track": 4,
            "channel": 3,
            "program": 80,
            "start_tick": 83136,
            "end_tick": 83708,
            "pitch": 75,
            "velocity": 64
        },
        {
            "track": 5,
            "channel": 2,
            "program": 63,
            "start_tick": 83136,
            "end_tick": 83708,
            "pitch": 60,
            "velocity": 32
        },
        {
            "track": 5,
            "channel": 2,
            "program": 63,
            "start_tick": 83136,
            "end_tick": 83708,
            "pitch": 55,
            "velocity": 32
        },
        {
            "track": 9,
            "channel": 9,
            "program": null,
            "start_tick": 83328,
            "end_tick": 83516,
            "pitch": 38,
            "velocity": 127
        },
        {
            "track": 9,
            "channel": 9,
            "program": null,
            "start_tick": 83520,
            "end_tick": 83708,
            "pitch": 35,
            "velocity": 127
        },
        {
            "track": 2,
            "channel": 1,
            "program": 38,
            "start_tick": 83712,
            "end_tick": 83996,
            "pitch": 38,
            "velocity": 96
        },
        {
            "track": 4,
            "channel": 3,
            "program": 80,
            "start_tick": 83712,
            "end_tick": 83996,
            "pitch": 74,
            "velocity": 64
        },
        {
            "track": 5,
            "channel": 2,
            "program": 63,
            "start_tick": 83712,
            "end_tick": 83996,
            "pitch": 60,
            "velocity": 32
        },
        {
            "track": 5,
            "channel": 2,
            "program": 63,
            "start_tick": 83712,
            "end_tick": 83996,
            "pitch": 55,
            "velocity": 32
        },
        {
            "track": 9,
            "channel": 9,
            "program": null,
            "start_tick": 83904,
            "end_tick": 84092,
            "pitch": 35,
            "velocity": 127
        },
        {
            "track": 1,
            "channel": 0,
            "program": 1,
            "start_tick": 84096,
            "end_tick": 84284,
            "pitch": 72,
            "velocity": 127
        },
        {
            "track": 2,
            "channel": 1,
            "program": 38,
            "start_tick": 84096,
            "end_tick": 84380,
            "pitch": 36,
            "velocity": 96
        },
        {
            "track": 4,
            "channel": 3,
            "program": 80,
            "start_tick": 84096,
            "end_tick": 84380,
            "pitch": 72,
            "velocity": 64
        },
        {
            "track": 5,
            "channel": 2,
            "program": 63,
            "start_tick": 84096,
            "end_tick": 84380,
            "pitch": 55,
            "velocity": 32
        },
        {
            "track": 5,
            "channel": 2,
            "program": 63,
            "start_tick": 84096,
            "end_tick": 84380,
            "pitch": 60,
            "velocity": 32
        },
        {
            "track": 9,
            "channel": 9,
            "program": null,
            "start_tick": 84096,
            "end_tick": 84284,
            "pitch": 38,
            "velocity": 127
        },
        {
            "track": 1,
            "channel": 0,
            "program": 1,
            "start_tick": 84288,
            "end_tick": 84476,
            "pitch": 75,
            "velocity": 127
        },
        {
            "track": 1,
            "channel": 0,
            "program": 1,
            "start_tick": 84480,
            "end_tick": 87548,
            "pitch": 74,
            "velocity": 127
        },
        {
            "track": 2,
            "channel": 1,
            "program": 38,
            "start_tick": 84480,
            "end_tick": 85052,
            "pitch": 31,
            "velocity": 96
        },
        {
            "track": 5,
            "channel": 2,
            "program": 63,
            "start_tick": 84480,
            "end_tick": 85052,
            "pitch": 69,
            "velocity": 32
        },
        {
            "track": 5,
            "channel": 2,
            "program": 63,
            "start_tick": 84480,
            "end_tick": 85052,
            "pitch": 65,
            "velocity": 32
        },
        {
            "track": 9,
            "channel": 9,
            "program": null,
            "start_tick": 84480,
            "end_tick": 84668,
            "pitch": 35,
            "velocity": 127
        },
        {
            "track": 4,
            "channel": 3,
            "program": 80,
            "start_tick": 84672,
            "end_tick": 84860,
            "pitch": 79,
            "velocity": 64
        },
        {
            "track": 4,
            "channel": 3,
            "program": 80,
            "start_tick": 84864,
            "end_tick": 85052,
            "pitch": 81,
            "velocity": 64
        },
        {
            "track": 9,
            "channel": 9,
            "program": null,
            "start_tick": 84864,
            "end_tick": 85052,
            "pitch": 38,
            "velocity": 127
        },
        {
            "track": 2,
            "channel": 1,
            "program": 38,
            "start_tick": 85056,
            "end_tick": 85628,
            "pitch": 38,
            "velocity": 96
        },
        {
            "track": 4,
            "channel": 3,
            "program": 80,
            "start_tick": 85056,
            "end_tick": 85436,
            "pitch": 79,
            "velocity": 64
        },
        {
            "track": 5,
            "channel": 2,
            "program": 63,
            "start_tick": 85056,
            "end_tick": 85628,
            "pitch": 69,
            "velocity": 32
        },
        {
            "track": 5,
            "channel": 2,
            "program": 63,
            "start_tick": 85056,
            "end_tick": 85628,
            "pitch": 65,
            "velocity": 32
        },
        {
            "track": 9,
            "channel": 9,
            "program": null,
            "start_tick": 85056,
            "end_tick": 85244,
            "pitch": 35,
            "velocity": 127
        },
        {
            "track": 4,
            "channel": 3,
            "program": 80,
            "start_tick": 85440,
            "end_tick": 85628,
            "pitch": 81,
            "velocity": 64
        },
        {
            "track": 9,
            "channel": 9,
            "program": null,
            "start_tick": 85440,
            "end_tick": 85628,
            "pitch": 35,
            "velocity": 127
        },
        {
            "track": 2,
            "channel": 1,
            "program": 38,
            "start_tick": 85632,
            "end_tick": 86012,
            "pitch": 31,
            "velocity": 96
        },
        {
            "track": 5,
            "channel": 2,
            "program": 63,
            "start_tick": 85632,
            "end_tick": 86204,
            "pitch": 65,
            "velocity": 32
        },
        {
            "track": 5,
            "channel": 2,
            "program": 63,
            "start_tick": 85632,
            "end_tick": 86204,
            "pitch": 69,
            "velocity": 32
        },
        {
            "track": 9,
            "channel": 9,
            "program": null,
            "start_tick": 85632,
            "end_tick": 85820,
            "pitch": 38,
            "velocity": 127
        },
        {
            "track": 4,
            "channel": 3,
            "program": 80,
            "start_tick": 85824,
            "end_tick": 86204,
            "pitch": 88,
            "velocity": 64
        },
        {
            "track": 2,
            "channel": 1,
            "program": 38,
            "start_tick": 86016,
            "end_tick": 86204,
            "pitch": 43,
            "velocity": 96
        },
        {
            "track": 9,
            "channel": 9,
            "program": null,
            "start_tick": 86016,
            "end_tick": 86204,
            "pitch": 35,
            "velocity": 127
        },
        {
            "track": 2,
            "channel": 1,
            "program": 38,
            "start_tick": 86208,
            "end_tick": 86396,
            "pitch": 31,
            "velocity": 96
        },
        {
            "track": 4,
            "channel": 3,
            "program": 80,
            "start_tick": 86208,
            "end_tick": 86396,
            "pitch": 88,
            "velocity": 64
        },
        {
            "track": 5,
            "channel": 2,
            "program": 63,
            "start_tick": 86208,
            "end_tick": 86780,
            "pitch": 69,
            "velocity": 32
        },
        {
            "track": 5,
            "channel": 2,
            "program": 63,
            "start_tick": 86208,
            "end_tick": 86780,
            "pitch": 65,
            "velocity": 32
        },
        {
            "track": 2,
            "channel": 1,
            "program": 38,
            "start_tick": 86400,
            "end_tick": 86588,
            "pitch": 33,
            "velocity": 96
        },
        {
            "track": 4,
            "channel": 3,
            "program": 80,
            "start_tick": 86400,
            "end_tick": 86588,
            "pitch": 89,
            "velocity": 64
        },
        {
            "track": 9,
            "channel": 9,
            "program": null,
            "start_tick": 86400,
            "end_tick": 86588,
            "pitch": 38,
            "velocity": 127
        },
        {
            "track": 2,
            "channel": 1,
            "program": 38,
            "start_tick": 86592,
            "end_tick": 86780,
            "pitch": 35,
            "velocity": 96
        },
        {
            "track": 4,
            "channel": 3,
            "program": 80,
            "start_tick": 86592,
            "end_tick": 86780,
            "pitch": 88,
            "velocity": 64
        },
        {
            "track": 9,
            "channel": 9,
            "program": null,
            "start_tick": 86592,
            "end_tick": 86780,
            "pitch": 35,
            "velocity": 127
        },
        {
            "track": 2,
            "channel": 1,
            "program": 38,
            "start_tick": 86784,
            "end_tick": 86972,
            "pitch": 36,
            "velocity": 96
        },
        {
            "track": 4,
            "channel": 3,
            "program": 80,
            "start_tick": 86784,
            "end_tick": 86972,
            "pitch": 91,
            "velocity": 64
        },
        {
            "track": 5,
            "channel": 2,
            "program": 63,
            "start_tick": 86784,
            "end_tick": 87068,
            "pitch": 69,
            "velocity": 32
        },
        {
            "track": 5,
            "channel": 2,
            "program": 63,
            "start_tick": 86784,
            "end_tick": 87068,
            "pitch": 65,
            "velocity": 32
        },
        {
            "track": 2,
            "channel": 1,
            "program": 38,
            "start_tick": 86976,
            "end_tick": 87164,
            "pitch": 38,
            "velocity": 96
        },
        {
            "track": 4,
            "channel": 3,
            "program": 80,
            "start_tick": 86976,
            "end_tick": 87164,
            "pitch": 88,
            "velocity": 64
        },
        {
            "track": 9,
            "channel": 9,
            "program": null,
            "start_tick": 86976,
            "end_tick": 87164,
            "pitch": 38,
            "velocity": 127
        },
        {
            "track": 2,
            "channel": 1,
            "program": 38,
            "start_tick": 87168,
            "end_tick": 87356,
            "pitch": 40,
            "velocity": 96
        },
        {
            "track": 4,
            "channel": 3,
            "program": 80,
            "start_tick": 87168,
            "end_tick": 87356,
            "pitch": 88,
            "velocity": 64
        },
        {
            "track": 5,
            "channel": 2,
            "program": 63,
            "start_tick": 87168,
            "end_tick": 87452,
            "pitch": 65,
            "velocity": 32
        },
        {
            "track": 5,
            "channel": 2,
            "program": 63,
            "start_tick": 87168,
            "end_tick": 87452,
            "pitch": 69,
            "velocity": 32
        },
        {
            "track": 9,
            "channel": 9,
            "program": null,
            "start_tick": 87168,
            "end_tick": 87356,
            "pitch": 38,
            "velocity": 127
        },
        {
            "track": 2,
            "channel": 1,
            "program": 38,
            "start_tick": 87360,
            "end_tick": 87548,
            "pitch": 41,
            "velocity": 96
        },
        {
            "track": 4,
            "channel": 3,
            "program": 80,
            "start_tick": 87360,
            "end_tick": 87548,
            "pitch": 84,
            "velocity": 64
        },
        {
            "track": 9,
            "channel": 9,
            "program": null,
            "start_tick": 87360,
            "end_tick": 87548,
            "pitch": 38,
            "velocity": 127
        }
    ]
};
