// Auto-generated wrapper for notes.json to allow loading without a static server
// Updated: added long notes (hold notes) via end_tick - start_tick >= 192
window.PRELOADED_NOTES = [
    {"track":0,"start_tick":0,"end_tick":48,"pitch":87,"velocity":100},
    {"track":0,"start_tick":288,"end_tick":336,"pitch":90,"velocity":100},
    {"track":0,"start_tick":336,"end_tick":384,"pitch":85,"velocity":100},
    {"track":0,"start_tick":672,"end_tick":720,"pitch":83,"velocity":100},
    {"track":0,"start_tick":720,"end_tick":768,"pitch":82,"velocity":100},
    {"track":0,"start_tick":864,"end_tick":912,"pitch":78,"velocity":100},
    {"track":0,"start_tick":960,"end_tick":1008,"pitch":75,"velocity":100},
    {"track":0,"start_tick":1056,"end_tick":1104,"pitch":82,"velocity":100},
    {"track":0,"start_tick":1104,"end_tick":1152,"pitch":80,"velocity":100},
    {"track":0,"start_tick":1344,"end_tick":1392,"pitch":80,"velocity":100},
    {"track":0,"start_tick":1392,"end_tick":1440,"pitch":82,"velocity":100},
    {"track":0,"start_tick":1440,"end_tick":1488,"pitch":83,"velocity":100},
    {"track":0,"start_tick":1488,"end_tick":1536,"pitch":85,"velocity":100},
    {"track":0,"start_tick":1536,"end_tick":1584,"pitch":87,"velocity":100},
    {"track":0,"start_tick":1824,"end_tick":1872,"pitch":90,"velocity":100},
    {"track":0,"start_tick":1872,"end_tick":1920,"pitch":88,"velocity":100},
    {"track":0,"start_tick":2016,"end_tick":2064,"pitch":87,"velocity":100},
    {"track":0,"start_tick":2064,"end_tick":2112,"pitch":85,"velocity":100},
    {"track":0,"start_tick":2208,"end_tick":2256,"pitch":94,"velocity":100},
    {"track":0,"start_tick":2256,"end_tick":2304,"pitch":90,"velocity":100},
    {"track":0,"start_tick":2592,"end_tick":2640,"pitch":92,"velocity":100},
    {"track":0,"start_tick":2640,"end_tick":2688,"pitch":85,"velocity":100},

    // ── 롱 노트 (end_tick - start_tick >= 192 → hold note) ──
    {"track":0,"start_tick":192,"end_tick":576,"pitch":78,"velocity":100},
    {"track":0,"start_tick":768,"end_tick":1056,"pitch":90,"velocity":100},
    {"track":0,"start_tick":1152,"end_tick":1344,"pitch":83,"velocity":100},
    {"track":0,"start_tick":1584,"end_tick":1824,"pitch":75,"velocity":100},
    {"track":0,"start_tick":2112,"end_tick":2400,"pitch":87,"velocity":100},
    {"track":0,"start_tick":2400,"end_tick":2592,"pitch":80,"velocity":100}
];
